<svg width="1410" height="396" viewBox="0 0 1410 396" fill="none" xmlns="http://www.w3.org/2000/svg">
<g clip-path="url(#clip0_166_873)">
<path d="M1212.17 395.659C1321.43 395.659 1410 307.088 1410 197.829C1410 88.5713 1321.43 0 1212.17 0C1102.91 0 1014.34 88.5713 1014.34 197.829C1014.34 307.088 1102.91 395.659 1212.17 395.659Z" fill="#567CDA"/>
<path d="M0 197.829H999.366L988.55 188.613" stroke="#767676" stroke-width="0.5" stroke-miterlimit="10"/>
<path opacity="0.2" d="M867.387 364.677C912.277 364.677 948.669 328.286 948.669 283.395C948.669 238.504 912.277 202.113 867.387 202.113C822.496 202.113 786.105 238.504 786.105 283.395C786.105 328.286 822.496 364.677 867.387 364.677Z" fill="#5A6FB1"/>
<path opacity="0.2" d="M867.387 193.553C912.277 193.553 948.669 157.162 948.669 112.271C948.669 67.3806 912.277 30.9895 867.387 30.9895C822.496 30.9895 786.105 67.3806 786.105 112.271C786.105 157.162 822.496 193.553 867.387 193.553Z" fill="#5A6FB1"/>
<path d="M850.731 99.346C851.468 99.7368 852.036 100.282 852.434 100.983C852.839 101.683 853.038 102.502 853.038 103.416C853.038 104.33 852.839 105.134 852.434 105.842C852.028 106.55 851.461 107.103 850.723 107.486C849.986 107.877 849.131 108.068 848.157 108.068H844.67V98.7488H848.157C849.138 98.7635 849.993 98.9552 850.731 99.346ZM850.008 105.414C850.487 104.942 850.723 104.279 850.723 103.423C850.723 102.568 850.487 101.897 850.008 101.418C849.529 100.939 848.865 100.703 848.003 100.703H846.926V106.115H848.003C848.865 106.115 849.536 105.886 850.008 105.414Z" fill="#567CDA"/>
<path d="M861.252 104.92H856.113C856.15 105.385 856.297 105.731 856.556 105.975C856.814 106.218 857.138 106.336 857.514 106.336C858.082 106.336 858.473 106.1 858.694 105.621H861.112C860.987 106.107 860.766 106.542 860.441 106.933C860.117 107.324 859.711 107.626 859.225 107.847C858.738 108.069 858.192 108.179 857.595 108.179C856.873 108.179 856.224 108.024 855.656 107.715C855.088 107.405 854.646 106.963 854.329 106.388C854.012 105.812 853.85 105.142 853.85 104.367C853.85 103.601 854.004 102.922 854.321 102.347C854.638 101.772 855.074 101.33 855.641 101.02C856.209 100.71 856.858 100.555 857.595 100.555C858.31 100.555 858.952 100.71 859.505 101.005C860.065 101.307 860.5 101.735 860.81 102.295C861.127 102.856 861.282 103.505 861.282 104.249C861.289 104.471 861.282 104.692 861.252 104.92ZM858.967 103.66C858.967 103.269 858.834 102.959 858.568 102.731C858.303 102.502 857.971 102.384 857.573 102.384C857.19 102.384 856.873 102.495 856.615 102.716C856.356 102.937 856.194 103.254 856.128 103.66H858.967Z" fill="#567CDA"/>
<path d="M863.774 107.855C863.273 107.634 862.874 107.331 862.579 106.948C862.285 106.564 862.122 106.129 862.085 105.658H864.327C864.356 105.916 864.474 106.122 864.688 106.284C864.902 106.446 865.16 106.52 865.47 106.52C865.75 106.52 865.971 106.469 866.126 106.358C866.281 106.247 866.362 106.1 866.362 105.923C866.362 105.709 866.251 105.554 866.03 105.451C865.809 105.348 865.448 105.237 864.954 105.112C864.423 104.987 863.98 104.861 863.627 104.721C863.273 104.581 862.97 104.367 862.712 104.072C862.454 103.777 862.329 103.372 862.329 102.871C862.329 102.443 862.447 102.059 862.683 101.706C862.919 101.359 863.265 101.079 863.715 100.872C864.172 100.666 864.71 100.57 865.344 100.57C866.273 100.57 867.003 100.799 867.542 101.263C868.08 101.728 868.382 102.332 868.463 103.092H866.369C866.332 102.834 866.222 102.635 866.03 102.48C865.838 102.332 865.588 102.259 865.278 102.259C865.013 102.259 864.806 102.31 864.666 102.413C864.526 102.517 864.452 102.657 864.452 102.834C864.452 103.047 864.563 103.202 864.791 103.313C865.02 103.416 865.366 103.527 865.846 103.63C866.391 103.77 866.841 103.91 867.188 104.05C867.534 104.19 867.837 104.411 868.095 104.714C868.353 105.016 868.493 105.429 868.5 105.945C868.5 106.38 868.375 106.764 868.139 107.11C867.896 107.449 867.549 107.722 867.092 107.914C866.635 108.105 866.111 108.209 865.507 108.209C864.85 108.187 864.275 108.076 863.774 107.855Z" fill="#567CDA"/>
<path d="M870.056 99.5526C869.805 99.3166 869.68 99.0291 869.68 98.6825C869.68 98.3286 869.805 98.0337 870.056 97.7978C870.306 97.5618 870.631 97.4438 871.029 97.4438C871.42 97.4438 871.737 97.5618 871.987 97.7978C872.238 98.0337 872.364 98.3286 872.364 98.6825C872.364 99.0291 872.238 99.3166 871.987 99.5526C871.737 99.7885 871.412 99.9065 871.029 99.9065C870.638 99.9065 870.314 99.7885 870.056 99.5526ZM872.164 100.673V108.076H869.894V100.673H872.164Z" fill="#567CDA"/>
<path d="M877.997 100.887C878.387 101.101 878.697 101.381 878.903 101.72V100.673H881.174V108.069C881.174 108.747 881.042 109.366 880.769 109.919C880.496 110.472 880.091 110.915 879.538 111.239C878.985 111.564 878.299 111.733 877.473 111.733C876.374 111.733 875.49 111.475 874.804 110.959C874.126 110.443 873.735 109.742 873.639 108.858H875.88C875.954 109.138 876.116 109.366 876.382 109.529C876.647 109.691 876.972 109.772 877.362 109.772C877.834 109.772 878.203 109.639 878.483 109.366C878.763 109.093 878.903 108.666 878.903 108.069V107.022C878.682 107.368 878.38 107.648 877.989 107.862C877.598 108.076 877.141 108.187 876.625 108.187C876.013 108.187 875.46 108.032 874.966 107.715C874.472 107.398 874.081 106.955 873.794 106.373C873.506 105.79 873.366 105.127 873.366 104.36C873.366 103.6 873.514 102.93 873.794 102.354C874.074 101.779 874.472 101.337 874.966 101.027C875.46 100.718 876.013 100.563 876.625 100.563C877.141 100.57 877.598 100.673 877.997 100.887ZM878.432 103.04C878.115 102.716 877.738 102.546 877.281 102.546C876.824 102.546 876.448 102.708 876.131 103.033C875.814 103.357 875.659 103.8 875.659 104.367C875.659 104.935 875.814 105.385 876.131 105.717C876.448 106.048 876.824 106.211 877.281 106.211C877.738 106.211 878.115 106.048 878.432 105.717C878.749 105.392 878.903 104.942 878.903 104.375C878.903 103.814 878.749 103.365 878.432 103.04Z" fill="#567CDA"/>
<path d="M889.41 101.44C889.927 102.001 890.185 102.775 890.185 103.755V108.083H887.928V104.065C887.928 103.571 887.803 103.188 887.545 102.907C887.287 102.635 886.94 102.495 886.513 102.495C886.085 102.495 885.731 102.635 885.48 102.907C885.222 103.18 885.097 103.564 885.097 104.065V108.083H882.826V100.681H885.097V101.661C885.326 101.337 885.635 101.079 886.026 100.887C886.417 100.695 886.852 100.6 887.339 100.6C888.201 100.6 888.887 100.88 889.41 101.44Z" fill="#567CDA"/>
<path d="M843.97 123.877C843.431 123.655 842.996 123.331 842.679 122.896C842.355 122.461 842.185 121.937 842.17 121.326H844.589C844.626 121.672 844.744 121.937 844.95 122.114C845.157 122.299 845.422 122.387 845.746 122.387C846.086 122.387 846.351 122.314 846.543 122.151C846.734 121.996 846.838 121.783 846.838 121.51C846.838 121.281 846.757 121.09 846.602 120.942C846.447 120.795 846.255 120.669 846.034 120.573C845.805 120.478 845.488 120.367 845.068 120.242C844.464 120.057 843.977 119.873 843.593 119.681C843.21 119.497 842.886 119.224 842.613 118.855C842.34 118.487 842.2 118.022 842.2 117.432C842.2 116.562 842.517 115.884 843.144 115.397C843.77 114.903 844.589 114.66 845.599 114.66C846.624 114.66 847.45 114.903 848.084 115.397C848.71 115.891 849.05 116.57 849.094 117.447H846.639C846.624 117.145 846.513 116.909 846.307 116.739C846.1 116.57 845.842 116.481 845.525 116.481C845.252 116.481 845.031 116.555 844.862 116.703C844.692 116.85 844.611 117.056 844.611 117.337C844.611 117.639 844.751 117.875 845.039 118.037C845.326 118.199 845.761 118.384 846.366 118.583C846.97 118.789 847.457 118.981 847.833 119.165C848.209 119.349 848.533 119.622 848.806 119.976C849.079 120.33 849.219 120.787 849.219 121.34C849.219 121.871 849.086 122.358 848.814 122.785C848.541 123.213 848.15 123.567 847.641 123.818C847.125 124.076 846.521 124.201 845.82 124.201C845.12 124.208 844.508 124.098 843.97 123.877Z" fill="#567CDA"/>
<path d="M858.155 116.71L853.51 127.63H851.07L852.766 123.862L849.75 116.71H852.286L853.997 121.34L855.693 116.71H858.155Z" fill="#567CDA"/>
<path d="M860.264 123.891C859.763 123.67 859.365 123.368 859.07 122.984C858.775 122.601 858.613 122.166 858.576 121.694H860.817C860.847 121.952 860.965 122.159 861.178 122.321C861.392 122.483 861.65 122.557 861.96 122.557C862.24 122.557 862.461 122.505 862.616 122.395C862.771 122.284 862.852 122.137 862.852 121.96C862.852 121.746 862.742 121.591 862.52 121.488C862.299 121.385 861.938 121.274 861.444 121.149C860.913 121.023 860.471 120.898 860.117 120.758C859.763 120.618 859.461 120.404 859.202 120.109C858.944 119.814 858.819 119.409 858.819 118.907C858.819 118.479 858.937 118.096 859.173 117.742C859.409 117.396 859.755 117.115 860.205 116.909C860.662 116.703 861.201 116.607 861.835 116.607C862.764 116.607 863.494 116.835 864.032 117.3C864.57 117.764 864.872 118.369 864.953 119.128H862.86C862.823 118.87 862.712 118.671 862.52 118.516C862.329 118.369 862.078 118.295 861.768 118.295C861.503 118.295 861.296 118.347 861.156 118.45C861.016 118.553 860.943 118.693 860.943 118.87C860.943 119.084 861.053 119.239 861.282 119.35C861.51 119.453 861.857 119.563 862.336 119.667C862.882 119.807 863.331 119.947 863.678 120.087C864.024 120.227 864.327 120.448 864.585 120.75C864.843 121.053 864.983 121.466 864.99 121.982C864.99 122.417 864.865 122.8 864.629 123.147C864.386 123.486 864.039 123.759 863.582 123.95C863.125 124.142 862.601 124.245 861.997 124.245C861.341 124.223 860.766 124.113 860.264 123.891Z" fill="#567CDA"/>
<path d="M870.506 122.196V124.12H869.348C868.522 124.12 867.881 123.921 867.424 123.515C866.966 123.117 866.731 122.454 866.731 121.547V118.598H865.831V116.71H866.731V114.904H869.001V116.71H870.491V118.598H869.001V121.569C869.001 121.79 869.053 121.952 869.164 122.048C869.267 122.144 869.444 122.196 869.695 122.196H870.506V122.196Z" fill="#567CDA"/>
<path d="M878.712 120.957H873.573C873.61 121.421 873.757 121.768 874.015 122.011C874.273 122.255 874.597 122.373 874.974 122.373C875.541 122.373 875.932 122.137 876.153 121.657H878.572C878.446 122.144 878.225 122.579 877.901 122.97C877.576 123.361 877.171 123.663 876.684 123.884C876.198 124.105 875.652 124.216 875.055 124.216C874.332 124.216 873.683 124.061 873.116 123.751C872.548 123.442 872.105 122.999 871.788 122.424C871.471 121.849 871.309 121.178 871.309 120.404C871.309 119.637 871.464 118.959 871.781 118.384C872.098 117.809 872.533 117.366 873.101 117.057C873.669 116.747 874.317 116.592 875.055 116.592C875.77 116.592 876.411 116.747 876.964 117.042C877.525 117.344 877.96 117.772 878.269 118.332C878.586 118.892 878.741 119.541 878.741 120.286C878.749 120.507 878.741 120.728 878.712 120.957ZM876.426 119.696C876.426 119.305 876.293 118.996 876.028 118.767C875.762 118.539 875.431 118.421 875.033 118.421C874.649 118.421 874.332 118.531 874.074 118.752C873.816 118.974 873.654 119.291 873.587 119.696H876.426Z" fill="#567CDA"/>
<path d="M891.593 117.469C892.138 118.03 892.411 118.804 892.411 119.792V124.12H890.155V120.102C890.155 119.622 890.03 119.254 889.779 118.996C889.528 118.738 889.182 118.605 888.739 118.605C888.297 118.605 887.95 118.738 887.7 118.996C887.449 119.254 887.324 119.622 887.324 120.102V124.12H885.068V120.102C885.068 119.622 884.942 119.254 884.692 118.996C884.441 118.738 884.094 118.605 883.652 118.605C883.21 118.605 882.863 118.738 882.612 118.996C882.362 119.254 882.236 119.622 882.236 120.102V124.12H879.965V116.717H882.236V117.646C882.465 117.337 882.767 117.093 883.136 116.909C883.504 116.725 883.925 116.636 884.397 116.636C884.957 116.636 885.451 116.754 885.893 116.998C886.328 117.233 886.675 117.58 886.918 118.022C887.176 117.617 887.523 117.285 887.965 117.027C888.408 116.769 888.887 116.644 889.41 116.644C890.317 116.636 891.047 116.909 891.593 117.469Z" fill="#567CDA"/>
<path d="M854.462 274.429C854.786 274.85 854.956 275.329 854.956 275.867C854.956 276.649 854.683 277.261 854.137 277.718C853.592 278.175 852.832 278.403 851.859 278.403H847.516V269.084H851.711C852.655 269.084 853.4 269.298 853.938 269.733C854.476 270.168 854.742 270.757 854.742 271.495C854.742 272.04 854.594 272.498 854.314 272.859C854.027 273.22 853.643 273.471 853.164 273.618C853.695 273.744 854.13 274.009 854.462 274.429ZM849.787 272.859H851.276C851.645 272.859 851.933 272.778 852.132 272.615C852.331 272.453 852.434 272.21 852.434 271.893C852.434 271.576 852.331 271.333 852.132 271.163C851.933 270.993 851.645 270.912 851.276 270.912H849.787V272.859ZM852.338 276.317C852.545 276.147 852.648 275.897 852.648 275.565C852.648 275.24 852.537 274.982 852.323 274.798C852.11 274.614 851.807 274.518 851.431 274.518H849.787V276.575H851.461C851.837 276.575 852.132 276.486 852.338 276.317Z" fill="#567CDA"/>
<path d="M859.527 271.274C859.925 271.038 860.368 270.92 860.854 270.92V273.323H860.227C859.66 273.323 859.239 273.449 858.952 273.692C858.672 273.935 858.524 274.363 858.524 274.975V278.411H856.253V271.008H858.524V272.239C858.797 271.827 859.129 271.51 859.527 271.274Z" fill="#567CDA"/>
<path d="M861.923 272.689C862.211 272.114 862.602 271.672 863.096 271.362C863.59 271.053 864.143 270.898 864.754 270.898C865.278 270.898 865.735 271.001 866.126 271.215C866.517 271.429 866.826 271.709 867.033 272.048V271.001H869.304V278.404H867.033V277.357C866.812 277.703 866.502 277.983 866.111 278.19C865.72 278.404 865.256 278.507 864.74 278.507C864.135 278.507 863.59 278.352 863.096 278.035C862.602 277.718 862.211 277.275 861.923 276.693C861.636 276.111 861.496 275.44 861.496 274.68C861.496 273.921 861.636 273.257 861.923 272.689ZM866.568 273.36C866.251 273.036 865.875 272.866 865.418 272.866C864.961 272.866 864.585 273.029 864.268 273.353C863.951 273.677 863.796 274.12 863.796 274.688C863.796 275.255 863.951 275.705 864.268 276.037C864.585 276.369 864.961 276.531 865.418 276.531C865.875 276.531 866.251 276.369 866.568 276.037C866.885 275.705 867.04 275.263 867.04 274.695C867.04 274.135 866.878 273.692 866.568 273.36Z" fill="#567CDA"/>
<path d="M877.54 271.76C878.056 272.321 878.314 273.095 878.314 274.075V278.403H876.058V274.385C876.058 273.891 875.932 273.508 875.674 273.227C875.416 272.955 875.07 272.815 874.642 272.815C874.215 272.815 873.861 272.955 873.61 273.227C873.352 273.5 873.226 273.884 873.226 274.385V278.403H870.956V271.001H873.226V271.981C873.455 271.657 873.765 271.399 874.155 271.207C874.546 271.016 874.981 270.92 875.468 270.92C876.331 270.92 877.024 271.2 877.54 271.76Z" fill="#567CDA"/>
<path d="M879.877 272.689C880.164 272.114 880.555 271.672 881.049 271.362C881.543 271.052 882.096 270.898 882.708 270.898C883.195 270.898 883.637 271.001 884.043 271.2C884.448 271.406 884.758 271.679 884.994 272.026V268.59H887.265V278.411H884.994V277.349C884.78 277.703 884.478 277.983 884.087 278.197C883.696 278.411 883.232 278.514 882.715 278.514C882.103 278.514 881.55 278.359 881.056 278.042C880.562 277.725 880.172 277.283 879.884 276.7C879.597 276.118 879.457 275.447 879.457 274.687C879.457 273.928 879.589 273.257 879.877 272.689ZM884.522 273.36C884.205 273.036 883.829 272.866 883.372 272.866C882.915 272.866 882.539 273.028 882.221 273.353C881.904 273.677 881.75 274.12 881.75 274.687C881.75 275.255 881.904 275.705 882.221 276.037C882.539 276.369 882.915 276.531 883.372 276.531C883.829 276.531 884.205 276.369 884.522 276.037C884.839 275.705 884.994 275.263 884.994 274.695C884.994 274.134 884.839 273.692 884.522 273.36Z" fill="#567CDA"/>
<path d="M843.918 285.128V294.448H841.647V285.128H843.918Z" fill="#567CDA"/>
<path d="M845.547 288.726C845.835 288.151 846.226 287.708 846.72 287.399C847.214 287.089 847.767 286.934 848.379 286.934C848.865 286.934 849.308 287.037 849.713 287.237C850.119 287.443 850.428 287.716 850.664 288.062V284.626H852.935V294.448H850.664V293.386C850.45 293.74 850.148 294.02 849.757 294.234C849.367 294.448 848.902 294.551 848.386 294.551C847.774 294.551 847.221 294.396 846.727 294.079C846.233 293.762 845.842 293.319 845.555 292.737C845.267 292.154 845.127 291.484 845.127 290.724C845.127 289.965 845.26 289.294 845.547 288.726ZM850.192 289.397C849.875 289.072 849.499 288.903 849.042 288.903C848.585 288.903 848.209 289.065 847.892 289.39C847.575 289.714 847.42 290.156 847.42 290.724C847.42 291.292 847.575 291.742 847.892 292.073C848.209 292.405 848.585 292.567 849.042 292.567C849.499 292.567 849.875 292.405 850.192 292.073C850.509 291.742 850.664 291.299 850.664 290.731C850.664 290.171 850.502 289.729 850.192 289.397Z" fill="#567CDA"/>
<path d="M861.518 291.285H856.379C856.416 291.742 856.563 292.096 856.821 292.339C857.079 292.582 857.404 292.708 857.78 292.708C858.347 292.708 858.738 292.472 858.959 291.992H861.378C861.252 292.479 861.031 292.914 860.707 293.305C860.382 293.696 859.977 293.998 859.49 294.219C859.004 294.44 858.458 294.551 857.861 294.551C857.138 294.551 856.489 294.396 855.922 294.086C855.354 293.777 854.912 293.334 854.595 292.759C854.277 292.184 854.115 291.513 854.115 290.739C854.115 289.972 854.27 289.294 854.587 288.719C854.904 288.144 855.339 287.701 855.907 287.392C856.475 287.082 857.123 286.927 857.861 286.927C858.576 286.927 859.217 287.074 859.77 287.377C860.323 287.679 860.766 288.107 861.075 288.667C861.393 289.227 861.547 289.876 861.547 290.621C861.555 290.835 861.547 291.056 861.518 291.285ZM859.232 290.024C859.232 289.633 859.1 289.323 858.834 289.095C858.569 288.866 858.237 288.748 857.839 288.748C857.455 288.748 857.138 288.859 856.88 289.08C856.622 289.301 856.46 289.618 856.394 290.024H859.232V290.024Z" fill="#567CDA"/>
<path d="M869.341 287.797C869.857 288.357 870.115 289.131 870.115 290.112V294.44H867.859V290.422C867.859 289.928 867.733 289.544 867.475 289.264C867.217 288.991 866.871 288.851 866.443 288.851C866.015 288.851 865.661 288.991 865.411 289.264C865.153 289.537 865.027 289.92 865.027 290.422V294.44H862.756V287.037H865.027V288.018C865.256 287.694 865.565 287.436 865.956 287.244C866.347 287.052 866.782 286.956 867.269 286.956C868.131 286.956 868.825 287.236 869.341 287.797Z" fill="#567CDA"/>
<path d="M875.822 292.516V294.44H874.664C873.838 294.44 873.197 294.241 872.74 293.835C872.282 293.43 872.046 292.774 872.046 291.867V288.918H871.147V287.03H872.046V285.224H874.317V287.03H875.807V288.918H874.317V291.889C874.317 292.11 874.369 292.272 874.48 292.368C874.583 292.464 874.76 292.516 875.011 292.516H875.822V292.516Z" fill="#567CDA"/>
<path d="M877.252 285.917C877.001 285.681 876.876 285.393 876.876 285.047C876.876 284.693 877.001 284.398 877.252 284.162C877.503 283.926 877.827 283.808 878.225 283.808C878.616 283.808 878.933 283.926 879.184 284.162C879.434 284.398 879.56 284.693 879.56 285.047C879.56 285.393 879.434 285.681 879.184 285.917C878.933 286.153 878.609 286.271 878.225 286.271C877.827 286.271 877.503 286.153 877.252 285.917ZM879.353 287.038V294.44H877.082V287.038H879.353Z" fill="#567CDA"/>
<path d="M885.127 292.516V294.44H883.969C883.143 294.44 882.502 294.241 882.045 293.835C881.588 293.43 881.352 292.774 881.352 291.867V288.918H880.452V287.03H881.352V285.224H883.623V287.03H885.112V288.918H883.623V291.889C883.623 292.11 883.674 292.272 883.785 292.368C883.888 292.464 884.065 292.516 884.316 292.516H885.127V292.516Z" fill="#567CDA"/>
<path d="M893.952 287.038L889.307 297.957H886.867L888.562 294.19L885.547 287.038H888.083L889.794 291.668L891.49 287.038H893.952Z" fill="#567CDA"/>
<path d="M583.21 145.76C582.694 145.539 582.281 145.222 581.979 144.802C581.676 144.381 581.522 143.895 581.514 143.327H583.505C583.534 143.71 583.667 144.005 583.91 144.226C584.154 144.448 584.486 144.558 584.913 144.558C585.348 144.558 585.687 144.455 585.938 144.249C586.189 144.042 586.307 143.769 586.307 143.43C586.307 143.157 586.226 142.929 586.056 142.752C585.886 142.575 585.68 142.435 585.422 142.332C585.164 142.228 584.825 142.118 584.382 141.992C583.778 141.815 583.291 141.638 582.915 141.469C582.539 141.299 582.215 141.034 581.949 140.687C581.676 140.341 581.544 139.869 581.544 139.286C581.544 138.741 581.684 138.262 581.957 137.856C582.229 137.451 582.613 137.141 583.114 136.92C583.608 136.706 584.176 136.595 584.81 136.595C585.768 136.595 586.543 136.831 587.14 137.296C587.737 137.76 588.069 138.409 588.128 139.242H586.086C586.071 138.925 585.931 138.66 585.68 138.453C585.429 138.247 585.098 138.144 584.677 138.144C584.316 138.144 584.028 138.239 583.807 138.424C583.593 138.608 583.483 138.881 583.483 139.235C583.483 139.485 583.564 139.692 583.726 139.854C583.888 140.016 584.095 140.149 584.338 140.252C584.581 140.356 584.921 140.474 585.363 140.606C585.968 140.783 586.454 140.96 586.838 141.137C587.221 141.314 587.545 141.579 587.818 141.933C588.091 142.287 588.231 142.752 588.231 143.327C588.231 143.821 588.106 144.285 587.848 144.706C587.59 145.133 587.214 145.473 586.72 145.723C586.226 145.974 585.636 146.099 584.957 146.099C584.309 146.092 583.726 145.981 583.21 145.76Z" fill="#567CDA"/>
<path d="M595.464 138.91C595.899 139.154 596.238 139.515 596.482 139.987C596.725 140.459 596.85 141.027 596.85 141.69V146.003H594.992V141.941C594.992 141.358 594.845 140.909 594.557 140.592C594.262 140.274 593.864 140.12 593.363 140.12C592.847 140.12 592.441 140.274 592.146 140.592C591.851 140.909 591.704 141.358 591.704 141.941V146.003H589.846V136.182H591.704V139.567C591.94 139.25 592.264 138.999 592.662 138.815C593.06 138.63 593.503 138.542 593.989 138.542C594.535 138.542 595.036 138.667 595.464 138.91Z" fill="#567CDA"/>
<path d="M598.576 140.319C598.871 139.744 599.276 139.301 599.785 138.992C600.294 138.682 600.861 138.527 601.488 138.527C602.034 138.527 602.513 138.638 602.926 138.859C603.339 139.08 603.663 139.36 603.914 139.692V138.645H605.787V145.996H603.914V144.92C603.678 145.266 603.346 145.554 602.926 145.775C602.506 146.003 602.019 146.114 601.473 146.114C600.854 146.114 600.294 145.952 599.785 145.635C599.276 145.318 598.871 144.868 598.576 144.286C598.281 143.703 598.133 143.039 598.133 142.287C598.133 141.557 598.281 140.894 598.576 140.319ZM603.656 141.159C603.479 140.835 603.243 140.592 602.941 140.415C602.638 140.245 602.314 140.157 601.975 140.157C601.636 140.157 601.311 140.238 601.016 140.407C600.721 140.577 600.485 140.82 600.308 141.145C600.124 141.469 600.036 141.852 600.036 142.295C600.036 142.737 600.124 143.128 600.308 143.46C600.493 143.792 600.729 144.042 601.024 144.219C601.319 144.396 601.636 144.485 601.975 144.485C602.321 144.485 602.646 144.396 602.941 144.227C603.243 144.057 603.479 143.806 603.656 143.482C603.833 143.157 603.921 142.774 603.921 142.324C603.921 141.875 603.833 141.484 603.656 141.159Z" fill="#567CDA"/>
<path d="M610.454 138.866C610.874 138.638 611.353 138.527 611.892 138.527C612.518 138.527 613.086 138.682 613.595 138.992C614.104 139.301 614.509 139.744 614.804 140.311C615.099 140.879 615.246 141.543 615.246 142.295C615.246 143.047 615.099 143.71 614.804 144.293C614.509 144.875 614.104 145.325 613.595 145.642C613.086 145.959 612.518 146.121 611.892 146.121C611.353 146.121 610.874 146.011 610.469 145.79C610.063 145.568 609.724 145.288 609.466 144.957V149.506H607.608V138.652H609.466V139.714C609.709 139.375 610.034 139.095 610.454 138.866ZM613.086 141.152C612.902 140.828 612.666 140.584 612.371 140.415C612.076 140.245 611.752 140.164 611.405 140.164C611.066 140.164 610.756 140.252 610.454 140.422C610.159 140.592 609.916 140.842 609.739 141.174C609.562 141.506 609.466 141.889 609.466 142.332C609.466 142.774 609.554 143.157 609.739 143.489C609.923 143.821 610.159 144.064 610.454 144.241C610.749 144.411 611.066 144.499 611.405 144.499C611.752 144.499 612.069 144.411 612.371 144.234C612.666 144.057 612.909 143.806 613.086 143.474C613.27 143.15 613.359 142.759 613.359 142.31C613.359 141.852 613.263 141.476 613.086 141.152Z" fill="#567CDA"/>
<path d="M623.394 142.885H618.019C618.063 143.416 618.247 143.828 618.579 144.131C618.904 144.433 619.309 144.58 619.788 144.58C620.481 144.58 620.968 144.286 621.263 143.688H623.269C623.055 144.396 622.649 144.979 622.045 145.436C621.44 145.893 620.703 146.121 619.825 146.121C619.117 146.121 618.483 145.967 617.923 145.65C617.363 145.333 616.92 144.89 616.611 144.315C616.293 143.74 616.139 143.076 616.139 142.324C616.139 141.565 616.294 140.894 616.603 140.319C616.913 139.744 617.348 139.301 617.901 138.992C618.454 138.682 619.103 138.527 619.825 138.527C620.526 138.527 621.152 138.675 621.705 138.977C622.258 139.279 622.686 139.707 622.996 140.26C623.298 140.813 623.453 141.447 623.453 142.162C623.445 142.427 623.423 142.671 623.394 142.885ZM621.521 141.631C621.514 141.152 621.337 140.769 621.005 140.481C620.666 140.193 620.26 140.053 619.774 140.053C619.317 140.053 618.926 140.193 618.609 140.474C618.292 140.754 618.1 141.137 618.034 141.639H621.521V141.631Z" fill="#567CDA"/>
<path d="M593.267 155.021H595.678V153.782H596.356V155.021H598.716V155.567H593.274V155.021H593.267ZM596.003 156.127C597.271 156.127 598.133 156.827 598.133 157.896C598.133 158.973 597.271 159.681 596.003 159.681C594.742 159.681 593.872 158.973 593.872 157.896C593.872 156.82 594.742 156.127 596.003 156.127ZM596.003 159.143C596.909 159.143 597.514 158.634 597.514 157.889C597.514 157.152 596.902 156.65 596.003 156.65C595.096 156.65 594.498 157.152 594.498 157.889C594.498 158.634 595.096 159.143 596.003 159.143ZM598.015 160.204C599.977 160.204 601.171 160.801 601.171 161.826C601.171 162.844 599.977 163.441 598.015 163.441C596.039 163.441 594.845 162.844 594.845 161.826C594.838 160.801 596.032 160.204 598.015 160.204ZM598.015 162.925C599.52 162.925 600.478 162.505 600.478 161.826C600.478 161.133 599.52 160.742 598.015 160.742C596.489 160.742 595.523 161.126 595.523 161.826C595.523 162.505 596.489 162.925 598.015 162.925ZM600.434 156.26V153.871H601.112V160.108H600.434V158.671H598.649V158.103H600.434V156.813H598.649V156.26H600.434Z" fill="#767676"/>
<path d="M606.863 155.006V155.574H603.781V157.565H606.745V158.118H603.781V160.462C605.315 160.462 606.214 160.418 607.283 160.197L607.372 160.757C606.244 160.993 605.315 161.03 603.722 161.03H603.14V155.006H606.863ZM608.065 154.099H608.706V157.771H610.188V153.871H610.837V163.478H610.188V158.339H608.706V162.969H608.065V154.099Z" fill="#767676"/>
<path d="M686.98 136.735V138.232H684.51V145.996H682.652V138.232H680.182V136.735H686.98Z" fill="#567CDA"/>
<path d="M694.847 142.885H689.472C689.516 143.416 689.701 143.828 690.032 144.131C690.357 144.433 690.762 144.58 691.242 144.58C691.935 144.58 692.421 144.286 692.716 143.688H694.722C694.508 144.396 694.102 144.979 693.498 145.436C692.893 145.893 692.156 146.121 691.278 146.121C690.571 146.121 689.936 145.967 689.376 145.65C688.816 145.333 688.373 144.89 688.064 144.315C687.747 143.74 687.592 143.076 687.592 142.324C687.592 141.565 687.747 140.894 688.056 140.319C688.366 139.744 688.801 139.301 689.354 138.992C689.907 138.682 690.556 138.527 691.278 138.527C691.979 138.527 692.606 138.675 693.159 138.977C693.712 139.279 694.139 139.707 694.449 140.26C694.751 140.813 694.906 141.447 694.906 142.162C694.899 142.427 694.884 142.671 694.847 142.885ZM692.982 141.631C692.974 141.152 692.797 140.769 692.465 140.481C692.126 140.193 691.721 140.053 691.234 140.053C690.777 140.053 690.386 140.193 690.069 140.474C689.752 140.754 689.56 141.137 689.494 141.639H692.982V141.631Z" fill="#567CDA"/>
<path d="M700.052 146.003L698.541 143.718L697.199 146.003H695.208L697.612 142.317L695.186 138.652H697.28L698.777 140.923L700.133 138.652H702.124L699.706 142.317L702.146 146.003H700.052Z" fill="#567CDA"/>
<path d="M705.051 140.171V143.725C705.051 143.976 705.11 144.153 705.228 144.263C705.346 144.374 705.545 144.426 705.833 144.426H706.696V145.989H705.531C703.968 145.989 703.179 145.229 703.179 143.703V140.164H702.301V138.638H703.179V136.816H705.051V138.638H706.696V140.164H705.051V140.171Z" fill="#567CDA"/>
<path d="M714.717 138.645V145.996H712.845V145.067C712.609 145.384 712.292 145.635 711.908 145.819C711.525 146.003 711.105 146.092 710.655 146.092C710.08 146.092 709.571 145.974 709.129 145.723C708.686 145.48 708.34 145.119 708.089 144.647C707.838 144.175 707.713 143.607 707.713 142.958V138.645H709.571V142.693C709.571 143.275 709.718 143.725 710.006 144.042C710.301 144.359 710.699 144.514 711.2 144.514C711.717 144.514 712.115 144.359 712.41 144.042C712.705 143.725 712.845 143.275 712.845 142.693V138.645H714.717V138.645Z" fill="#567CDA"/>
<path d="M719.075 138.874C719.459 138.652 719.901 138.542 720.395 138.542V140.496H719.901C719.319 140.496 718.876 140.636 718.581 140.909C718.286 141.181 718.139 141.661 718.139 142.339V146.003H716.281V138.652H718.139V139.795C718.382 139.397 718.692 139.095 719.075 138.874Z" fill="#567CDA"/>
<path d="M728.159 142.885H722.784C722.828 143.416 723.013 143.828 723.344 144.131C723.669 144.433 724.074 144.58 724.554 144.58C725.247 144.58 725.733 144.286 726.028 143.688H728.034C727.82 144.396 727.414 144.979 726.81 145.436C726.205 145.893 725.468 146.121 724.59 146.121C723.883 146.121 723.248 145.967 722.688 145.65C722.128 145.333 721.685 144.89 721.376 144.315C721.059 143.74 720.904 143.076 720.904 142.324C720.904 141.565 721.059 140.894 721.368 140.319C721.678 139.744 722.113 139.301 722.666 138.992C723.219 138.682 723.868 138.527 724.59 138.527C725.291 138.527 725.918 138.675 726.471 138.977C727.024 139.279 727.451 139.707 727.761 140.26C728.063 140.813 728.218 141.447 728.218 142.162C728.211 142.427 728.196 142.671 728.159 142.885ZM726.286 141.631C726.279 141.152 726.102 140.769 725.77 140.481C725.431 140.193 725.025 140.053 724.539 140.053C724.082 140.053 723.691 140.193 723.374 140.474C723.057 140.754 722.865 141.137 722.799 141.639H726.286V141.631Z" fill="#567CDA"/>
<path d="M697.767 155.249V155.013H695.467V154.453H700.738V155.013H698.453V155.249C698.453 156.554 699.581 157.69 700.952 158.125L700.62 158.648C699.492 158.272 698.541 157.469 698.128 156.429C697.73 157.557 696.757 158.442 695.607 158.855L695.275 158.324C696.661 157.852 697.767 156.636 697.767 155.249ZM696.816 159.378H702.943V161.553H697.487V162.807H703.304V163.36H696.845V161.059H702.272V159.924H696.809V159.378H696.816ZM702.936 153.871V158.87H702.272V153.871H702.936Z" fill="#767676"/>
<path d="M708.687 155.072H705.015V154.519H709.395C709.395 156.886 707.677 158.619 704.875 159.408L704.609 158.862C707.013 158.191 708.532 156.835 708.687 155.072ZM706.01 159.828H711.983V163.323H706.01V159.828ZM711.319 162.77V160.381H706.674V162.77H711.319ZM711.983 153.871V156.311H713.465V156.879H711.983V159.356H711.304V153.871H711.983V153.871Z" fill="#767676"/>
<path d="M586.978 245.585H590.03V247.06H585.12V237.799H586.978V245.585Z" fill="#567CDA"/>
<path d="M591.18 241.375C591.475 240.8 591.881 240.358 592.389 240.048C592.898 239.739 593.466 239.584 594.093 239.584C594.638 239.584 595.117 239.694 595.53 239.916C595.943 240.137 596.268 240.417 596.518 240.749V239.702H598.391V247.053H596.518V245.976C596.282 246.323 595.951 246.61 595.53 246.832C595.11 247.06 594.623 247.171 594.078 247.171C593.458 247.171 592.898 247.009 592.389 246.691C591.881 246.374 591.475 245.925 591.18 245.342C590.885 244.76 590.738 244.096 590.738 243.344C590.738 242.614 590.885 241.951 591.18 241.375ZM596.253 242.223C596.076 241.899 595.84 241.656 595.538 241.479C595.235 241.309 594.911 241.221 594.572 241.221C594.233 241.221 593.908 241.302 593.613 241.471C593.318 241.641 593.082 241.884 592.906 242.209C592.721 242.533 592.633 242.916 592.633 243.359C592.633 243.801 592.721 244.192 592.906 244.524C593.09 244.856 593.326 245.106 593.621 245.291C593.916 245.475 594.233 245.556 594.572 245.556C594.918 245.556 595.243 245.468 595.538 245.298C595.84 245.128 596.076 244.878 596.253 244.553C596.43 244.229 596.518 243.845 596.518 243.388C596.518 242.931 596.43 242.548 596.253 242.223Z" fill="#567CDA"/>
<path d="M606.406 240.432C606.944 240.985 607.217 241.759 607.217 242.747V247.06H605.359V242.997C605.359 242.415 605.211 241.965 604.924 241.648C604.629 241.331 604.231 241.176 603.729 241.176C603.213 241.176 602.808 241.331 602.513 241.648C602.218 241.965 602.07 242.415 602.07 242.997V247.06H600.212V239.709H602.07V240.623C602.321 240.306 602.638 240.056 603.022 239.871C603.405 239.687 603.825 239.598 604.29 239.598C605.16 239.598 605.868 239.879 606.406 240.432Z" fill="#567CDA"/>
<path d="M613.307 239.915C613.72 240.129 614.052 240.417 614.288 240.756V239.709H616.161V247.112C616.161 247.79 616.021 248.402 615.748 248.933C615.475 249.464 615.062 249.891 614.517 250.208C613.971 250.525 613.307 250.68 612.526 250.68C611.479 250.68 610.624 250.437 609.96 249.95C609.289 249.464 608.913 248.8 608.824 247.959H610.668C610.764 248.299 610.977 248.564 611.294 248.763C611.619 248.962 612.01 249.058 612.467 249.058C613.005 249.058 613.447 248.896 613.779 248.571C614.118 248.247 614.281 247.76 614.281 247.104V245.961C614.045 246.308 613.713 246.595 613.293 246.824C612.872 247.053 612.393 247.171 611.855 247.171C611.235 247.171 610.668 247.008 610.159 246.691C609.643 246.374 609.237 245.924 608.942 245.342C608.647 244.76 608.5 244.096 608.5 243.344C608.5 242.599 608.647 241.943 608.942 241.368C609.237 240.793 609.643 240.35 610.152 240.041C610.66 239.731 611.228 239.576 611.855 239.576C612.415 239.584 612.894 239.694 613.307 239.915ZM614.03 242.223C613.853 241.899 613.617 241.655 613.315 241.478C613.012 241.309 612.688 241.22 612.349 241.22C612.01 241.22 611.685 241.301 611.39 241.471C611.095 241.641 610.859 241.884 610.682 242.208C610.498 242.533 610.41 242.916 610.41 243.359C610.41 243.801 610.498 244.192 610.682 244.524C610.867 244.855 611.103 245.106 611.398 245.29C611.693 245.475 612.01 245.556 612.349 245.556C612.695 245.556 613.02 245.467 613.315 245.298C613.617 245.128 613.853 244.877 614.03 244.553C614.207 244.229 614.295 243.845 614.295 243.388C614.295 242.931 614.207 242.548 614.03 242.223Z" fill="#567CDA"/>
<path d="M617.974 246.839C617.761 246.632 617.65 246.374 617.65 246.065C617.65 245.755 617.761 245.497 617.974 245.29C618.188 245.084 618.468 244.981 618.807 244.981C619.132 244.981 619.405 245.084 619.619 245.29C619.832 245.497 619.936 245.755 619.936 246.065C619.936 246.374 619.832 246.632 619.619 246.839C619.405 247.045 619.139 247.148 618.807 247.148C618.468 247.148 618.188 247.045 617.974 246.839Z" fill="#567CDA"/>
<path d="M601.119 254.942V262.035H600.441V258.208H598.31C598.178 259.425 597.182 260.258 595.877 260.258C594.461 260.258 593.429 259.292 593.429 257.913C593.429 256.527 594.461 255.576 595.877 255.576C597.197 255.576 598.2 256.417 598.318 257.655H600.441V254.949H601.119V254.942ZM595.877 259.661C596.902 259.661 597.676 258.923 597.676 257.906C597.676 256.896 596.902 256.158 595.877 256.158C594.845 256.158 594.071 256.896 594.071 257.906C594.078 258.923 594.852 259.661 595.877 259.661ZM595.073 261.312H595.737V263.745H601.414V264.313H595.081V261.312H595.073Z" fill="#767676"/>
<path d="M607.593 258.68H609.901V254.92H610.55V264.557H609.901V259.226H607.601C607.534 261.128 606.583 262.345 605.241 262.345C603.855 262.345 602.889 261.04 602.889 259.012C602.889 256.992 603.862 255.709 605.241 255.709C606.554 255.701 607.49 256.844 607.593 258.68ZM605.249 261.74C606.266 261.74 606.974 260.627 606.974 259.005C606.974 257.405 606.266 256.284 605.249 256.284C604.231 256.284 603.523 257.397 603.523 259.005C603.523 260.627 604.231 261.74 605.249 261.74Z" fill="#767676"/>
<path d="M692.503 237.792V247.053H690.645V237.792H692.503Z" fill="#567CDA"/>
<path d="M700.532 240.432C701.07 240.985 701.343 241.759 701.343 242.747V247.06H699.485V242.997C699.485 242.415 699.337 241.965 699.05 241.648C698.755 241.331 698.357 241.176 697.855 241.176C697.339 241.176 696.934 241.331 696.639 241.648C696.344 241.965 696.196 242.415 696.196 242.997V247.06H694.338V239.709H696.196V240.623C696.447 240.306 696.764 240.056 697.148 239.871C697.531 239.687 697.951 239.598 698.416 239.598C699.278 239.598 699.986 239.879 700.532 240.432Z" fill="#567CDA"/>
<path d="M706.475 241.235H705.185V247.06H703.297V241.235H702.464V239.709H703.297V239.34C703.297 238.441 703.555 237.777 704.064 237.35C704.58 236.922 705.354 236.723 706.386 236.752V238.315C705.937 238.308 705.62 238.382 705.443 238.544C705.266 238.706 705.177 238.994 705.177 239.407V239.709H706.467V241.235H706.475Z" fill="#567CDA"/>
<path d="M709.033 246.706C708.465 246.389 708.023 245.947 707.699 245.372C707.374 244.797 707.212 244.133 707.212 243.381C707.212 242.629 707.374 241.965 707.706 241.39C708.038 240.815 708.487 240.373 709.063 240.056C709.638 239.739 710.279 239.584 710.987 239.584C711.695 239.584 712.336 239.739 712.911 240.056C713.487 240.373 713.944 240.815 714.275 241.39C714.607 241.965 714.769 242.629 714.769 243.381C714.769 244.133 714.6 244.797 714.261 245.372C713.921 245.947 713.457 246.389 712.882 246.706C712.307 247.023 711.651 247.178 710.935 247.178C710.242 247.178 709.601 247.023 709.033 246.706ZM711.894 245.313C712.189 245.15 712.425 244.907 712.602 244.575C712.779 244.251 712.867 243.853 712.867 243.381C712.867 242.68 712.683 242.142 712.314 241.766C711.946 241.39 711.496 241.198 710.965 241.198C710.434 241.198 709.992 241.39 709.63 241.766C709.269 242.142 709.092 242.68 709.092 243.381C709.092 244.081 709.269 244.62 709.616 244.996C709.962 245.372 710.404 245.556 710.935 245.556C711.282 245.556 711.599 245.475 711.894 245.313Z" fill="#567CDA"/>
<path d="M716.141 246.839C715.927 246.632 715.816 246.374 715.816 246.065C715.816 245.755 715.927 245.497 716.141 245.29C716.355 245.084 716.635 244.981 716.974 244.981C717.298 244.981 717.571 245.084 717.785 245.29C717.999 245.497 718.102 245.755 718.102 246.065C718.102 246.374 717.999 246.632 717.785 246.839C717.571 247.045 717.306 247.148 716.974 247.148C716.635 247.148 716.362 247.045 716.141 246.839Z" fill="#567CDA"/>
<path d="M697.657 256.756V256.247H695.415V255.679H700.532V256.247H698.335V256.756C698.335 258.039 699.382 259.248 700.724 259.72L700.37 260.265C699.293 259.86 698.409 259.012 698.01 257.98C697.612 259.159 696.661 260.088 695.533 260.546L695.194 260.015C696.551 259.484 697.657 258.194 697.657 256.756ZM699.839 260.988C701.808 260.988 703.002 261.652 703.002 262.758C703.002 263.878 701.808 264.512 699.839 264.512C697.87 264.512 696.676 263.871 696.676 262.758C696.676 261.652 697.87 260.988 699.839 260.988ZM699.839 263.989C701.365 263.989 702.338 263.517 702.338 262.758C702.338 261.991 701.365 261.526 699.839 261.526C698.313 261.526 697.339 261.991 697.339 262.758C697.339 263.51 698.313 263.989 699.839 263.989ZM702.294 257.493V254.927H702.973V260.656H702.294V258.061H700.208V257.493H702.294Z" fill="#767676"/>
<path d="M708.576 262.691V260.501H705.642V255.628H706.305V257.441H711.526V255.628H712.189V260.501H709.24V262.691H713.273V263.266H704.573V262.691H708.576ZM711.526 259.948V258.002H706.305V259.948H711.526Z" fill="#767676"/>
<path d="M602.358 296.151C628.362 296.151 649.443 275.07 649.443 249.066C649.443 223.061 628.362 201.98 602.358 201.98C576.354 201.98 555.273 223.061 555.273 249.066C555.273 275.07 576.354 296.151 602.358 296.151Z" stroke="#567CDA" stroke-width="0.75" stroke-miterlimit="10"/>
<path d="M704.204 296.151C730.208 296.151 751.289 275.07 751.289 249.066C751.289 223.061 730.208 201.98 704.204 201.98C678.199 201.98 657.119 223.061 657.119 249.066C657.119 275.07 678.199 296.151 704.204 296.151Z" stroke="#567CDA" stroke-width="0.75" stroke-miterlimit="10"/>
<path d="M602.358 194.32C628.362 194.32 649.443 173.239 649.443 147.235C649.443 121.23 628.362 100.15 602.358 100.15C576.354 100.15 555.273 121.23 555.273 147.235C555.273 173.239 576.354 194.32 602.358 194.32Z" stroke="#567CDA" stroke-width="0.75" stroke-miterlimit="10"/>
<path d="M704.204 194.32C730.208 194.32 751.289 173.239 751.289 147.235C751.289 121.23 730.208 100.15 704.204 100.15C678.199 100.15 657.119 121.23 657.119 147.235C657.119 173.239 678.199 194.32 704.204 194.32Z" stroke="#567CDA" stroke-width="0.75" stroke-miterlimit="10"/>
<path d="M653.285 320.681C721.134 320.681 776.137 265.679 776.137 197.829C776.137 129.98 721.134 74.9778 653.285 74.9778C585.436 74.9778 530.433 129.98 530.433 197.829C530.433 265.679 585.436 320.681 653.285 320.681Z" stroke="#567CDA" stroke-width="0.75" stroke-miterlimit="10" stroke-dasharray="3.01 3.01"/>
<path d="M1143.7 218.563C1142.96 218.246 1142.36 217.781 1141.93 217.184C1141.49 216.587 1141.27 215.872 1141.26 215.053H1144.13C1144.17 215.606 1144.37 216.041 1144.71 216.358C1145.07 216.675 1145.55 216.838 1146.16 216.838C1146.79 216.838 1147.28 216.69 1147.63 216.388C1147.99 216.086 1148.17 215.695 1148.17 215.208C1148.17 214.81 1148.05 214.486 1147.81 214.227C1147.57 213.969 1147.27 213.77 1146.9 213.623C1146.53 213.475 1146.03 213.313 1145.39 213.136C1144.52 212.878 1143.81 212.628 1143.28 212.377C1142.73 212.126 1142.27 211.75 1141.88 211.249C1141.48 210.74 1141.29 210.069 1141.29 209.228C1141.29 208.432 1141.49 207.746 1141.89 207.157C1142.29 206.567 1142.84 206.117 1143.56 205.807C1144.27 205.498 1145.09 205.335 1146.01 205.335C1147.39 205.335 1148.51 205.675 1149.37 206.346C1150.24 207.017 1150.72 207.953 1150.8 209.155H1147.85C1147.83 208.698 1147.63 208.314 1147.27 208.012C1146.91 207.71 1146.42 207.562 1145.83 207.562C1145.3 207.562 1144.88 207.695 1144.57 207.968C1144.26 208.24 1144.1 208.624 1144.1 209.14C1144.1 209.501 1144.22 209.796 1144.46 210.032C1144.69 210.268 1144.99 210.46 1145.34 210.607C1145.69 210.755 1146.19 210.924 1146.83 211.116C1147.7 211.374 1148.41 211.625 1148.96 211.883C1149.51 212.141 1149.99 212.524 1150.38 213.033C1150.77 213.542 1150.97 214.213 1150.97 215.046C1150.97 215.761 1150.79 216.425 1150.42 217.037C1150.05 217.649 1149.51 218.143 1148.79 218.504C1148.08 218.865 1147.23 219.05 1146.24 219.05C1145.29 219.042 1144.45 218.887 1143.7 218.563Z" fill="white"/>
<path d="M1154.85 218.401C1154.03 217.944 1153.39 217.302 1152.93 216.476C1152.46 215.643 1152.23 214.685 1152.23 213.601C1152.23 212.517 1152.47 211.558 1152.95 210.725C1153.43 209.892 1154.09 209.251 1154.92 208.801C1155.75 208.344 1156.67 208.123 1157.7 208.123C1158.72 208.123 1159.64 208.351 1160.48 208.801C1161.31 209.258 1161.97 209.899 1162.45 210.725C1162.93 211.558 1163.17 212.517 1163.17 213.601C1163.17 214.685 1162.93 215.643 1162.43 216.476C1161.94 217.31 1161.27 217.951 1160.43 218.401C1159.59 218.858 1158.66 219.079 1157.62 219.079C1156.59 219.079 1155.67 218.858 1154.85 218.401ZM1158.99 216.388C1159.42 216.152 1159.76 215.798 1160.01 215.326C1160.27 214.854 1160.4 214.279 1160.4 213.601C1160.4 212.591 1160.13 211.817 1159.6 211.271C1159.07 210.725 1158.42 210.452 1157.65 210.452C1156.89 210.452 1156.25 210.725 1155.73 211.271C1155.21 211.817 1154.96 212.591 1154.96 213.601C1154.96 214.611 1155.21 215.385 1155.72 215.931C1156.22 216.476 1156.86 216.749 1157.62 216.749C1158.1 216.742 1158.55 216.624 1158.99 216.388Z" fill="white"/>
<path d="M1173.7 209.332C1174.49 210.128 1174.88 211.249 1174.88 212.679V218.909H1172.19V213.04C1172.19 212.2 1171.98 211.551 1171.56 211.094C1171.14 210.637 1170.56 210.416 1169.83 210.416C1169.09 210.416 1168.51 210.644 1168.08 211.094C1167.65 211.551 1167.44 212.2 1167.44 213.04V218.909H1164.75V208.285H1167.44V209.605C1167.8 209.147 1168.26 208.786 1168.81 208.521C1169.36 208.255 1169.97 208.13 1170.64 208.13C1171.9 208.13 1172.92 208.535 1173.7 209.332Z" fill="white"/>
<path d="M1183.29 208.587C1183.89 208.897 1184.37 209.302 1184.71 209.803V208.292H1187.41V218.99C1187.41 219.971 1187.21 220.856 1186.81 221.63C1186.42 222.404 1185.83 223.016 1185.03 223.473C1184.23 223.93 1183.28 224.152 1182.15 224.152C1180.64 224.152 1179.41 223.798 1178.45 223.097C1177.48 222.397 1176.93 221.438 1176.81 220.222H1179.48C1179.62 220.708 1179.92 221.092 1180.39 221.379C1180.86 221.667 1181.42 221.807 1182.09 221.807C1182.87 221.807 1183.5 221.571 1183.99 221.107C1184.48 220.642 1184.72 219.934 1184.72 218.99V217.339C1184.37 217.84 1183.9 218.253 1183.29 218.585C1182.69 218.917 1181.99 219.086 1181.21 219.086C1180.32 219.086 1179.5 218.858 1178.76 218.393C1178.01 217.936 1177.43 217.287 1177 216.447C1176.57 215.613 1176.36 214.648 1176.36 213.564C1176.36 212.487 1176.57 211.536 1177 210.703C1177.43 209.87 1178.01 209.236 1178.75 208.786C1179.49 208.336 1180.3 208.115 1181.21 208.115C1181.99 208.115 1182.69 208.27 1183.29 208.587ZM1184.33 211.92C1184.07 211.455 1183.73 211.094 1183.3 210.843C1182.86 210.592 1182.4 210.467 1181.9 210.467C1181.4 210.467 1180.94 210.592 1180.52 210.828C1180.1 211.064 1179.75 211.426 1179.49 211.89C1179.23 212.355 1179.1 212.908 1179.1 213.549C1179.1 214.19 1179.23 214.751 1179.49 215.23C1179.76 215.709 1180.1 216.078 1180.53 216.336C1180.95 216.594 1181.41 216.719 1181.9 216.719C1182.4 216.719 1182.86 216.594 1183.3 216.343C1183.73 216.093 1184.08 215.739 1184.33 215.267C1184.58 214.795 1184.71 214.242 1184.71 213.586C1184.71 212.93 1184.58 212.384 1184.33 211.92Z" fill="white"/>
<path d="M1189.61 210.703C1190.04 209.87 1190.62 209.236 1191.36 208.786C1192.09 208.336 1192.91 208.115 1193.82 208.115C1194.62 208.115 1195.31 208.277 1195.9 208.594C1196.5 208.911 1196.97 209.317 1197.33 209.803V208.292H1200.03V218.917H1197.33V217.361C1196.98 217.862 1196.51 218.275 1195.9 218.6C1195.29 218.924 1194.59 219.086 1193.8 219.086C1192.9 219.086 1192.09 218.858 1191.35 218.393C1190.61 217.936 1190.03 217.287 1189.6 216.447C1189.17 215.613 1188.96 214.648 1188.96 213.564C1188.97 212.487 1189.18 211.536 1189.61 210.703ZM1196.95 211.92C1196.69 211.455 1196.34 211.094 1195.91 210.843C1195.48 210.592 1195.01 210.467 1194.51 210.467C1194.01 210.467 1193.55 210.592 1193.13 210.828C1192.71 211.064 1192.37 211.426 1192.11 211.89C1191.85 212.355 1191.72 212.908 1191.72 213.549C1191.72 214.19 1191.85 214.751 1192.11 215.23C1192.37 215.709 1192.71 216.078 1193.14 216.336C1193.57 216.594 1194.03 216.719 1194.51 216.719C1195.01 216.719 1195.48 216.594 1195.91 216.343C1196.35 216.093 1196.69 215.739 1196.95 215.267C1197.2 214.795 1197.33 214.242 1197.33 213.586C1197.33 212.93 1197.2 212.384 1196.95 211.92Z" fill="white"/>
<path d="M1206.31 208.616C1206.86 208.299 1207.5 208.137 1208.22 208.137V210.954H1207.51C1206.67 210.954 1206.03 211.153 1205.6 211.551C1205.17 211.949 1204.96 212.635 1204.96 213.623V218.917H1202.28V208.292H1204.96V209.944C1205.31 209.376 1205.76 208.934 1206.31 208.616Z" fill="white"/>
<path d="M1219.44 214.405H1211.68C1211.74 215.171 1212.01 215.776 1212.48 216.211C1212.95 216.646 1213.54 216.86 1214.23 216.86C1215.22 216.86 1215.93 216.432 1216.36 215.577H1219.26C1218.95 216.602 1218.36 217.442 1217.49 218.098C1216.62 218.755 1215.56 219.086 1214.29 219.086C1213.27 219.086 1212.36 218.858 1211.54 218.408C1210.73 217.951 1210.1 217.31 1209.64 216.484C1209.19 215.651 1208.96 214.692 1208.96 213.608C1208.96 212.51 1209.18 211.544 1209.63 210.711C1210.08 209.877 1210.71 209.243 1211.51 208.794C1212.32 208.344 1213.25 208.123 1214.29 208.123C1215.3 208.123 1216.21 208.336 1217.01 208.771C1217.8 209.206 1218.42 209.826 1218.87 210.622C1219.31 211.418 1219.53 212.34 1219.53 213.372C1219.51 213.748 1219.49 214.095 1219.44 214.405ZM1216.74 212.598C1216.72 211.905 1216.47 211.352 1215.99 210.939C1215.5 210.526 1214.91 210.312 1214.21 210.312C1213.54 210.312 1212.98 210.511 1212.53 210.917C1212.07 211.323 1211.8 211.883 1211.69 212.598H1216.74V212.598Z" fill="white"/>
<path d="M1230.88 214.405H1223.12C1223.19 215.171 1223.45 215.776 1223.92 216.211C1224.4 216.646 1224.98 216.86 1225.67 216.86C1226.67 216.86 1227.37 216.432 1227.8 215.577H1230.7C1230.39 216.602 1229.81 217.442 1228.94 218.098C1228.07 218.755 1227 219.086 1225.74 219.086C1224.71 219.086 1223.8 218.858 1222.99 218.408C1222.18 217.951 1221.54 217.31 1221.09 216.484C1220.63 215.651 1220.41 214.692 1220.41 213.608C1220.41 212.51 1220.63 211.544 1221.08 210.711C1221.53 209.877 1222.15 209.243 1222.96 208.794C1223.76 208.344 1224.69 208.123 1225.74 208.123C1226.75 208.123 1227.66 208.336 1228.45 208.771C1229.25 209.206 1229.87 209.826 1230.31 210.622C1230.75 211.418 1230.97 212.34 1230.97 213.372C1230.97 213.748 1230.94 214.095 1230.88 214.405ZM1228.18 212.598C1228.16 211.905 1227.91 211.352 1227.43 210.939C1226.95 210.526 1226.35 210.312 1225.65 210.312C1224.99 210.312 1224.43 210.511 1223.97 210.917C1223.51 211.323 1223.24 211.883 1223.14 212.598H1228.18V212.598Z" fill="white"/>
<path d="M1246.17 213.173C1246.65 213.785 1246.9 214.493 1246.9 215.282C1246.9 215.997 1246.72 216.624 1246.37 217.169C1246.02 217.715 1245.51 218.135 1244.85 218.445C1244.18 218.755 1243.4 218.902 1242.49 218.902H1236.72V205.52H1242.24C1243.15 205.52 1243.93 205.667 1244.59 205.962C1245.25 206.257 1245.75 206.663 1246.09 207.186C1246.43 207.71 1246.6 208.307 1246.6 208.97C1246.6 209.752 1246.39 210.401 1245.98 210.924C1245.56 211.448 1245.01 211.816 1244.32 212.038C1245.06 212.185 1245.68 212.561 1246.17 213.173ZM1239.4 211.05H1241.85C1242.5 211.05 1242.98 210.902 1243.33 210.615C1243.68 210.327 1243.85 209.914 1243.85 209.376C1243.85 208.838 1243.68 208.425 1243.33 208.13C1242.98 207.835 1242.49 207.687 1241.85 207.687H1239.4V211.05ZM1243.62 216.262C1243.99 215.953 1244.17 215.518 1244.17 214.957C1244.17 214.382 1243.98 213.933 1243.6 213.608C1243.21 213.284 1242.7 213.122 1242.04 213.122H1239.39V216.727H1242.1C1242.75 216.727 1243.26 216.572 1243.62 216.262Z" fill="white"/>
<path d="M1248.62 210.703C1249.04 209.87 1249.63 209.236 1250.36 208.786C1251.1 208.336 1251.92 208.115 1252.83 208.115C1253.62 208.115 1254.32 208.277 1254.91 208.594C1255.5 208.911 1255.98 209.317 1256.34 209.803V208.292H1259.04V218.917H1256.34V217.361C1255.99 217.862 1255.52 218.275 1254.91 218.6C1254.3 218.924 1253.6 219.086 1252.8 219.086C1251.91 219.086 1251.09 218.858 1250.36 218.393C1249.62 217.936 1249.04 217.287 1248.61 216.447C1248.18 215.613 1247.97 214.648 1247.97 213.564C1247.97 212.487 1248.18 211.536 1248.62 210.703ZM1255.95 211.92C1255.69 211.455 1255.34 211.094 1254.91 210.843C1254.48 210.592 1254.01 210.467 1253.51 210.467C1253.01 210.467 1252.55 210.592 1252.13 210.828C1251.71 211.064 1251.37 211.426 1251.11 211.89C1250.85 212.355 1250.72 212.908 1250.72 213.549C1250.72 214.19 1250.85 214.751 1251.11 215.23C1251.37 215.709 1251.71 216.078 1252.14 216.336C1252.57 216.594 1253.03 216.719 1253.51 216.719C1254.01 216.719 1254.48 216.594 1254.91 216.343C1255.35 216.093 1255.69 215.739 1255.95 215.267C1256.2 214.795 1256.33 214.242 1256.33 213.586C1256.33 212.93 1256.2 212.384 1255.95 211.92Z" fill="white"/>
<path d="M1265.39 208.594C1266 208.277 1266.69 208.115 1267.47 208.115C1268.38 208.115 1269.2 208.336 1269.93 208.786C1270.67 209.236 1271.25 209.87 1271.68 210.696C1272.11 211.522 1272.32 212.48 1272.32 213.564C1272.32 214.648 1272.11 215.614 1271.68 216.447C1271.25 217.287 1270.67 217.936 1269.93 218.393C1269.2 218.85 1268.38 219.086 1267.47 219.086C1266.67 219.086 1265.98 218.932 1265.39 218.614C1264.79 218.305 1264.32 217.899 1263.96 217.398V218.909H1261.28V204.716H1263.96V209.833C1264.31 209.332 1264.79 208.911 1265.39 208.594ZM1269.19 211.905C1268.92 211.44 1268.58 211.086 1268.16 210.843C1267.73 210.6 1267.26 210.482 1266.76 210.482C1266.28 210.482 1265.82 210.607 1265.39 210.858C1264.96 211.109 1264.62 211.47 1264.36 211.942C1264.1 212.414 1263.97 212.974 1263.97 213.608C1263.97 214.242 1264.1 214.803 1264.36 215.274C1264.62 215.746 1264.96 216.108 1265.39 216.358C1265.82 216.609 1266.28 216.734 1266.76 216.734C1267.26 216.734 1267.72 216.609 1268.16 216.351C1268.58 216.093 1268.93 215.732 1269.19 215.26C1269.45 214.788 1269.58 214.227 1269.58 213.571C1269.59 212.922 1269.45 212.369 1269.19 211.905Z" fill="white"/>
<path d="M1284.06 208.285L1277.48 223.931H1274.62L1276.92 218.637L1272.67 208.285H1275.68L1278.42 215.709L1281.2 208.285H1284.06Z" fill="white"/>
<path d="M1181.34 232.609C1181 233.235 1180.47 233.744 1179.74 234.12C1179.02 234.496 1178.11 234.695 1177.01 234.695H1174.77V239.834H1172.08V226.452H1177.01C1178.04 226.452 1178.93 226.629 1179.66 226.99C1180.39 227.352 1180.93 227.838 1181.29 228.465C1181.65 229.092 1181.84 229.8 1181.84 230.596C1181.85 231.311 1181.68 231.982 1181.34 232.609ZM1178.54 232.026C1178.9 231.687 1179.08 231.208 1179.08 230.596C1179.08 229.291 1178.35 228.642 1176.9 228.642H1174.77V232.535H1176.9C1177.63 232.535 1178.19 232.365 1178.54 232.026Z" fill="white"/>
<path d="M1183.31 231.636C1183.74 230.802 1184.32 230.168 1185.06 229.719C1185.8 229.269 1186.62 229.048 1187.52 229.048C1188.32 229.048 1189.01 229.21 1189.6 229.527C1190.2 229.844 1190.67 230.249 1191.03 230.736V229.225H1193.74V239.849H1191.03V238.294C1190.69 238.795 1190.21 239.2 1189.6 239.532C1189 239.857 1188.3 240.019 1187.5 240.019C1186.61 240.019 1185.79 239.79 1185.05 239.326C1184.32 238.861 1183.73 238.22 1183.31 237.379C1182.88 236.546 1182.66 235.58 1182.66 234.496C1182.66 233.413 1182.88 232.461 1183.31 231.636ZM1190.64 232.852C1190.38 232.388 1190.04 232.026 1189.61 231.776C1189.17 231.525 1188.71 231.4 1188.21 231.4C1187.71 231.4 1187.25 231.525 1186.83 231.761C1186.41 232.004 1186.06 232.358 1185.81 232.823C1185.55 233.287 1185.41 233.84 1185.41 234.482C1185.41 235.123 1185.55 235.683 1185.81 236.163C1186.06 236.642 1186.41 237.011 1186.84 237.269C1187.26 237.527 1187.72 237.652 1188.21 237.652C1188.71 237.652 1189.17 237.527 1189.61 237.276C1190.04 237.025 1190.39 236.671 1190.64 236.2C1190.89 235.728 1191.03 235.175 1191.03 234.519C1191.03 233.877 1190.9 233.317 1190.64 232.852Z" fill="white"/>
<path d="M1195.96 231.643C1196.41 230.817 1197.03 230.176 1197.82 229.726C1198.6 229.276 1199.52 229.048 1200.54 229.048C1201.86 229.048 1202.94 229.379 1203.8 230.036C1204.66 230.692 1205.25 231.621 1205.53 232.808H1202.64C1202.48 232.351 1202.22 231.99 1201.86 231.724C1201.5 231.459 1201.04 231.333 1200.51 231.333C1199.75 231.333 1199.14 231.613 1198.69 232.166C1198.24 232.719 1198.02 233.516 1198.02 234.533C1198.02 235.543 1198.24 236.325 1198.69 236.885C1199.14 237.438 1199.75 237.718 1200.51 237.718C1201.6 237.718 1202.31 237.232 1202.64 236.259H1205.54C1205.25 237.409 1204.66 238.323 1203.79 239.001C1202.92 239.68 1201.84 240.019 1200.54 240.019C1199.51 240.019 1198.6 239.79 1197.82 239.341C1197.02 238.883 1196.4 238.249 1195.96 237.424C1195.51 236.598 1195.29 235.639 1195.29 234.541C1195.29 233.427 1195.51 232.469 1195.96 231.643Z" fill="white"/>
<path d="M1213.42 239.842L1209.82 235.315V239.842H1207.13V225.648H1209.82V233.722L1213.39 229.217H1216.87L1212.19 234.548L1216.91 239.842H1213.42Z" fill="white"/>
<path d="M1217.9 231.636C1218.33 230.802 1218.91 230.168 1219.65 229.719C1220.38 229.269 1221.2 229.048 1222.11 229.048C1222.91 229.048 1223.6 229.21 1224.19 229.527C1224.79 229.844 1225.26 230.249 1225.62 230.736V229.225H1228.33V239.849H1225.62V238.294C1225.27 238.795 1224.8 239.2 1224.19 239.532C1223.58 239.857 1222.88 240.019 1222.09 240.019C1221.2 240.019 1220.38 239.79 1219.64 239.326C1218.9 238.861 1218.32 238.22 1217.89 237.379C1217.46 236.546 1217.25 235.58 1217.25 234.496C1217.26 233.413 1217.47 232.461 1217.9 231.636ZM1225.24 232.852C1224.98 232.388 1224.63 232.026 1224.2 231.776C1223.77 231.525 1223.3 231.4 1222.8 231.4C1222.3 231.4 1221.84 231.525 1221.42 231.761C1221 232.004 1220.66 232.358 1220.4 232.823C1220.14 233.287 1220.01 233.84 1220.01 234.482C1220.01 235.123 1220.14 235.683 1220.4 236.163C1220.66 236.642 1221 237.011 1221.43 237.269C1221.86 237.527 1222.32 237.652 1222.8 237.652C1223.3 237.652 1223.77 237.527 1224.2 237.276C1224.64 237.025 1224.99 236.671 1225.24 236.2C1225.49 235.728 1225.62 235.175 1225.62 234.519C1225.62 233.877 1225.49 233.317 1225.24 232.852Z" fill="white"/>
<path d="M1236.82 229.512C1237.42 229.822 1237.9 230.234 1238.24 230.728V229.217H1240.94V239.915C1240.94 240.896 1240.74 241.781 1240.34 242.555C1239.95 243.329 1239.36 243.941 1238.56 244.398C1237.76 244.855 1236.8 245.077 1235.68 245.077C1234.17 245.077 1232.94 244.723 1231.98 244.022C1231.01 243.322 1230.46 242.363 1230.34 241.147H1233.01C1233.15 241.633 1233.45 242.017 1233.92 242.304C1234.39 242.592 1234.95 242.732 1235.62 242.732C1236.4 242.732 1237.03 242.496 1237.52 242.032C1238.01 241.567 1238.25 240.859 1238.25 239.915V238.264C1237.9 238.765 1237.43 239.178 1236.82 239.51C1236.21 239.842 1235.52 240.011 1234.74 240.011C1233.85 240.011 1233.03 239.783 1232.28 239.318C1231.54 238.854 1230.96 238.212 1230.53 237.372C1230.1 236.539 1229.89 235.573 1229.89 234.489C1229.89 233.412 1230.1 232.461 1230.53 231.628C1230.96 230.795 1231.54 230.161 1232.28 229.711C1233.01 229.261 1233.83 229.04 1234.74 229.04C1235.52 229.04 1236.22 229.202 1236.82 229.512ZM1237.86 232.852C1237.6 232.387 1237.25 232.026 1236.83 231.775C1236.39 231.525 1235.93 231.399 1235.43 231.399C1234.92 231.399 1234.47 231.525 1234.05 231.761C1233.63 232.004 1233.28 232.358 1233.02 232.822C1232.76 233.287 1232.63 233.84 1232.63 234.481C1232.63 235.123 1232.76 235.683 1233.02 236.162C1233.28 236.642 1233.63 237.01 1234.05 237.268C1234.48 237.527 1234.94 237.652 1235.43 237.652C1235.93 237.652 1236.39 237.527 1236.83 237.276C1237.26 237.025 1237.61 236.671 1237.86 236.199C1238.11 235.727 1238.24 235.175 1238.24 234.518C1238.24 233.877 1238.11 233.316 1237.86 232.852Z" fill="white"/>
<path d="M1252.99 235.337H1245.22C1245.29 236.104 1245.56 236.708 1246.03 237.143C1246.5 237.578 1247.08 237.792 1247.78 237.792C1248.77 237.792 1249.48 237.364 1249.91 236.509H1252.8C1252.49 237.534 1251.91 238.375 1251.04 239.031C1250.17 239.687 1249.1 240.019 1247.84 240.019C1246.82 240.019 1245.9 239.79 1245.09 239.34C1244.28 238.883 1243.65 238.242 1243.19 237.416C1242.73 236.59 1242.51 235.624 1242.51 234.541C1242.51 233.442 1242.73 232.476 1243.18 231.643C1243.63 230.81 1244.26 230.176 1245.06 229.726C1245.87 229.276 1246.8 229.055 1247.84 229.055C1248.85 229.055 1249.76 229.269 1250.56 229.704C1251.35 230.139 1251.97 230.758 1252.41 231.554C1252.86 232.351 1253.08 233.272 1253.08 234.305C1253.06 234.681 1253.03 235.027 1252.99 235.337ZM1250.28 233.53C1250.27 232.837 1250.02 232.284 1249.54 231.871C1249.05 231.459 1248.45 231.245 1247.75 231.245C1247.09 231.245 1246.53 231.444 1246.07 231.849C1245.62 232.255 1245.34 232.808 1245.24 233.53H1250.28V233.53Z" fill="white"/>
<path d="M1202.48 185.184C1197.74 185.184 1193.28 183.341 1189.93 179.986C1183 173.063 1183 161.804 1189.93 154.881L1200.71 144.101C1201.69 143.121 1203.27 143.121 1204.25 144.101L1215.03 154.881C1218.39 158.236 1220.23 162.689 1220.23 167.437C1220.23 172.178 1218.38 176.639 1215.03 179.994C1211.68 183.341 1207.22 185.184 1202.48 185.184ZM1193.47 176.44C1195.88 178.844 1199.08 180.171 1202.48 180.171C1205.89 180.171 1209.09 178.844 1211.49 176.44C1213.9 174.036 1215.22 170.836 1215.22 167.43C1215.22 164.023 1213.9 160.831 1211.49 158.42L1202.48 149.41L1193.47 158.42C1188.5 163.389 1188.5 171.478 1193.47 176.44Z" fill="white"/>
<path d="M1221.86 185.185C1217.12 185.185 1212.66 183.341 1209.3 179.986C1205.95 176.632 1204.1 172.178 1204.1 167.43C1204.1 162.689 1205.96 158.228 1209.3 154.873L1220.08 144.094C1221.06 143.113 1222.65 143.113 1223.63 144.094L1234.41 154.873C1241.33 161.797 1241.33 173.056 1234.41 179.979C1231.06 183.341 1226.6 185.185 1221.86 185.185ZM1221.86 149.417L1212.85 158.427C1210.45 160.831 1209.12 164.031 1209.12 167.437C1209.12 170.844 1210.45 174.036 1212.85 176.447C1215.25 178.851 1218.45 180.178 1221.86 180.178C1225.27 180.178 1228.46 178.851 1230.87 176.447C1235.84 171.478 1235.84 163.397 1230.87 158.427L1221.86 149.417Z" fill="white"/>
</g>
<defs>
<clipPath id="clip0_166_873">
<rect width="1410" height="395.666" fill="white"/>
</clipPath>
</defs>
</svg>
