<svg width="1410" height="106" viewBox="0 0 1410 106" fill="none" xmlns="http://www.w3.org/2000/svg">
<g clip-path="url(#clip0_166_1217)">
<path d="M1.87988 36.75H1411.88" stroke="#767676" stroke-width="0.5" stroke-miterlimit="10"/>
<path d="M7.72023 14.11L4.95023 9.21005H3.76023V14.11H1.24023V1.55005H5.96023C6.93023 1.55005 7.76023 1.72005 8.44023 2.06005C9.12023 2.40005 9.64023 2.86005 9.98023 3.45005C10.3202 4.03005 10.4902 4.68005 10.4902 5.40005C10.4902 6.23005 10.2502 6.97005 9.77024 7.64005C9.29024 8.31005 8.58023 8.77005 7.63023 9.02005L10.6402 14.11H7.72023ZM3.76023 7.33005H5.87023C6.55023 7.33005 7.06023 7.16005 7.40023 6.83005C7.74023 6.50005 7.90023 6.04005 7.90023 5.45005C7.90023 4.87005 7.73023 4.43005 7.40023 4.11005C7.07023 3.79005 6.55023 3.64005 5.87023 3.64005H3.76023V7.33005Z" fill="#567CDA"/>
<path d="M22.34 9.87997H15.05C15.11 10.6 15.36 11.16 15.81 11.57C16.26 11.98 16.8 12.18 17.45 12.18C18.39 12.18 19.05 11.78 19.45 10.97H22.17C21.88 11.93 21.33 12.72 20.51 13.34C19.69 13.96 18.69 14.27 17.5 14.27C16.54 14.27 15.68 14.06 14.92 13.63C14.16 13.2 13.56 12.6 13.14 11.82C12.72 11.04 12.5 10.14 12.5 9.11997C12.5 8.08997 12.71 7.17997 13.13 6.39997C13.55 5.61997 14.14 5.01997 14.89 4.59997C15.65 4.17997 16.52 3.96997 17.5 3.96997C18.45 3.96997 19.3 4.16997 20.05 4.57997C20.8 4.98997 21.38 5.56997 21.8 6.31997C22.22 7.06997 22.42 7.92997 22.42 8.89997C22.41 9.26997 22.39 9.58997 22.34 9.87997ZM19.8 8.18997C19.79 7.53997 19.55 7.01997 19.1 6.62997C18.64 6.23997 18.09 6.04997 17.43 6.04997C16.81 6.04997 16.28 6.23997 15.86 6.61997C15.43 6.99997 15.17 7.51997 15.08 8.19997H19.8V8.18997Z" fill="#567CDA"/>
<path d="M26.2303 13.83C25.5803 13.54 25.0703 13.14 24.6903 12.63C24.3103 12.13 24.1003 11.57 24.0703 10.96H26.6103C26.6603 11.34 26.8503 11.66 27.1803 11.91C27.5103 12.16 27.9203 12.29 28.4103 12.29C28.8903 12.29 29.2603 12.19 29.5403 12C29.8103 11.81 29.9403 11.56 29.9403 11.26C29.9403 10.94 29.7703 10.69 29.4503 10.53C29.1203 10.37 28.6003 10.19 27.8703 9.99997C27.1303 9.81997 26.5203 9.62997 26.0403 9.43997C25.5603 9.24997 25.1603 8.94997 24.8203 8.55997C24.4803 8.15997 24.3103 7.62997 24.3103 6.95997C24.3103 6.40997 24.4703 5.89997 24.7903 5.44997C25.1003 4.99997 25.5503 4.63997 26.1503 4.36997C26.7403 4.10997 27.4403 3.96997 28.2503 3.96997C29.4403 3.96997 30.3903 4.26997 31.0903 4.85997C31.8003 5.44997 32.1903 6.24997 32.2603 7.25997H29.8503C29.8103 6.85997 29.6503 6.54997 29.3503 6.30997C29.0503 6.06997 28.6603 5.95997 28.1703 5.95997C27.7103 5.95997 27.3603 6.03997 27.1203 6.20997C26.8803 6.37997 26.7503 6.60997 26.7503 6.90997C26.7503 7.24997 26.9203 7.49997 27.2503 7.67997C27.5903 7.84997 28.1103 8.02997 28.8203 8.20997C29.5403 8.38997 30.1303 8.57997 30.6003 8.76997C31.0703 8.95997 31.4703 9.25997 31.8203 9.65997C32.1603 10.06 32.3403 10.59 32.3503 11.25C32.3503 11.83 32.1903 12.34 31.8703 12.8C31.5503 13.26 31.1003 13.61 30.5003 13.87C29.9103 14.13 29.2103 14.26 28.4203 14.26C27.6103 14.27 26.8703 14.13 26.2303 13.83Z" fill="#567CDA"/>
<path d="M43.9704 9.87997H36.6804C36.7404 10.6 36.9904 11.16 37.4404 11.57C37.8904 11.98 38.4304 12.18 39.0804 12.18C40.0204 12.18 40.6804 11.78 41.0804 10.97H43.8004C43.5104 11.93 42.9604 12.72 42.1404 13.34C41.3204 13.96 40.3204 14.27 39.1304 14.27C38.1704 14.27 37.3104 14.06 36.5504 13.63C35.7904 13.2 35.1904 12.6 34.7704 11.82C34.3504 11.04 34.1304 10.14 34.1304 9.11997C34.1304 8.08997 34.3404 7.17997 34.7604 6.39997C35.1804 5.61997 35.7704 5.01997 36.5204 4.59997C37.2804 4.17997 38.1504 3.96997 39.1304 3.96997C40.0804 3.96997 40.9304 4.16997 41.6804 4.57997C42.4304 4.98997 43.0104 5.56997 43.4304 6.31997C43.8504 7.06997 44.0504 7.92997 44.0504 8.89997C44.0504 9.26997 44.0204 9.58997 43.9704 9.87997ZM41.4404 8.18997C41.4304 7.53997 41.1904 7.01997 40.7404 6.62997C40.2804 6.23997 39.7304 6.04997 39.0704 6.04997C38.4504 6.04997 37.9204 6.23997 37.5004 6.61997C37.0704 6.99997 36.8104 7.51997 36.7204 8.19997H41.4404V8.18997Z" fill="#567CDA"/>
<path d="M46.2004 6.40998C46.6004 5.62998 47.1504 5.02998 47.8404 4.60998C48.5304 4.18998 49.3004 3.97998 50.1504 3.97998C50.8904 3.97998 51.5504 4.12998 52.1004 4.42998C52.6604 4.72998 53.1004 5.10998 53.4404 5.55998V4.13998H55.9804V14.11H53.4404V12.65C53.1204 13.12 52.6704 13.5 52.1004 13.81C51.5304 14.12 50.8704 14.27 50.1304 14.27C49.2904 14.27 48.5304 14.05 47.8404 13.62C47.1504 13.19 46.6004 12.58 46.2004 11.79C45.8004 11 45.6004 10.1 45.6004 9.07998C45.5904 8.07998 45.8004 7.18998 46.2004 6.40998ZM53.0804 7.54998C52.8404 7.10998 52.5204 6.77998 52.1104 6.53998C51.7004 6.29998 51.2604 6.18998 50.8004 6.18998C50.3304 6.18998 49.9004 6.29998 49.5004 6.52998C49.1004 6.75998 48.7804 7.08998 48.5404 7.52998C48.2904 7.96998 48.1704 8.48998 48.1704 9.08998C48.1704 9.68998 48.2904 10.22 48.5404 10.67C48.7904 11.12 49.1104 11.46 49.5104 11.71C49.9104 11.95 50.3404 12.07 50.8004 12.07C51.2704 12.07 51.7104 11.95 52.1104 11.72C52.5104 11.49 52.8404 11.15 53.0804 10.71C53.3204 10.27 53.4404 9.74998 53.4404 9.12998C53.4404 8.50998 53.3204 7.98998 53.0804 7.54998Z" fill="#567CDA"/>
<path d="M62.6001 4.45C63.1201 4.15 63.7101 4 64.3901 4V6.65H63.7201C62.9301 6.65 62.3301 6.84 61.9301 7.21C61.5301 7.58 61.3301 8.23 61.3301 9.15V14.12H58.8101V4.14H61.3301V5.69C61.6501 5.16 62.0701 4.75 62.6001 4.45Z" fill="#567CDA"/>
<path d="M66.4203 6.41998C66.8403 5.64998 67.4203 5.04998 68.1703 4.61998C68.9103 4.18998 69.7703 3.97998 70.7303 3.97998C71.9703 3.97998 72.9903 4.28998 73.8003 4.90998C74.6103 5.52998 75.1503 6.38998 75.4303 7.50998H72.7003C72.5603 7.07998 72.3103 6.73998 71.9703 6.48998C71.6303 6.23998 71.2103 6.11998 70.7003 6.11998C69.9803 6.11998 69.4103 6.37998 68.9903 6.89998C68.5703 7.41998 68.3603 8.15998 68.3603 9.11998C68.3603 10.07 68.5703 10.8 68.9903 11.33C69.4103 11.86 69.9803 12.11 70.7003 12.11C71.7203 12.11 72.3903 11.65 72.7003 10.74H75.4203C75.1403 11.82 74.6003 12.68 73.7803 13.31C72.9603 13.94 71.9403 14.26 70.7203 14.26C69.7603 14.26 68.9103 14.05 68.1603 13.62C67.4203 13.19 66.8303 12.59 66.4103 11.82C65.9903 11.05 65.7803 10.14 65.7803 9.10998C65.7803 8.07998 66.0003 7.18998 66.4203 6.41998Z" fill="#567CDA"/>
<path d="M85.2704 4.49004C85.8604 4.82004 86.3204 5.31004 86.6504 5.95004C86.9804 6.59004 87.1504 7.36004 87.1504 8.26004V14.11H84.6304V8.60004C84.6304 7.81004 84.4304 7.20004 84.0404 6.77004C83.6504 6.34004 83.1004 6.13004 82.4204 6.13004C81.7204 6.13004 81.1704 6.34004 80.7704 6.77004C80.3704 7.20004 80.1704 7.81004 80.1704 8.60004V14.11H77.6504V0.790039H80.1704V5.38004C80.4904 4.95004 80.9304 4.61004 81.4704 4.36004C82.0104 4.11004 82.5904 4.00004 83.2504 4.00004C84.0104 4.00004 84.6804 4.16004 85.2704 4.49004Z" fill="#567CDA"/>
<path d="M247.45 4.48988C248.01 3.50988 248.77 2.74988 249.74 2.19988C250.71 1.64988 251.79 1.37988 252.99 1.37988C254.39 1.37988 255.62 1.73988 256.68 2.45988C257.74 3.17988 258.47 4.17988 258.89 5.44988H255.99C255.7 4.84988 255.3 4.39988 254.78 4.09988C254.26 3.79988 253.65 3.64988 252.97 3.64988C252.24 3.64988 251.59 3.81988 251.02 4.15988C250.45 4.49988 250.01 4.98988 249.69 5.60988C249.37 6.22988 249.21 6.96988 249.21 7.80988C249.21 8.63988 249.37 9.36988 249.69 9.99988C250.01 10.6299 250.45 11.1199 251.02 11.4599C251.59 11.7999 252.24 11.9699 252.97 11.9699C253.65 11.9699 254.26 11.8199 254.78 11.5099C255.3 11.1999 255.71 10.7499 255.99 10.1499H258.89C258.47 11.4299 257.74 12.4299 256.69 13.1499C255.64 13.8599 254.41 14.2199 252.99 14.2199C251.79 14.2199 250.71 13.9499 249.74 13.3999C248.77 12.8499 248.01 12.0899 247.45 11.1199C246.89 10.1499 246.61 9.03988 246.61 7.80988C246.62 6.57988 246.9 5.46988 247.45 4.48988Z" fill="#567CDA"/>
<path d="M263.25 13.63C262.48 13.2 261.88 12.6 261.44 11.82C261 11.04 260.78 10.14 260.78 9.11997C260.78 8.09997 261.01 7.19997 261.46 6.41997C261.91 5.63997 262.52 5.03997 263.3 4.60997C264.08 4.17997 264.95 3.96997 265.91 3.96997C266.87 3.96997 267.74 4.17997 268.52 4.60997C269.3 5.03997 269.92 5.63997 270.36 6.41997C270.81 7.19997 271.04 8.09997 271.04 9.11997C271.04 10.14 270.81 11.04 270.35 11.82C269.89 12.6 269.26 13.2 268.48 13.63C267.69 14.06 266.81 14.27 265.84 14.27C264.88 14.27 264.02 14.06 263.25 13.63ZM267.13 11.75C267.53 11.53 267.85 11.2 268.09 10.75C268.33 10.31 268.45 9.76997 268.45 9.12997C268.45 8.17997 268.2 7.44997 267.7 6.93997C267.2 6.42997 266.59 6.16997 265.87 6.16997C265.15 6.16997 264.55 6.41997 264.06 6.93997C263.57 7.44997 263.33 8.17997 263.33 9.12997C263.33 10.08 263.57 10.81 264.04 11.32C264.51 11.83 265.11 12.08 265.83 12.08C266.3 12.08 266.73 11.97 267.13 11.75Z" fill="#567CDA"/>
<path d="M281.66 5.11999C282.39 5.86999 282.76 6.91999 282.76 8.25999V14.11H280.24V8.59999C280.24 7.80999 280.04 7.19999 279.65 6.76999C279.25 6.33999 278.71 6.12999 278.03 6.12999C277.33 6.12999 276.78 6.33999 276.38 6.76999C275.98 7.19999 275.78 7.80999 275.78 8.59999V14.11H273.26V4.13999H275.78V5.37999C276.11 4.94999 276.54 4.60999 277.07 4.35999C277.59 4.10999 278.17 3.98999 278.79 3.98999C279.97 3.99999 280.93 4.36999 281.66 5.11999Z" fill="#567CDA"/>
<path d="M285.5 6.41998C285.92 5.64998 286.5 5.04998 287.25 4.61998C287.99 4.18998 288.85 3.97998 289.81 3.97998C291.05 3.97998 292.07 4.28998 292.88 4.90998C293.69 5.52998 294.23 6.38998 294.51 7.50998H291.79C291.65 7.07998 291.4 6.73998 291.06 6.48998C290.72 6.23998 290.3 6.11998 289.79 6.11998C289.07 6.11998 288.5 6.37998 288.08 6.89998C287.66 7.41998 287.45 8.15998 287.45 9.11998C287.45 10.07 287.66 10.8 288.08 11.33C288.5 11.86 289.07 12.11 289.79 12.11C290.81 12.11 291.48 11.65 291.79 10.74H294.51C294.23 11.82 293.69 12.68 292.87 13.31C292.05 13.95 291.03 14.26 289.81 14.26C288.85 14.26 288 14.05 287.25 13.62C286.5 13.19 285.92 12.59 285.5 11.82C285.08 11.05 284.87 10.14 284.87 9.10998C284.87 8.07998 285.08 7.18998 285.5 6.41998Z" fill="#567CDA"/>
<path d="M305.91 9.87997H298.62C298.68 10.6 298.93 11.16 299.38 11.57C299.82 11.98 300.37 12.18 301.02 12.18C301.96 12.18 302.62 11.78 303.02 10.97H305.74C305.45 11.93 304.9 12.72 304.08 13.34C303.26 13.96 302.26 14.27 301.07 14.27C300.11 14.27 299.25 14.06 298.49 13.63C297.73 13.2 297.13 12.6 296.71 11.82C296.29 11.04 296.07 10.14 296.07 9.11997C296.07 8.08997 296.28 7.17997 296.7 6.39997C297.12 5.61997 297.71 5.01997 298.46 4.59997C299.22 4.17997 300.09 3.96997 301.07 3.96997C302.02 3.96997 302.87 4.16997 303.62 4.57997C304.37 4.98997 304.95 5.56997 305.37 6.31997C305.79 7.06997 305.99 7.92997 305.99 8.89997C305.98 9.26997 305.96 9.58997 305.91 9.87997ZM303.37 8.18997C303.36 7.53997 303.12 7.01997 302.67 6.62997C302.21 6.23997 301.66 6.04997 301 6.04997C300.38 6.04997 299.85 6.23997 299.43 6.61997C299 6.99997 298.74 7.51997 298.65 8.19997H303.37V8.18997Z" fill="#567CDA"/>
<path d="M312.04 4.43998C312.61 4.12998 313.26 3.97998 313.99 3.97998C314.84 3.97998 315.61 4.18998 316.3 4.60998C316.99 5.02998 317.54 5.62998 317.94 6.39998C318.34 7.16998 318.54 8.06998 318.54 9.08998C318.54 10.11 318.34 11.01 317.94 11.8C317.54 12.59 316.99 13.2 316.3 13.63C315.61 14.06 314.84 14.28 313.99 14.28C313.26 14.28 312.61 14.13 312.06 13.83C311.5 13.53 311.05 13.15 310.7 12.7V18.87H308.18V4.13998H310.7V5.57998C311.02 5.11998 311.47 4.73998 312.04 4.43998ZM315.6 7.52998C315.35 7.08998 315.03 6.75998 314.63 6.52998C314.23 6.29998 313.79 6.18998 313.33 6.18998C312.87 6.18998 312.45 6.30998 312.04 6.53998C311.63 6.76998 311.31 7.10998 311.07 7.55998C310.82 7.99998 310.7 8.52998 310.7 9.12998C310.7 9.72998 310.82 10.25 311.07 10.7C311.32 11.14 311.64 11.48 312.04 11.72C312.44 11.96 312.87 12.07 313.33 12.07C313.8 12.07 314.23 11.95 314.63 11.71C315.03 11.47 315.36 11.13 315.6 10.68C315.85 10.24 315.97 9.70998 315.97 9.09998C315.97 8.48998 315.85 7.96998 315.6 7.52998Z" fill="#567CDA"/>
<path d="M323.67 6.20992V11.0299C323.67 11.3699 323.75 11.6099 323.91 11.7599C324.07 11.9099 324.34 11.9899 324.73 11.9899H325.9V14.1099H324.32C322.2 14.1099 321.13 13.0799 321.13 11.0099V6.20992H319.94V4.13992H321.13V1.66992H323.67V4.13992H325.9V6.20992H323.67V6.20992Z" fill="#567CDA"/>
<path d="M506.91 1.55005V14.11H504.39V5.94005L501.02 14.11H499.11L495.73 5.94005V14.11H493.21V1.55005H496.07L500.07 10.89L504.07 1.55005H506.91V1.55005Z" fill="#567CDA"/>
<path d="M509.71 6.40998C510.11 5.62998 510.66 5.02998 511.35 4.60998C512.04 4.18998 512.81 3.97998 513.66 3.97998C514.4 3.97998 515.06 4.12998 515.61 4.42998C516.17 4.72998 516.61 5.10998 516.95 5.55998V4.13998H519.49V14.11H516.95V12.65C516.63 13.12 516.18 13.5 515.61 13.81C515.04 14.12 514.38 14.27 513.64 14.27C512.8 14.27 512.04 14.05 511.35 13.62C510.66 13.19 510.11 12.58 509.71 11.79C509.31 11 509.11 10.1 509.11 9.07998C509.11 8.07998 509.31 7.18998 509.71 6.40998ZM516.6 7.54998C516.36 7.10998 516.04 6.77998 515.63 6.53998C515.22 6.29998 514.78 6.18998 514.32 6.18998C513.85 6.18998 513.42 6.29998 513.02 6.52998C512.62 6.75998 512.3 7.08998 512.06 7.52998C511.81 7.96998 511.69 8.48998 511.69 9.08998C511.69 9.68998 511.81 10.22 512.06 10.67C512.31 11.12 512.63 11.46 513.03 11.71C513.43 11.95 513.86 12.07 514.32 12.07C514.79 12.07 515.23 11.95 515.63 11.72C516.03 11.49 516.36 11.15 516.6 10.71C516.84 10.27 516.96 9.74998 516.96 9.12998C516.96 8.50998 516.84 7.98998 516.6 7.54998Z" fill="#567CDA"/>
<path d="M525.25 6.20992V11.0299C525.25 11.3699 525.33 11.6099 525.49 11.7599C525.65 11.9099 525.93 11.9899 526.31 11.9899H527.48V14.1099H525.9C523.78 14.1099 522.71 13.0799 522.71 11.0099V6.20992H521.52V4.13992H522.71V1.66992H525.25V4.13992H527.48V6.20992H525.25V6.20992Z" fill="#567CDA"/>
<path d="M538.86 9.87997H531.57C531.63 10.6 531.88 11.16 532.33 11.57C532.78 11.98 533.32 12.18 533.97 12.18C534.91 12.18 535.57 11.78 535.97 10.97H538.69C538.4 11.93 537.85 12.72 537.03 13.34C536.21 13.96 535.21 14.27 534.02 14.27C533.06 14.27 532.2 14.06 531.44 13.63C530.68 13.2 530.08 12.6 529.66 11.82C529.24 11.04 529.02 10.14 529.02 9.11997C529.02 8.08997 529.23 7.17997 529.65 6.39997C530.07 5.61997 530.66 5.01997 531.41 4.59997C532.17 4.17997 533.04 3.96997 534.02 3.96997C534.97 3.96997 535.82 4.16997 536.57 4.57997C537.32 4.98997 537.9 5.56997 538.32 6.31997C538.74 7.06997 538.94 7.92997 538.94 8.89997C538.93 9.26997 538.91 9.58997 538.86 9.87997ZM536.32 8.18997C536.31 7.53997 536.07 7.01997 535.62 6.62997C535.16 6.23997 534.61 6.04997 533.95 6.04997C533.33 6.04997 532.8 6.23997 532.38 6.61997C531.95 6.99997 531.69 7.51997 531.6 8.19997H536.32V8.18997Z" fill="#567CDA"/>
<path d="M544.92 4.45C545.44 4.15 546.04 4 546.71 4V6.65H546.04C545.25 6.65 544.65 6.84 544.25 7.21C543.85 7.58 543.65 8.23 543.65 9.15V14.12H541.13V4.14H543.65V5.69C543.97 5.16 544.4 4.75 544.92 4.45Z" fill="#567CDA"/>
<path d="M548.93 2.53C548.64 2.25 548.49 1.9 548.49 1.48C548.49 1.06 548.64 0.71 548.93 0.43C549.23 0.14 549.6 0 550.04 0C550.48 0 550.85 0.14 551.15 0.42C551.44 0.7 551.59 1.05 551.59 1.47C551.59 1.89 551.44 2.24 551.15 2.52C550.86 2.8 550.49 2.94 550.04 2.94C549.6 2.95 549.23 2.81 548.93 2.53ZM551.28 4.14V14.11H548.76V4.14H551.28Z" fill="#567CDA"/>
<path d="M554.08 6.40998C554.48 5.62998 555.03 5.02998 555.72 4.60998C556.41 4.18998 557.18 3.97998 558.03 3.97998C558.77 3.97998 559.43 4.12998 559.98 4.42998C560.54 4.72998 560.98 5.10998 561.32 5.55998V4.13998H563.86V14.11H561.32V12.65C561 13.12 560.55 13.5 559.98 13.81C559.41 14.12 558.75 14.27 558.01 14.27C557.17 14.27 556.41 14.05 555.72 13.62C555.03 13.19 554.48 12.58 554.08 11.79C553.68 11 553.48 10.1 553.48 9.07998C553.48 8.07998 553.68 7.18998 554.08 6.40998ZM560.97 7.54998C560.73 7.10998 560.41 6.77998 560 6.53998C559.59 6.29998 559.15 6.18998 558.69 6.18998C558.22 6.18998 557.79 6.29998 557.39 6.52998C556.99 6.75998 556.67 7.08998 556.43 7.52998C556.18 7.96998 556.06 8.48998 556.06 9.08998C556.06 9.68998 556.18 10.22 556.43 10.67C556.68 11.12 557 11.46 557.4 11.71C557.8 11.95 558.23 12.07 558.69 12.07C559.16 12.07 559.6 11.95 560 11.72C560.4 11.49 560.73 11.15 560.97 10.71C561.21 10.27 561.33 9.74998 561.33 9.12998C561.33 8.50998 561.21 7.98998 560.97 7.54998Z" fill="#567CDA"/>
<path d="M569.21 0.790039V14.11H566.69V0.790039H569.21Z" fill="#567CDA"/>
<path d="M572.22 2.53001C571.93 2.25001 571.78 1.90001 571.78 1.48001C571.78 1.06001 571.93 0.71001 572.22 0.43001C572.51 0.15001 572.88 0.0100098 573.33 0.0100098C573.77 0.0100098 574.14 0.15001 574.44 0.43001C574.73 0.71001 574.88 1.06001 574.88 1.48001C574.88 1.90001 574.73 2.25001 574.44 2.53001C574.15 2.81001 573.78 2.95001 573.33 2.95001C572.89 2.95001 572.52 2.81001 572.22 2.53001ZM574.57 4.14001V14.11H572.05V4.14001H574.57Z" fill="#567CDA"/>
<path d="M579.72 12.0399H584.17V14.1099H576.86V12.0799L581.22 6.20989H576.88V4.13989H584.12V6.16989L579.72 12.0399Z" fill="#567CDA"/>
<path d="M595.67 9.87997H588.38C588.44 10.6 588.69 11.16 589.14 11.57C589.59 11.98 590.13 12.18 590.78 12.18C591.72 12.18 592.38 11.78 592.78 10.97H595.5C595.21 11.93 594.66 12.72 593.84 13.34C593.02 13.96 592.02 14.27 590.83 14.27C589.87 14.27 589.01 14.06 588.25 13.63C587.49 13.2 586.89 12.6 586.47 11.82C586.05 11.04 585.83 10.14 585.83 9.11997C585.83 8.08997 586.04 7.17997 586.46 6.39997C586.88 5.61997 587.47 5.01997 588.22 4.59997C588.98 4.17997 589.85 3.96997 590.83 3.96997C591.78 3.96997 592.63 4.16997 593.38 4.57997C594.13 4.98997 594.71 5.56997 595.13 6.31997C595.55 7.06997 595.75 7.92997 595.75 8.89997C595.74 9.26997 595.72 9.58997 595.67 9.87997ZM593.13 8.18997C593.12 7.53997 592.88 7.01997 592.43 6.62997C591.97 6.23997 591.42 6.04997 590.76 6.04997C590.14 6.04997 589.61 6.23997 589.19 6.61997C588.76 6.99997 588.5 7.51997 588.41 8.19997H593.13V8.18997Z" fill="#567CDA"/>
<path d="M747.07 2.32005C748.07 2.84005 748.85 3.57005 749.39 4.53005C749.94 5.48005 750.21 6.59005 750.21 7.85005C750.21 9.11005 749.94 10.21 749.39 11.15C748.84 12.09 748.07 12.82 747.07 13.34C746.07 13.86 744.91 14.11 743.59 14.11H739.2V1.55005H743.59C744.91 1.55005 746.07 1.81005 747.07 2.32005ZM746.56 10.89C747.28 10.17 747.64 9.16005 747.64 7.85005C747.64 6.54005 747.28 5.52005 746.56 4.78005C745.84 4.04005 744.82 3.67005 743.5 3.67005H741.72V11.97H743.5C744.82 11.97 745.84 11.61 746.56 10.89Z" fill="#567CDA"/>
<path d="M761.66 9.87997H754.37C754.43 10.6 754.68 11.16 755.13 11.57C755.57 11.98 756.12 12.18 756.77 12.18C757.71 12.18 758.37 11.78 758.77 10.97H761.49C761.2 11.93 760.65 12.72 759.83 13.34C759.01 13.96 758.01 14.27 756.82 14.27C755.86 14.27 755 14.06 754.24 13.63C753.48 13.2 752.88 12.6 752.46 11.82C752.04 11.04 751.82 10.14 751.82 9.11997C751.82 8.08997 752.03 7.17997 752.45 6.39997C752.87 5.61997 753.46 5.01997 754.21 4.59997C754.96 4.17997 755.84 3.96997 756.82 3.96997C757.77 3.96997 758.62 4.16997 759.37 4.57997C760.12 4.98997 760.7 5.56997 761.12 6.31997C761.54 7.06997 761.74 7.92997 761.74 8.89997C761.74 9.26997 761.71 9.58997 761.66 9.87997ZM759.13 8.18997C759.12 7.53997 758.88 7.01997 758.43 6.62997C757.97 6.23997 757.42 6.04997 756.76 6.04997C756.14 6.04997 755.61 6.23997 755.18 6.61997C754.75 6.99997 754.49 7.51997 754.4 8.19997H759.13V8.18997Z" fill="#567CDA"/>
<path d="M765.55 13.83C764.9 13.54 764.39 13.14 764.01 12.63C763.63 12.13 763.42 11.57 763.39 10.96H765.93C765.98 11.34 766.17 11.66 766.5 11.91C766.83 12.16 767.24 12.29 767.73 12.29C768.21 12.29 768.58 12.19 768.86 12C769.13 11.81 769.26 11.56 769.26 11.26C769.26 10.94 769.09 10.69 768.77 10.53C768.44 10.37 767.91 10.19 767.19 9.99997C766.45 9.81997 765.84 9.62997 765.36 9.43997C764.89 9.24997 764.48 8.94997 764.14 8.55997C763.8 8.15997 763.63 7.62997 763.63 6.95997C763.63 6.40997 763.79 5.89997 764.11 5.44997C764.43 4.98997 764.88 4.62997 765.48 4.36997C766.07 4.10997 766.77 3.96997 767.58 3.96997C768.77 3.96997 769.72 4.26997 770.42 4.85997C771.12 5.44997 771.52 6.24997 771.59 7.25997H769.18C769.14 6.85997 768.98 6.54997 768.68 6.30997C768.38 6.06997 767.99 5.95997 767.5 5.95997C767.04 5.95997 766.69 6.03997 766.45 6.20997C766.21 6.37997 766.08 6.60997 766.08 6.90997C766.08 7.24997 766.25 7.49997 766.58 7.67997C766.91 7.85997 767.44 8.02997 768.15 8.20997C768.87 8.38997 769.46 8.57997 769.93 8.76997C770.4 8.95997 770.8 9.25997 771.15 9.65997C771.49 10.06 771.67 10.59 771.68 11.25C771.68 11.83 771.52 12.34 771.2 12.8C770.88 13.26 770.43 13.61 769.83 13.87C769.23 14.13 768.54 14.26 767.75 14.26C766.93 14.27 766.2 14.13 765.55 13.83Z" fill="#567CDA"/>
<path d="M774.27 2.53001C773.98 2.25001 773.83 1.90001 773.83 1.48001C773.83 1.06001 773.98 0.71001 774.27 0.43001C774.56 0.15001 774.93 0.0100098 775.38 0.0100098C775.83 0.0100098 776.19 0.15001 776.49 0.43001C776.78 0.71001 776.93 1.06001 776.93 1.48001C776.93 1.90001 776.78 2.25001 776.49 2.53001C776.2 2.81001 775.83 2.95001 775.38 2.95001C774.93 2.95001 774.57 2.81001 774.27 2.53001ZM776.62 4.14001V14.11H774.1V4.14001H776.62Z" fill="#567CDA"/>
<path d="M785.33 4.41998C785.89 4.70998 786.34 5.08998 786.66 5.55998V4.13998H789.2V14.18C789.2 15.1 789.01 15.93 788.64 16.66C788.27 17.39 787.71 17.96 786.97 18.39C786.23 18.82 785.33 19.03 784.27 19.03C782.85 19.03 781.69 18.7 780.79 18.04C779.88 17.38 779.37 16.48 779.25 15.34H781.75C781.88 15.8 782.17 16.16 782.6 16.43C783.04 16.7 783.57 16.84 784.19 16.84C784.92 16.84 785.52 16.62 785.97 16.18C786.43 15.74 786.65 15.08 786.65 14.19V12.64C786.33 13.11 785.88 13.5 785.31 13.81C784.74 14.12 784.09 14.28 783.36 14.28C782.52 14.28 781.75 14.06 781.06 13.63C780.36 13.2 779.81 12.59 779.41 11.8C779.01 11.01 778.81 10.11 778.81 9.08998C778.81 8.07998 779.01 7.18998 779.41 6.40998C779.81 5.62998 780.36 5.02998 781.05 4.60998C781.74 4.18998 782.51 3.97998 783.36 3.97998C784.12 3.97998 784.77 4.12998 785.33 4.41998ZM786.31 7.54998C786.07 7.10998 785.75 6.77998 785.34 6.53998C784.93 6.30998 784.49 6.18998 784.03 6.18998C783.56 6.18998 783.13 6.29998 782.73 6.52998C782.33 6.75998 782.01 7.08998 781.77 7.52998C781.53 7.96998 781.4 8.48998 781.4 9.08998C781.4 9.68998 781.52 10.22 781.77 10.67C782.02 11.12 782.34 11.46 782.74 11.71C783.14 11.95 783.57 12.07 784.03 12.07C784.5 12.07 784.94 11.95 785.34 11.72C785.75 11.49 786.07 11.15 786.31 10.71C786.55 10.27 786.67 9.74998 786.67 9.12998C786.67 8.50998 786.55 7.98998 786.31 7.54998Z" fill="#567CDA"/>
<path d="M800.44 5.11999C801.17 5.86999 801.54 6.91999 801.54 8.25999V14.11H799.02V8.59999C799.02 7.80999 798.82 7.19999 798.43 6.76999C798.03 6.33999 797.49 6.12999 796.81 6.12999C796.11 6.12999 795.56 6.33999 795.16 6.76999C794.76 7.19999 794.56 7.80999 794.56 8.59999V14.11H792.04V4.13999H794.56V5.37999C794.9 4.94999 795.32 4.60999 795.85 4.35999C796.37 4.10999 796.94 3.98999 797.57 3.98999C798.74 3.99999 799.7 4.36999 800.44 5.11999Z" fill="#567CDA"/>
<path d="M994.07 5.74989C995.18 6.31989 996.04 7.13989 996.65 8.19989C997.26 9.25989 997.56 10.4899 997.56 11.8899C997.56 13.2899 997.26 14.5099 996.65 15.5599C996.04 16.6099 995.18 17.4199 994.07 17.9899C992.96 18.5599 991.67 18.8499 990.2 18.8499H985.32V4.88989H990.2C991.67 4.88989 992.96 5.17989 994.07 5.74989ZM993.5 15.2699C994.3 14.4699 994.7 13.3399 994.7 11.8899C994.7 10.4399 994.3 9.29989 993.5 8.47989C992.7 7.65989 991.57 7.24989 990.1 7.24989H988.12V16.4699H990.1C991.57 16.4699 992.7 16.0699 993.5 15.2699Z" fill="#567CDA"/>
<path d="M1010.28 14.1498H1002.18C1002.25 14.9498 1002.53 15.5798 1003.02 16.0298C1003.51 16.4798 1004.12 16.7098 1004.84 16.7098C1005.88 16.7098 1006.62 16.2598 1007.06 15.3698H1010.08C1009.76 16.4398 1009.15 17.3098 1008.24 17.9998C1007.33 18.6898 1006.22 19.0298 1004.9 19.0298C1003.83 19.0298 1002.88 18.7898 1002.03 18.3198C1001.18 17.8498 1000.52 17.1798 1000.05 16.3098C999.58 15.4398 999.34 14.4398 999.34 13.3098C999.34 12.1598 999.57 11.1598 1000.04 10.2898C1000.51 9.41984 1001.16 8.75984 1002 8.28984C1002.84 7.81984 1003.81 7.58984 1004.9 7.58984C1005.95 7.58984 1006.9 7.81984 1007.73 8.26984C1008.56 8.71984 1009.21 9.36984 1009.67 10.1998C1010.13 11.0298 1010.36 11.9898 1010.36 13.0698C1010.36 13.4698 1010.34 13.8298 1010.28 14.1498ZM1007.46 12.2698C1007.45 11.5498 1007.19 10.9698 1006.68 10.5398C1006.17 10.1098 1005.55 9.88984 1004.82 9.88984C1004.13 9.88984 1003.54 10.0998 1003.07 10.5198C1002.6 10.9398 1002.31 11.5198 1002.2 12.2698H1007.46Z" fill="#567CDA"/>
<path d="M1015.6 4.0498V18.8498H1012.8V4.0498H1015.6Z" fill="#567CDA"/>
<path d="M1018.95 5.97992C1018.62 5.66992 1018.46 5.27992 1018.46 4.80992C1018.46 4.33992 1018.62 3.94992 1018.95 3.63992C1019.28 3.32992 1019.69 3.16992 1020.18 3.16992C1020.67 3.16992 1021.08 3.32992 1021.41 3.63992C1021.74 3.94992 1021.9 4.33992 1021.9 4.80992C1021.9 5.27992 1021.74 5.66992 1021.41 5.97992C1021.08 6.28992 1020.67 6.44992 1020.18 6.44992C1019.69 6.44992 1019.28 6.29992 1018.95 5.97992ZM1021.56 7.76992V18.8499H1018.76V7.76992H1021.56Z" fill="#567CDA"/>
<path d="M1029.34 16.27L1032.14 7.77002H1035.12L1031.02 18.85H1027.62L1023.54 7.77002H1026.54L1029.34 16.27Z" fill="#567CDA"/>
<path d="M1047.32 14.1498H1039.22C1039.29 14.9498 1039.57 15.5798 1040.06 16.0298C1040.55 16.4798 1041.16 16.7098 1041.88 16.7098C1042.92 16.7098 1043.66 16.2598 1044.1 15.3698H1047.12C1046.8 16.4398 1046.19 17.3098 1045.28 17.9998C1044.37 18.6898 1043.26 19.0298 1041.94 19.0298C1040.87 19.0298 1039.92 18.7898 1039.07 18.3198C1038.22 17.8498 1037.56 17.1798 1037.09 16.3098C1036.62 15.4398 1036.38 14.4398 1036.38 13.3098C1036.38 12.1598 1036.61 11.1598 1037.08 10.2898C1037.55 9.41984 1038.2 8.75984 1039.04 8.28984C1039.88 7.81984 1040.85 7.58984 1041.94 7.58984C1042.99 7.58984 1043.94 7.81984 1044.77 8.26984C1045.6 8.71984 1046.25 9.36984 1046.71 10.1998C1047.17 11.0298 1047.4 11.9898 1047.4 13.0698C1047.4 13.4698 1047.38 13.8298 1047.32 14.1498ZM1044.5 12.2698C1044.49 11.5498 1044.23 10.9698 1043.72 10.5398C1043.21 10.1098 1042.59 9.88984 1041.86 9.88984C1041.17 9.88984 1040.58 10.0998 1040.11 10.5198C1039.64 10.9398 1039.35 11.5198 1039.24 12.2698H1044.5Z" fill="#567CDA"/>
<path d="M1054.05 8.10986C1054.63 7.77986 1055.29 7.60986 1056.04 7.60986V10.5499H1055.3C1054.42 10.5499 1053.76 10.7599 1053.31 11.1699C1052.86 11.5799 1052.64 12.2999 1052.64 13.3299V18.8499H1049.84V7.76986H1052.64V9.48986C1053 8.90986 1053.47 8.44986 1054.05 8.10986Z" fill="#567CDA"/>
<path d="M1068.92 7.77002L1062.06 24.09H1059.08L1061.48 18.57L1057.04 7.77002H1060.18L1063.04 15.51L1065.94 7.77002H1068.92Z" fill="#567CDA"/>
<path d="M5.49016 65.9402H1.17016V65.1302H6.47016C6.47016 68.4102 4.96016 71.2902 1.18016 73.1402L0.660156 72.3602C3.73016 70.8902 5.28016 68.6702 5.49016 65.9402ZM9.83016 63.9102V75.2902H8.85016V63.9102H9.83016Z" fill="#767676"/>
<path d="M17.86 66.6402H20.24V63.9102H21.22V70.0002H20.24V67.4402H17.86C17.68 68.7802 16.52 69.6902 14.97 69.6902C13.27 69.6902 12.04 68.6102 12.04 67.0602C12.04 65.5002 13.26 64.4302 14.97 64.4302C16.51 64.4402 17.65 65.3102 17.86 66.6402ZM14.98 68.8602C16.14 68.8602 16.96 68.1202 16.96 67.0702C16.96 66.0002 16.14 65.2602 14.98 65.2602C13.81 65.2602 12.99 66.0002 12.99 67.0702C12.99 68.1202 13.81 68.8602 14.98 68.8602ZM13.96 70.5902H14.94V72.0502H20.24V70.5902H21.22V75.1302H13.97V70.5902H13.96ZM20.24 74.3302V72.8202H14.94V74.3302H20.24Z" fill="#767676"/>
<path d="M26.8101 65.3002H27.7701V71.4602C28.8901 71.4502 30.1101 71.3702 31.5001 71.1002L31.6201 71.9602C30.0601 72.2602 28.7601 72.3202 27.5201 72.3202H26.8101V65.3002V65.3002ZM35.8501 63.9102V75.2902H34.9101V69.3902H33.2501V74.6902H32.3401V64.1702H33.2501V68.5602H34.9101V63.9102H35.8501V63.9102Z" fill="#767676"/>
<path d="M44.3099 67.3101C44.3099 68.7501 43.2699 69.7701 41.7599 69.9501V71.9001C42.8799 71.8501 44.0299 71.7601 45.0999 71.5901L45.1799 72.3001C42.6199 72.7801 39.8199 72.7901 37.7799 72.7901L37.6499 71.9701C38.5699 71.9701 39.6399 71.9701 40.7699 71.9301V69.9401C39.2599 69.7401 38.2299 68.7301 38.2299 67.3001C38.2299 65.7301 39.4899 64.6301 41.2699 64.6301C43.0399 64.6501 44.3099 65.7401 44.3099 67.3101ZM41.2799 69.1301C42.4799 69.1301 43.3599 68.3901 43.3599 67.3101C43.3599 66.2301 42.4799 65.4901 41.2799 65.4901C40.0699 65.4901 39.1899 66.2301 39.1899 67.3101C39.1799 68.3901 40.0699 69.1301 41.2799 69.1301ZM45.8499 63.8901H46.8299V75.2901H45.8499V63.8901Z" fill="#767676"/>
<path d="M59.27 70.6801V71.4701H54.56V75.2801H53.6V71.4701H48.96V70.6801H59.27ZM50.27 64.3901H51.23V65.9601H56.96V64.3901H57.92V69.2901H50.26V64.3901H50.27ZM56.97 68.4801V66.7501H51.24V68.4801H56.97Z" fill="#767676"/>
<path d="M66.3403 70.6301V69.7501C65.0303 69.6301 64.1803 69.0001 64.1803 68.0201C64.1803 66.9401 65.2203 66.2801 66.8103 66.2801C68.4003 66.2801 69.4503 66.9401 69.4503 68.0201C69.4503 69.0001 68.6203 69.6301 67.3003 69.7501V70.5901C68.3703 70.5301 69.4503 70.4301 70.4303 70.2801L70.5103 70.9801C68.0903 71.4201 65.3603 71.4701 63.3903 71.4701L63.2603 70.6801C64.1703 70.6801 65.2203 70.6701 66.3403 70.6301ZM63.5403 65.0401H66.3403V63.8601H67.3003V65.0401H70.0803V65.7801H63.5403V65.0401ZM64.9603 72.2101H65.9403V74.2101H72.5103V75.0201H64.9703V72.2101H64.9603ZM66.8103 69.0701C67.8603 69.0701 68.5303 68.6701 68.5303 68.0201C68.5303 67.3801 67.8703 66.9801 66.8103 66.9801C65.7703 66.9801 65.1103 67.3801 65.1103 68.0201C65.1003 68.6701 65.7703 69.0701 66.8103 69.0701ZM72.1003 63.9101V67.9001H73.8003V68.7201H72.1003V72.8001H71.1203V63.9101H72.1003V63.9101Z" fill="#767676"/>
<path d="M83.0298 68.4102V66.8402H80.1298C79.3898 68.6702 77.6298 70.0002 75.2198 70.7302L74.8198 69.9502C77.5598 69.1402 79.2798 67.5802 79.4698 65.5802H75.3998V64.7702H80.5198C80.5198 65.2102 80.4698 65.6402 80.3798 66.0402H83.0298V63.9102H84.0098V70.7602H83.0298V69.2002H79.9998V68.4102H83.0298ZM80.3098 70.8802C82.5998 70.8802 84.0498 71.7002 84.0498 73.0602C84.0498 74.4102 82.5898 75.2302 80.3098 75.2302C77.9998 75.2302 76.5498 74.4102 76.5498 73.0602C76.5598 71.7002 77.9998 70.8802 80.3098 70.8802ZM80.3098 74.4502C82.0098 74.4502 83.0898 73.9202 83.0898 73.0602C83.0898 72.1802 82.0098 71.6602 80.3098 71.6602C78.6098 71.6602 77.5198 72.1802 77.5198 73.0602C77.5198 73.9202 78.6098 74.4502 80.3098 74.4502Z" fill="#767676"/>
<path d="M96.33 69.94V70.73H91.74V72.98H90.75V70.73H86.02V69.94H96.33ZM87.35 71.94H88.31V74.21H95.19V75.03H87.35V71.94V71.94ZM87.41 64.26H88.37V65.74H93.99V64.26H94.96V68.81H87.41V64.26ZM93.99 68.02V66.51H88.37V68.02H93.99Z" fill="#767676"/>
<path d="M100.26 65.6902V64.4802H101.22V65.7302C101.22 67.3202 102.39 68.7702 104.01 69.3602L103.48 70.1302C102.23 69.6502 101.24 68.6702 100.75 67.4502C100.28 68.8002 99.2502 69.8502 97.9202 70.3702L97.4302 69.5902C99.1002 68.9802 100.26 67.4402 100.26 65.6902ZM99.1502 71.2702H106.72V75.2902H105.74V72.0702H99.1502V71.2702V71.2702ZM105.74 66.3102V63.9102H106.72V70.6302H105.74V67.1302H103.22V66.3102H105.74V66.3102Z" fill="#767676"/>
<path d="M3.48002 91.9801V89.9001H4.46002V91.9801C4.46002 94.0301 5.79002 96.1101 7.41002 96.8801L6.84002 97.6701C5.55002 97.0101 4.49002 95.6301 3.98002 94.0001C3.49002 95.7201 2.41002 97.1701 1.13002 97.8601L0.52002 97.0801C2.15002 96.2701 3.48002 94.0801 3.48002 91.9801ZM8.88002 92.8101V88.9001H9.84002V100.3H8.88002V93.6001H6.19002V92.8101H8.88002Z" fill="#767676"/>
<path d="M12.5298 89.8801H13.5098V92.9001H16.8998V89.8801H17.8598V97.5401H12.5298V89.8801ZM16.8998 96.7301V93.6701H13.5098V96.7301H16.8998ZM21.1698 88.8901V100.29H20.1898V88.8901H21.1698Z" fill="#767676"/>
<path d="M23.2402 97.9202H33.5502V98.7302H23.2402V97.9202ZM28.8602 89.6902V90.5702C28.8602 92.5502 31.1002 94.2802 33.0302 94.6402L32.5702 95.4502C30.8902 95.0602 29.0702 93.8402 28.3402 92.1602C27.6102 93.8402 25.8002 95.0602 24.1102 95.4502L23.6802 94.6402C25.5902 94.2602 27.8302 92.5502 27.8302 90.5702V89.6902H28.8602Z" fill="#767676"/>
<path d="M38.0298 90.3002H42.2398V91.1102H38.9898V96.6402C40.5498 96.6402 41.6398 96.5802 42.8798 96.3102L42.9998 97.1202C41.6398 97.4102 40.4898 97.4602 38.7598 97.4602H38.0298V90.3002ZM47.2298 88.9102V100.29H46.2898V94.3002H44.6298V99.6802H43.7198V89.1702H44.6298V93.4902H46.2898V88.9102H47.2298V88.9102Z" fill="#767676"/>
<path d="M55.6703 92.3101C55.6703 93.7501 54.6303 94.7701 53.1203 94.9501V96.9001C54.2403 96.8501 55.3903 96.7601 56.4603 96.5901L56.5403 97.3001C53.9803 97.7801 51.1803 97.7901 49.1403 97.7901L49.0103 96.9701C49.9303 96.9701 51.0003 96.9701 52.1303 96.9301V94.9401C50.6203 94.7401 49.6003 93.7301 49.6003 92.3001C49.6003 90.7301 50.8603 89.6301 52.6403 89.6301C54.4103 89.6501 55.6703 90.7401 55.6703 92.3101ZM52.6403 94.1301C53.8403 94.1301 54.7203 93.3901 54.7203 92.3101C54.7203 91.2301 53.8403 90.4901 52.6403 90.4901C51.4303 90.4901 50.5503 91.2301 50.5503 92.3101C50.5403 93.3901 51.4303 94.1301 52.6403 94.1301ZM57.2103 88.8901H58.1903V100.29H57.2103V88.8901Z" fill="#767676"/>
<path d="M62.8798 98.0001V94.8901C61.9198 94.4001 61.3298 93.5801 61.3298 92.5501C61.3298 90.7801 63.0598 89.6401 65.4498 89.6401C67.8698 89.6401 69.5698 90.7801 69.5698 92.5501C69.5698 93.5601 68.9998 94.3701 68.0598 94.8801V98.0001H70.6198V98.8101H60.3198V98.0001H62.8798ZM65.4598 94.6801C67.3098 94.6801 68.6498 93.8401 68.6498 92.5501C68.6498 91.2601 67.3098 90.4201 65.4598 90.4201C63.6098 90.4201 62.2898 91.2601 62.2898 92.5501C62.2898 93.8401 63.6098 94.6801 65.4598 94.6801ZM67.0898 98.0001V95.2601C66.5998 95.3901 66.0498 95.4601 65.4498 95.4601C64.8698 95.4601 64.3298 95.3901 63.8398 95.2601V98.0001H67.0898Z" fill="#767676"/>
<path d="M76.3102 97.9702V95.1902H77.2702V97.9702H81.9902V98.7902H71.6802V97.9702H76.3102ZM76.2802 90.5602V89.6602H77.2902V90.5602C77.2902 92.4702 79.5502 94.1402 81.4802 94.4902L81.0502 95.3102C79.3502 94.9302 77.5302 93.7601 76.7902 92.1301C76.0502 93.7601 74.2302 94.9402 72.5302 95.3102L72.1102 94.4902C74.0502 94.1302 76.2802 92.4702 76.2802 90.5602Z" fill="#767676"/>
<path d="M96.33 94.94V95.73H91.74V97.98H90.75V95.73H86.02V94.94H96.33ZM87.35 96.94H88.31V99.21H95.19V100.03H87.35V96.94V96.94ZM87.41 89.26H88.37V90.74H93.99V89.26H94.96V93.81H87.41V89.26ZM93.99 93.02V91.51H88.37V93.02H93.99Z" fill="#767676"/>
<path d="M100.26 90.6902V89.4802H101.22V90.7302C101.22 92.3202 102.39 93.7702 104.01 94.3602L103.48 95.1301C102.23 94.6501 101.24 93.6701 100.75 92.4501C100.28 93.8001 99.2502 94.8502 97.9202 95.3702L97.4302 94.5901C99.1002 93.9801 100.26 92.4402 100.26 90.6902ZM99.1502 96.2701H106.72V100.29H105.74V97.0702H99.1502V96.2701V96.2701ZM105.74 91.3102V88.9102H106.72V95.6301H105.74V92.1301H103.22V91.3102H105.74Z" fill="#767676"/>
<path d="M247.04 64.8202H247.95V66.7602H250.5V64.8202H251.42V67.2302H252.99V64.1402H253.93V72.2302H252.99V68.0302H251.42V70.3802H247.04V64.8202ZM250.5 69.5802V67.5402H247.95V69.5802H250.5ZM248.69 71.3702H249.66V74.2202H256.42V75.0302H248.68V71.3702H248.69ZM256.09 63.9102V72.5402H255.15V63.9102H256.09V63.9102Z" fill="#767676"/>
<path d="M261.05 67.6002V66.6802H258.4V65.9002H261.04V64.1002H262.03V65.8902H264.64V66.6702H262.01V67.5902C262.01 69.5302 263.35 71.3702 265.03 72.1002L264.47 72.8702C263.18 72.2702 262.08 71.0402 261.56 69.5002C261.05 71.1102 259.95 72.4302 258.65 73.0602L258.09 72.3202C259.75 71.5502 261.05 69.6302 261.05 67.6002ZM267.16 63.9102V75.2902H266.17V63.9102H267.16Z" fill="#767676"/>
<path d="M274.9 65.0502V72.3802H269.71V65.0502H274.9ZM273.95 71.5902V65.8402H270.66V71.5902H273.95ZM276.99 63.9102H277.96V68.4902H279.85V69.3102H277.96V75.2902H276.99V63.9102Z" fill="#767676"/>
<path d="M281.31 70.7902L280.92 70.0002C282.86 69.4402 284.13 68.6002 284.85 67.5202L281 67.8102L280.84 67.0002L285.23 66.7902C285.39 66.3702 285.49 65.9502 285.53 65.4902H281.4V64.7002H286.57C286.57 67.6002 284.91 69.7202 281.31 70.7902ZM286.14 70.9302C288.49 70.9302 289.96 71.7402 289.96 73.1002C289.96 74.4802 288.49 75.2702 286.14 75.2702C283.8 75.2702 282.34 74.4802 282.34 73.1002C282.35 71.7302 283.8 70.9302 286.14 70.9302ZM286.14 74.4902C287.89 74.4902 288.99 73.9602 288.99 73.1002C288.99 72.2202 287.9 71.7102 286.14 71.7102C284.38 71.7102 283.31 72.2202 283.31 73.1002C283.31 73.9602 284.39 74.4902 286.14 74.4902ZM288.91 63.9202H289.89V70.7602H288.91V63.9202Z" fill="#767676"/>
<path d="M299.59 73.03V70.38H295.9V69.59H297.65V65.81H295.87V65.02H304.28V65.81H302.49V69.59H304.27V70.38H300.55V73.03H305.26V73.85H294.95V73.03H299.59ZM301.52 69.59V65.81H298.63V69.59H301.52Z" fill="#767676"/>
<path d="M313.01 65.0802V65.9002H310.31V67.4302C310.31 69.3702 311.74 71.3202 313.38 72.0302L312.82 72.8102C311.52 72.2002 310.36 70.8702 309.83 69.3002C309.31 70.9802 308.17 72.4302 306.87 73.0802L306.31 72.3102C307.91 71.5302 309.34 69.3802 309.34 67.4202V65.9002H306.66V65.0802H313.01V65.0802ZM314.6 63.9102H315.58V75.2902H314.6V63.9102Z" fill="#767676"/>
<path d="M320.54 66.0102V64.5302H321.5V66.0102C321.5 67.6902 322.66 69.2602 324.27 69.9002L323.74 70.6702C322.5 70.1502 321.52 69.1102 321.04 67.8202C320.56 69.2102 319.54 70.3202 318.21 70.8602L317.7 70.0902C319.36 69.4302 320.54 67.8102 320.54 66.0102ZM319.71 71.5402H320.68V74.2202H327.27V75.0302H319.7V71.5402H319.71ZM326.03 65.6002V63.9202H327V72.4102H326.03V68.7602H323.69V67.9502H326.03V66.4202H323.69V65.6002H326.03Z" fill="#767676"/>
<path d="M342.33 70.4001V71.2201H339.6V75.2901H338.61V71.2201H335.7V75.2901H334.7V71.2201H332.02V70.4001H342.33ZM337.14 64.3901C339.52 64.3901 341.1 65.3301 341.1 66.8501C341.1 68.3701 339.51 69.3201 337.14 69.3201C334.77 69.3201 333.18 68.3701 333.18 66.8501C333.18 65.3301 334.78 64.3901 337.14 64.3901ZM337.14 68.5201C338.91 68.5201 340.12 67.8701 340.12 66.8401C340.12 65.8301 338.91 65.1601 337.14 65.1601C335.37 65.1601 334.18 65.8201 334.18 66.8401C334.18 67.8701 335.37 68.5201 337.14 68.5201Z" fill="#767676"/>
<path d="M343.38 65.2H346.14V63.8H347.12V65.1901H349.79V65.9701H343.39V65.2H343.38ZM346.61 66.59C348.13 66.59 349.17 67.42 349.17 68.68C349.17 69.95 348.13 70.8001 346.61 70.8001C345.1 70.8001 344.05 69.96 344.05 68.68C344.04 67.42 345.1 66.59 346.61 66.59ZM346.61 70.0401C347.6 70.0401 348.26 69.49 348.26 68.67C348.26 67.86 347.6 67.3301 346.61 67.3301C345.62 67.3301 344.97 67.86 344.97 68.67C344.97 69.5 345.62 70.0401 346.61 70.0401ZM349 71.38C351.34 71.38 352.77 72.09 352.77 73.32C352.77 74.54 351.34 75.2601 349 75.2601C346.65 75.2601 345.22 74.55 345.22 73.32C345.21 72.1 346.65 71.38 349 71.38ZM349 74.5C350.7 74.5 351.76 74.06 351.76 73.32C351.76 72.57 350.71 72.1501 349 72.1501C347.28 72.1501 346.23 72.57 346.23 73.32C346.23 74.06 347.28 74.5 349 74.5ZM351.73 66.6601V63.9001H352.7V71.2601H351.73V69.6601H349.75V68.8701H351.73V67.45H349.77V66.6601H351.73Z" fill="#767676"/>
<path d="M357.73 70.3401H368.01V71.1501H363.33V75.2801H362.37V71.1501H357.73V70.3401ZM363.39 64.3201V64.9701C363.39 66.5801 365.5 67.9701 367.5 68.2701L367.1 69.0501C365.37 68.7501 363.63 67.7601 362.9 66.3701C362.19 67.7901 360.43 68.7501 358.67 69.0501L358.27 68.2701C360.3 67.9701 362.38 66.6201 362.38 64.9701V64.3201H363.39Z" fill="#767676"/>
<path d="M369.65 64.4702H374.8V67.5102H370.63V69.1002C372.66 69.1002 374.18 69.0402 376 68.7402L376.12 69.5502C374.24 69.8602 372.69 69.9102 370.59 69.9102H369.68V66.7502H373.85V65.2702H369.65V64.4702ZM371.07 70.7302H372.03V72.1102H377.44V70.7302H378.4V75.1202H371.07V70.7302ZM377.44 74.3202V72.8902H372.03V74.3202H377.44ZM378.4 63.9102V70.1502H377.41V63.9102H378.4V63.9102Z" fill="#767676"/>
<path d="M246.51 97.9801H256.82V98.7901H246.51V97.9801ZM255.52 89.9001V90.6901H248.84V92.4301H255.28V93.2201H248.84V95.0501H255.64V95.8601H247.85V89.9001H255.52Z" fill="#767676"/>
<path d="M262.39 89.8401V93.0602H259.35V94.8801C260.83 94.8801 261.95 94.8302 263.28 94.5602L263.4 95.3401C261.96 95.6301 260.76 95.6802 259.12 95.6802H258.41V92.3302H261.45V90.6301H258.38V89.8502H262.39V89.8401ZM260.05 96.6202H261.03V99.2202H267.79V100.03H260.05V96.6202ZM262.85 92.0802H264.29V89.1202H265.21V97.1702H264.29V92.9002H262.85V92.0802ZM266.51 88.9102H267.45V97.4602H266.51V88.9102Z" fill="#767676"/>
<path d="M269.23 97.9H279.54V98.71H269.23V97.9ZM278.21 89.96V90.77H271.51V94.38H278.34V95.17H270.55V89.96H278.21V89.96Z" fill="#767676"/>
<path d="M293.88 94.94V95.73H289.29V97.98H288.3V95.73H283.57V94.94H293.88ZM284.9 96.94H285.86V99.21H292.74V100.03H284.9V96.94ZM284.96 89.26H285.92V90.74H291.54V89.26H292.51V93.81H284.96V89.26ZM291.54 93.02V91.51H285.92V93.02H291.54Z" fill="#767676"/>
<path d="M297.8 90.6902V89.4802H298.76V90.7302C298.76 92.3202 299.93 93.7702 301.55 94.3602L301.02 95.1301C299.77 94.6501 298.78 93.6701 298.29 92.4501C297.82 93.8001 296.79 94.8502 295.46 95.3702L294.97 94.5901C296.65 93.9801 297.8 92.4402 297.8 90.6902ZM296.7 96.2701H304.27V100.29H303.3V97.0702H296.71V96.2701H296.7ZM303.29 91.3102V88.9102H304.26V95.6301H303.29V92.1301H300.77V91.3102H303.29Z" fill="#767676"/>
<path d="M315.17 89.6502V94.2802H309.9V89.6502H315.17ZM314.54 97.0102H311.19V96.2402H314.54V95.1202H315.53V96.2402H318.88V97.0102H315.53C315.53 98.1402 317.38 99.2502 319.27 99.4902L318.95 100.24C317.26 100.01 315.7 99.1902 315.04 98.1202C314.35 99.2002 312.76 100 311.07 100.24L310.73 99.4902C312.65 99.2602 314.54 98.1602 314.54 97.0102ZM314.24 93.5002V90.4302H310.85V93.5002H314.24ZM317.63 88.9102H318.6V95.4501H317.63V88.9102Z" fill="#767676"/>
<path d="M326.01 90.2602V88.9602H326.96V90.2602H329.37V91.0402H323.57V90.2602H326.01ZM326.48 91.6502C327.91 91.6502 328.9 92.4402 328.9 93.6402C328.9 94.8502 327.91 95.6602 326.48 95.6602C325.05 95.6602 324.07 94.8502 324.07 93.6402C324.08 92.4402 325.05 91.6502 326.48 91.6502ZM326.48 94.9102C327.39 94.9102 328.03 94.3902 328.03 93.6402C328.03 92.8902 327.39 92.3902 326.48 92.3902C325.57 92.3902 324.93 92.8802 324.93 93.6402C324.93 94.4002 325.57 94.9102 326.48 94.9102ZM325.6 96.6702H333.22V100.28H332.24V97.4702H325.6V96.6702ZM329.86 89.1202H330.78V92.1202H332.28V88.9202H333.22V95.9902H332.28V92.9102H330.78V95.9002H329.86V89.1202Z" fill="#767676"/>
<path d="M337.99 90.4602V89.3702H338.97V90.4602C338.97 92.1002 340.2 93.5302 341.87 94.1002L341.39 94.8702C340.08 94.4102 339.01 93.4402 338.5 92.1802C338.01 93.5202 336.94 94.5902 335.59 95.0902L335.11 94.3202C336.79 93.7102 337.99 92.1602 337.99 90.4602ZM336.99 96.0402H344.31V100.12H336.99V96.0402ZM343.36 99.3302V96.8202H337.94V99.3302H343.36ZM344.31 88.9202V95.3802H343.34V88.9202H344.31Z" fill="#767676"/>
<path d="M351.19 90.9401H346.98V90.1301H352.18C352.18 93.3401 350.67 96.2701 347.01 98.1001L346.46 97.3501C349.39 95.8801 350.97 93.6401 351.19 90.9401ZM355.11 88.8901V93.5401H356.94V94.3601H355.11V100.28H354.12V88.8901H355.11Z" fill="#767676"/>
<path d="M360.92 92.6002V91.6802H358.27V90.9002H360.91V89.1002H361.9V90.8902H364.51V91.6702H361.88V92.5901C361.88 94.5301 363.22 96.3702 364.9 97.1002L364.34 97.8702C363.05 97.2702 361.95 96.0402 361.43 94.5002C360.92 96.1102 359.82 97.4302 358.52 98.0602L357.96 97.3202C359.62 96.5502 360.92 94.6302 360.92 92.6002ZM367.03 88.9102V100.29H366.04V88.9102H367.03Z" fill="#767676"/>
<path d="M372.09 95.3401H382.37V96.1501H377.69V100.28H376.73V96.1501H372.09V95.3401ZM377.74 89.3201V89.9701C377.74 91.5801 379.85 92.9701 381.85 93.2701L381.45 94.0501C379.72 93.7501 377.98 92.7601 377.25 91.3701C376.54 92.7901 374.78 93.7501 373.02 94.0501L372.62 93.2701C374.65 92.9701 376.73 91.6201 376.73 89.9701V89.3201H377.74Z" fill="#767676"/>
<path d="M384.01 89.4702H389.16V92.5102H384.99V94.1002C387.02 94.1002 388.54 94.0402 390.36 93.7402L390.48 94.5502C388.6 94.8602 387.05 94.9102 384.96 94.9102H384.05V91.7502H388.22V90.2701H384.02V89.4702H384.01ZM385.42 95.7302H386.38V97.1102H391.79V95.7302H392.75V100.12H385.42V95.7302ZM391.79 99.3202V97.8902H386.38V99.3202H391.79ZM392.76 88.9102V95.1502H391.77V88.9102H392.76Z" fill="#767676"/>
<path d="M493.23 65.0002H498.59V65.8202H494.2V71.6302C496.41 71.6302 497.87 71.5702 499.57 71.2402L499.67 72.0702C497.9 72.4002 496.42 72.4602 494.14 72.4602H493.23V65.0002V65.0002ZM501.77 63.9102V75.3002H500.79V63.9102H501.77Z" fill="#767676"/>
<path d="M510.2 65.0802V65.9002H507.65V67.4302C507.65 69.2402 508.98 71.2602 510.6 72.0302L510.04 72.8102C508.77 72.1702 507.69 70.8202 507.18 69.3002C506.66 70.9502 505.52 72.4202 504.25 73.0802L503.68 72.3102C505.27 71.5202 506.7 69.3602 506.7 67.4202V65.9002H504.07V65.0802H510.2V65.0802ZM511.6 63.9102H512.57V68.5402H514.46V69.3602H512.57V75.2902H511.6V63.9102Z" fill="#767676"/>
<path d="M518.43 64.7102C520.12 64.7102 521.38 65.8502 521.38 67.5002C521.38 69.1302 520.12 70.2802 518.43 70.2802C516.75 70.2802 515.48 69.1202 515.48 67.5002C515.48 65.8602 516.75 64.7102 518.43 64.7102ZM518.43 69.4302C519.57 69.4302 520.45 68.6202 520.45 67.5102C520.45 66.3702 519.58 65.5602 518.43 65.5602C517.3 65.5602 516.43 66.3702 516.43 67.5102C516.42 68.6302 517.3 69.4302 518.43 69.4302ZM517.26 71.3802H518.22V74.2102H524.88V75.0202H517.26V71.3802ZM524.52 63.9202V72.2302H523.53V63.9202H524.52Z" fill="#767676"/>
<path d="M533.46 66.2002H530V65.3902H534.42C534.42 68.2802 533.41 71.0102 530.16 72.8402L529.59 72.1302C532.23 70.6602 533.3 68.5602 533.46 66.2002ZM539.19 63.9102V75.2902H538.24V69.3202H536.65V74.7102H535.71V64.2102H536.65V68.5102H538.24V63.9102H539.19V63.9102Z" fill="#767676"/>
<path d="M542.4 64.3802V66.0402H545.71V64.3802H546.67V69.3302H541.43V64.3802H542.4ZM545.71 68.5402V66.8102H542.4V68.5402H545.71ZM542.57 70.3402H549.76V73.0702H543.56V74.3602H550.18V75.1502H542.6V72.3302H548.8V71.1202H542.57V70.3402ZM548.78 63.9102H549.75V66.3902H551.44V67.2002H549.75V69.7902H548.78V63.9102Z" fill="#767676"/>
<path d="M552.8 64.6202H553.76V66.3602H557.07V64.6202H558.03V69.8602H552.79V64.6202H552.8ZM557.08 69.0702V67.1502H553.77V69.0702H557.08ZM561.24 73.1602C561.24 74.5002 559.82 75.2702 557.51 75.2702C555.2 75.2702 553.78 74.5002 553.78 73.1602C553.78 71.8302 555.2 71.0502 557.51 71.0502C559.82 71.0602 561.24 71.8402 561.24 73.1602ZM557.5 74.4902C559.2 74.4902 560.26 74.0002 560.26 73.1602C560.26 72.3402 559.21 71.8502 557.5 71.8502C555.78 71.8502 554.72 72.3402 554.72 73.1602C554.72 74.0002 555.79 74.4902 557.5 74.4902ZM560.14 63.9102H561.12V66.8002H562.81V67.6202H561.12V70.7702H560.14V63.9102Z" fill="#767676"/>
<path d="M563.69 65.2201H566.56V63.8H567.54V65.2201H570.41V66H563.69V65.2201ZM567.05 66.6C568.68 66.6 569.77 67.38 569.77 68.59C569.77 69.83 568.68 70.6101 567.05 70.6101C565.42 70.6101 564.35 69.83 564.35 68.59C564.34 67.38 565.42 66.6 567.05 66.6ZM568.92 71.34C571.21 71.34 572.6 72.0601 572.6 73.2901C572.6 74.5301 571.21 75.25 568.92 75.25C566.62 75.25 565.21 74.5201 565.21 73.2901C565.21 72.0601 566.62 71.34 568.92 71.34ZM567.05 69.8601C568.12 69.8601 568.83 69.35 568.83 68.59C568.83 67.84 568.11 67.34 567.05 67.34C565.99 67.34 565.27 67.83 565.27 68.59C565.27 69.36 565.98 69.8601 567.05 69.8601ZM568.92 74.5C570.61 74.5 571.65 74.0601 571.65 73.2901C571.65 72.5401 570.61 72.09 568.92 72.09C567.23 72.09 566.19 72.5301 566.19 73.2901C566.19 74.0601 567.23 74.5 568.92 74.5ZM572.47 63.91V65.9101H574.15V66.7201H572.47V68.3301H574.15V69.14H572.47V71.25H571.49V63.92H572.47V63.91Z" fill="#767676"/>
<path d="M583.88 64.6502V69.2802H578.61V64.6502H583.88ZM583.24 72.0102H579.89V71.2402H583.24V70.1202H584.23V71.2402H587.58V72.0102H584.23C584.23 73.1402 586.08 74.2502 587.97 74.4902L587.65 75.2402C585.96 75.0102 584.4 74.1902 583.74 73.1202C583.05 74.2002 581.46 75.0002 579.77 75.2402L579.43 74.4902C581.36 74.2602 583.24 73.1602 583.24 72.0102ZM582.95 68.5002V65.4302H579.56V68.5002H582.95ZM586.34 63.9102H587.31V70.4502H586.34V63.9102Z" fill="#767676"/>
<path d="M596.88 67.0002C597.04 66.5702 597.14 66.1002 597.18 65.6202H593.16V64.8302H598.19C598.19 67.7502 596.68 69.9502 593.05 71.1702L592.65 70.3902C594.6 69.7502 595.85 68.8402 596.52 67.7102L592.76 68.0002L592.6 67.1902L596.88 67.0002ZM594.58 71.5102H595.57V74.2102H602.03V75.0202H594.58V71.5102ZM600.72 67.5502V63.9102H601.7V72.3602H600.72V68.3602H598.18V67.5502H600.72Z" fill="#767676"/>
<path d="M606.11 65.9102V64.4902H607.05V65.8902C607.05 67.1802 607.91 68.4802 609.3 69.0502L608.79 69.8202C607.74 69.3602 606.98 68.5202 606.58 67.5102C606.18 68.6002 605.37 69.5602 604.27 70.0702L603.74 69.3202C605.2 68.6502 606.11 67.1802 606.11 65.9102ZM605.85 70.7102H606.82V72.0802H612.32V70.7102H613.28V75.1302H605.84V70.7102H605.85ZM612.33 74.3302V72.8502H606.83V74.3302H612.33ZM610.13 66.3102V64.1302H611.05V70.1502H610.13V67.1302H608.32V66.3102H610.13ZM612.35 63.9202H613.29V70.2202H612.35V63.9202Z" fill="#767676"/>
<path d="M621.96 66.2002H618.5V65.3902H622.92C622.92 68.2802 621.91 71.0102 618.66 72.8402L618.09 72.1302C620.74 70.6602 621.8 68.5602 621.96 66.2002ZM627.69 63.9102V75.2902H626.74V69.3202H625.15V74.7102H624.21V64.2102H625.15V68.5102H626.74V63.9102H627.69V63.9102Z" fill="#767676"/>
<path d="M630.9 64.3802V66.0402H634.21V64.3802H635.17V69.3302H629.93V64.3802H630.9ZM634.22 68.5402V66.8102H630.91V68.5402H634.22ZM631.07 70.3402H638.26V73.0702H632.06V74.3602H638.68V75.1502H631.1V72.3302H637.3V71.1202H631.07V70.3402ZM637.29 63.9102H638.27V66.3902H639.96V67.2002H638.27V69.7902H637.29V63.9102Z" fill="#767676"/>
<path d="M493.23 90.0002H498.59V90.8202H494.2V96.6301C496.41 96.6301 497.87 96.5702 499.57 96.2402L499.67 97.0702C497.9 97.4002 496.42 97.4602 494.14 97.4602H493.23V90.0002V90.0002ZM501.77 88.9102V100.3H500.79V88.9102H501.77Z" fill="#767676"/>
<path d="M510.2 90.0802V90.9002H507.65V92.4302C507.65 94.2402 508.98 96.2602 510.6 97.0302L510.04 97.8102C508.77 97.1702 507.69 95.8202 507.18 94.3002C506.66 95.9502 505.52 97.4202 504.25 98.0802L503.68 97.3102C505.27 96.5202 506.7 94.3602 506.7 92.4202V90.9002H504.07V90.0802H510.2V90.0802ZM511.6 88.9102H512.57V93.5402H514.46V94.3602H512.57V100.29H511.6V88.9102Z" fill="#767676"/>
<path d="M518.43 89.7102C520.12 89.7102 521.38 90.8502 521.38 92.5002C521.38 94.1302 520.12 95.2802 518.43 95.2802C516.75 95.2802 515.48 94.1202 515.48 92.5002C515.48 90.8602 516.75 89.7102 518.43 89.7102ZM518.43 94.4302C519.57 94.4302 520.45 93.6202 520.45 92.5102C520.45 91.3702 519.58 90.5602 518.43 90.5602C517.3 90.5602 516.43 91.3702 516.43 92.5102C516.42 93.6302 517.3 94.4302 518.43 94.4302ZM517.26 96.3802H518.22V99.2102H524.88V100.02H517.26V96.3802ZM524.52 88.9202V97.2302H523.53V88.9202H524.52Z" fill="#767676"/>
<path d="M535.43 93.7402C535.43 96.1602 534.26 97.7001 532.6 97.7001C530.94 97.7001 529.75 96.1502 529.75 93.7402C529.75 91.3302 530.93 89.7902 532.6 89.7902C534.27 89.7902 535.43 91.3302 535.43 93.7402ZM532.6 96.8401C533.73 96.8401 534.51 95.6102 534.51 93.7502C534.51 91.8902 533.73 90.6702 532.6 90.6702C531.47 90.6702 530.69 91.8902 530.69 93.7502C530.69 95.6102 531.47 96.8401 532.6 96.8401ZM537.33 88.9102H538.31V93.4902H540.2V94.3102H538.31V100.29H537.33V88.9102Z" fill="#767676"/>
<path d="M544.23 89.7901C545.91 89.7901 547.1 91.3201 547.1 93.7401C547.1 96.1601 545.9 97.7001 544.23 97.7001C542.54 97.7001 541.34 96.1501 541.34 93.7401C541.34 91.3301 542.54 89.7901 544.23 89.7901ZM544.23 96.8401C545.36 96.8401 546.17 95.6101 546.17 93.7501C546.17 91.8901 545.36 90.6701 544.23 90.6701C543.09 90.6701 542.29 91.8901 542.29 93.7501C542.29 95.6101 543.09 96.8401 544.23 96.8401ZM550.21 88.8901V100.29H549.23V88.8901H550.21Z" fill="#767676"/>
<path d="M553.03 90.0002H558.39V90.8202H554V96.6301C556.21 96.6301 557.67 96.5702 559.37 96.2402L559.47 97.0702C557.7 97.4002 556.22 97.4602 553.94 97.4602H553.03V90.0002V90.0002ZM561.57 88.9102V100.3H560.59V88.9102H561.57Z" fill="#767676"/>
<path d="M569.48 93.2801H572.03V88.9001H572.99V100.3H572.03V94.0601H569.48C569.39 96.3001 568.25 97.7101 566.67 97.7101C565.02 97.7101 563.85 96.1601 563.85 93.7501C563.85 91.3401 565.02 89.8001 566.67 89.8001C568.22 89.7901 569.33 91.1301 569.48 93.2801ZM566.67 96.8401C567.8 96.8401 568.57 95.6101 568.57 93.7501C568.57 91.8901 567.8 90.6701 566.67 90.6701C565.55 90.6701 564.77 91.8901 564.77 93.7501C564.77 95.6101 565.55 96.8401 566.67 96.8401Z" fill="#767676"/>
<path d="M586.92 89.6602V90.6502C586.92 91.7302 586.92 92.9002 586.59 94.5502H588.28V95.3702H583.61V100.31H582.62V95.3702H577.99V94.5502H585.6C585.95 92.9202 585.95 91.7202 585.95 90.6502V90.4602H579.31V89.6702H586.92V89.6602Z" fill="#767676"/>
<path d="M591.72 92.4202V91.8401H589.57V91.0302H591.72V89.3102H592.66V91.0302H594.78V91.8401H592.66V92.4202C592.66 94.2402 593.6 96.1302 595.12 96.9602L594.56 97.6902C593.44 97.0702 592.62 95.8802 592.21 94.5002C591.81 95.9702 590.99 97.2601 589.86 97.9501L589.29 97.2001C590.81 96.2901 591.72 94.2902 591.72 92.4202ZM595.79 93.4202V89.1802H596.7V99.6802H595.79V94.2202H594V93.4102H595.79V93.4202ZM598.06 88.9102H599V100.29H598.06V88.9102Z" fill="#767676"/>
<path d="M603.72 97.2102V95.9501C602.41 95.7901 601.54 95.0301 601.54 93.8801C601.54 92.6101 602.63 91.7701 604.21 91.7701C605.8 91.7701 606.89 92.6001 606.89 93.8801C606.89 95.0101 606.02 95.7901 604.71 95.9501V97.1702C605.76 97.1202 606.82 97.0402 607.8 96.9002L607.88 97.6102C605.42 98.0702 602.74 98.0802 600.77 98.0802L600.61 97.2502C601.52 97.2502 602.6 97.2502 603.72 97.2102ZM600.79 90.3002H603.72V88.9202H604.7V90.3002H607.61V91.0901H600.8V90.3002H600.79ZM604.2 95.2102C605.25 95.2102 605.95 94.6901 605.95 93.8801C605.95 93.0601 605.25 92.5302 604.2 92.5302C603.16 92.5302 602.46 93.0601 602.46 93.8801C602.46 94.6901 603.16 95.2102 604.2 95.2102ZM609.47 88.9102V93.7602H611.28V94.5901H609.47V100.28H608.49V88.9102H609.47Z" fill="#767676"/>
<path d="M739.22 64.9999H744.58V65.8199H740.19V71.6299C742.4 71.6299 743.86 71.5699 745.56 71.2399L745.66 72.0699C743.89 72.3999 742.41 72.4599 740.13 72.4599H739.22V64.9999V64.9999ZM747.76 63.9099V75.2999H746.78V63.9099H747.76Z" fill="#767676"/>
<path d="M756.18 65.0799V65.8999H753.63V67.4299C753.63 69.2399 754.96 71.2599 756.58 72.0299L756.02 72.8099C754.75 72.1699 753.67 70.8199 753.16 69.2999C752.64 70.9499 751.5 72.4199 750.24 73.0799L749.67 72.3099C751.26 71.5199 752.69 69.3599 752.69 67.4199V65.8999H750.06V65.0799H756.18V65.0799ZM757.59 63.9099H758.56V68.5399H760.44V69.3599H758.56V75.2899H757.59V63.9099Z" fill="#767676"/>
<path d="M764.41 64.7099C766.1 64.7099 767.36 65.8499 767.36 67.4999C767.36 69.1299 766.1 70.2799 764.41 70.2799C762.73 70.2799 761.46 69.1199 761.46 67.4999C761.46 65.8599 762.74 64.7099 764.41 64.7099ZM764.41 69.4299C765.55 69.4299 766.42 68.6199 766.42 67.5099C766.42 66.3699 765.55 65.5599 764.41 65.5599C763.28 65.5599 762.41 66.3699 762.41 67.5099C762.41 68.6299 763.28 69.4299 764.41 69.4299ZM763.24 71.3799H764.2V74.2099H770.86V75.0199H763.24V71.3799ZM770.51 63.9199V72.2299H769.52V63.9199H770.51Z" fill="#767676"/>
<path d="M779.53 64.9099V66.9799C779.53 69.0599 780.95 71.1499 782.58 71.9199L782 72.6999C780.71 72.0599 779.59 70.6999 779.06 69.0599C778.54 70.7899 777.41 72.2499 776.08 72.9099L775.48 72.0999C777.13 71.3099 778.55 69.1399 778.55 66.9799V64.9099H779.53ZM783.85 63.8899H784.82V75.2899H783.85V63.8899Z" fill="#767676"/>
<path d="M790.1 64.7099C791.79 64.7099 793.05 65.8499 793.05 67.4999C793.05 69.1399 791.79 70.2899 790.1 70.2899C788.41 70.2899 787.15 69.1299 787.15 67.4999C787.15 65.8599 788.41 64.7099 790.1 64.7099ZM790.1 69.4499C791.24 69.4499 792.12 68.6399 792.12 67.5099C792.12 66.3799 791.25 65.5599 790.1 65.5599C788.96 65.5599 788.1 66.3799 788.1 67.5099C788.1 68.6399 788.96 69.4499 790.1 69.4499ZM788.68 71.4399H789.64V74.2199H796.26V75.0299H788.68V71.4399ZM795.73 63.8899V67.3699H797.43V68.1799H795.73V72.2899H794.75V63.8899H795.73V63.8899Z" fill="#767676"/>
<path d="M800.63 67.1399V66.0599H798.43V65.2499H803.64V66.0599H801.57V67.1399C801.57 69.1199 802.45 71.1099 804 71.9999L803.4 72.7099C802.29 72.0299 801.5 70.7999 801.1 69.3399C800.71 70.9099 799.88 72.2599 798.73 72.9799L798.13 72.2499C799.71 71.3199 800.63 69.2399 800.63 67.1399ZM802.77 68.0199H804.69V64.1899H805.6V74.6899H804.69V68.8299H802.77V68.0199ZM807.91 63.9099V75.2899H806.97V63.9099H807.91Z" fill="#767676"/>
<path d="M816 64.7099V65.5199H813.45V66.0099C813.45 67.5399 814.58 68.9199 816.23 69.4899L815.72 70.2699C814.45 69.8099 813.46 68.8699 812.98 67.6799C812.5 68.9799 811.46 69.9899 810.13 70.4899L809.6 69.7199C811.3 69.1199 812.49 67.6499 812.49 66.0099V65.4999H809.92V64.6899H816V64.7099ZM811.1 71.3799H818.46V75.2799H817.49V72.1699H811.11V71.3799H811.1ZM817.48 63.9099H818.45V66.9399H820.15V67.7599H818.45V70.7499H817.48V63.9099Z" fill="#767676"/>
<path d="M829.87 64.6499V69.2799H824.6V64.6499H829.87ZM829.23 72.0099H825.88V71.2399H829.23V70.1199H830.22V71.2399H833.57V72.0099H830.22C830.22 73.1399 832.07 74.2499 833.96 74.4899L833.63 75.2399C831.94 75.0099 830.38 74.1899 829.72 73.1199C829.03 74.1999 827.44 74.9999 825.76 75.2399L825.42 74.4899C827.35 74.2599 829.23 73.1599 829.23 72.0099ZM828.93 68.4999V65.4299H825.54V68.4999H828.93ZM832.32 63.9099H833.29V70.4499H832.32V63.9099Z" fill="#767676"/>
<path d="M841.65 64.7899C843.33 64.7899 844.52 66.3199 844.52 68.7399C844.52 71.1599 843.32 72.6999 841.65 72.6999C839.96 72.6999 838.76 71.1499 838.76 68.7399C838.76 66.3299 839.96 64.7899 841.65 64.7899ZM841.65 71.8399C842.78 71.8399 843.59 70.6099 843.59 68.7499C843.59 66.8899 842.78 65.6699 841.65 65.6699C840.51 65.6699 839.71 66.8899 839.71 68.7499C839.71 70.6099 840.5 71.8399 841.65 71.8399ZM847.63 63.8899V75.2899H846.65V63.8899H847.63V63.8899Z" fill="#767676"/>
<path d="M855.56 65.0299V72.4099H850.36V65.0299H855.56ZM854.62 71.6199V65.8199H851.32V71.6199H854.62ZM858.01 63.8899H858.98V75.2899H858.01V63.8899Z" fill="#767676"/>
<path d="M867.77 65.0799V65.8999H865.07V67.4299C865.07 69.3699 866.5 71.3199 868.14 72.0299L867.58 72.8099C866.28 72.1999 865.12 70.8699 864.59 69.2999C864.07 70.9799 862.93 72.4299 861.63 73.0799L861.07 72.3099C862.67 71.5299 864.1 69.3799 864.1 67.4199V65.8999H861.42V65.0799H867.77V65.0799ZM869.36 63.9099H870.34V75.2899H869.36V63.9099Z" fill="#767676"/>
<path d="M881.35 64.6599V65.6499C881.35 66.7299 881.35 67.8999 881.02 69.5499H882.71V70.3699H878.04V75.3099H877.05V70.3699H872.42V69.5499H880.03C880.38 67.9199 880.38 66.7199 880.38 65.6499V65.4599H873.74V64.6699H881.35V64.6599Z" fill="#767676"/>
<path d="M887.64 64.5599V65.6999C887.64 67.3299 888.8 68.7499 890.43 69.3299L889.9 70.0999C888.65 69.6299 887.68 68.6999 887.18 67.4899C886.7 68.8699 885.66 69.9199 884.29 70.4399L883.78 69.6499C885.48 69.0299 886.67 67.5199 886.67 65.7499V64.5699H887.64V64.5599ZM889.39 70.9799C891.73 70.9799 893.16 71.7699 893.16 73.1199C893.16 74.4899 891.73 75.2499 889.39 75.2499C887.04 75.2499 885.59 74.4799 885.59 73.1199C885.6 71.7699 887.04 70.9799 889.39 70.9799ZM889.39 74.4899C891.12 74.4899 892.2 73.9699 892.2 73.1199C892.2 72.2599 891.12 71.7499 889.39 71.7499C887.64 71.7499 886.58 72.2599 886.58 73.1199C886.59 73.9699 887.64 74.4899 889.39 74.4899ZM889.61 66.3499H892.13V63.9099H893.11V70.6399H892.13V67.1699H889.61V66.3499Z" fill="#767676"/>
<path d="M742.46 89.9099V91.9799C742.46 94.0599 743.88 96.1499 745.52 96.9199L744.94 97.6999C743.65 97.0599 742.53 95.6999 742 94.0599C741.48 95.7899 740.35 97.2499 739.02 97.9099L738.42 97.0999C740.07 96.3099 741.49 94.1399 741.49 91.9799V89.9099H742.46V89.9099ZM746.77 88.8899H747.75V100.29H746.77V88.8899Z" fill="#767676"/>
<path d="M753.02 89.7099C754.71 89.7099 755.97 90.8499 755.97 92.4999C755.97 94.1399 754.71 95.2899 753.02 95.2899C751.33 95.2899 750.07 94.1299 750.07 92.4999C750.07 90.8599 751.33 89.7099 753.02 89.7099ZM753.02 94.4499C754.16 94.4499 755.03 93.6399 755.03 92.5099C755.03 91.3799 754.16 90.5599 753.02 90.5599C751.88 90.5599 751.02 91.3799 751.02 92.5099C751.02 93.6399 751.88 94.4499 753.02 94.4499ZM751.61 96.4399H752.57V99.2199H759.19V100.03H751.61V96.4399ZM758.65 88.8899V92.3699H760.35V93.1799H758.65V97.2899H757.68V88.8899H758.65Z" fill="#767676"/>
<path d="M763.55 92.1399V91.0599H761.35V90.2499H766.56V91.0599H764.49V92.1399C764.49 94.1199 765.37 96.1099 766.92 96.9999L766.32 97.7099C765.22 97.0299 764.42 95.7999 764.02 94.3399C763.63 95.9099 762.8 97.2599 761.65 97.9799L761.05 97.2499C762.63 96.3199 763.55 94.2399 763.55 92.1399ZM765.7 93.0199H767.62V89.1899H768.53V99.6899H767.62V93.8299H765.7V93.0199ZM770.83 88.9099V100.29H769.89V88.9099H770.83Z" fill="#767676"/>
<path d="M776.54 89.9099V91.9799C776.54 94.0599 777.96 96.1499 779.6 96.9199L779.02 97.6999C777.73 97.0599 776.61 95.6999 776.08 94.0599C775.56 95.7899 774.43 97.2499 773.1 97.9099L772.5 97.0999C774.15 96.3099 775.57 94.1399 775.57 91.9799V89.9099H776.54V89.9099ZM780.86 88.8899H781.84V100.29H780.86V88.8899Z" fill="#767676"/>
<path d="M792.79 89.6499V94.2799H787.52V89.6499H792.79ZM792.15 97.0099H788.8V96.2399H792.15V95.1199H793.14V96.2399H796.49V97.0099H793.14C793.14 98.1399 794.99 99.2499 796.88 99.4899L796.56 100.24C794.87 100.01 793.31 99.1899 792.65 98.1199C791.96 99.1999 790.37 99.9999 788.68 100.24L788.34 99.4899C790.27 99.2599 792.15 98.1599 792.15 97.0099ZM791.86 93.4999V90.4299H788.47V93.4999H791.86ZM795.25 88.9099H796.23V95.4499H795.25V88.9099Z" fill="#767676"/>
<path d="M804.14 91.0099V89.5799H805.1V91.0399C805.1 92.6499 806.27 94.1499 807.88 94.7599L807.36 95.5099C806.11 95.0199 805.12 94.0099 804.64 92.7699C804.16 94.1499 803.12 95.2399 801.78 95.7899L801.28 94.9999C802.94 94.3699 804.14 92.7699 804.14 91.0099ZM803.31 96.4699H804.29V99.2099H810.88V100.02H803.31V96.4699ZM809.63 91.6099V88.9199H810.61V97.4399H809.63V92.4299H807.11V91.6099H809.63Z" fill="#767676"/>
<path d="M812.63 98.1098H817.28V96.4798C815.28 96.3798 814.06 95.5998 814.06 94.3198C814.06 92.9698 815.48 92.1698 817.77 92.1698C820.06 92.1698 821.48 92.9598 821.48 94.3198C821.48 95.5898 820.27 96.3698 818.27 96.4798V98.1098H822.95V98.9198H812.64V98.1098H812.63ZM817.28 90.5798V89.0798H818.25V90.5798H822.36V91.3898H813.14V90.5798H817.28ZM817.76 95.7198C819.44 95.7198 820.48 95.1998 820.48 94.3298C820.48 93.4698 819.44 92.9498 817.76 92.9498C816.07 92.9498 815.03 93.4698 815.03 94.3298C815.03 95.1998 816.07 95.7198 817.76 95.7198Z" fill="#767676"/>
<path d="M832.97 89.8198V90.6298H826.29V94.2398H833.1V95.0498H829.6V98.0098H834.29V98.8298H823.98V98.0098H828.63V95.0498H825.3V89.8198H832.97Z" fill="#767676"/>
<path d="M843.01 97.98V95.21H843.98V97.98H848.65V98.8H838.34V97.98H843.01ZM842.98 91.07V90.77H839.2V89.96H847.78V90.77H844V91.07C844 92.9 846.26 94.48 848.17 94.79L847.77 95.56C846.07 95.22 844.23 94.1 843.51 92.54C842.77 94.11 840.95 95.24 839.27 95.59L838.87 94.82C840.75 94.5 842.98 92.9 842.98 91.07Z" fill="#767676"/>
<path d="M853.48 89.9099V91.9799C853.48 93.9799 854.81 96.0599 856.4 96.8599L855.8 97.6299C854.56 96.9799 853.51 95.6299 853.02 94.0299C852.51 95.7199 851.43 97.1799 850.16 97.8699L849.56 97.0799C851.19 96.2599 852.52 94.0799 852.52 91.9999V89.9299H853.48V89.9099ZM857.45 88.9099H858.42V93.5399H860.32V94.3699H858.42V100.29H857.45V88.9099Z" fill="#767676"/>
<path d="M869.93 89.6499V94.2799H864.66V89.6499H869.93ZM869.3 97.0099H865.95V96.2399H869.3V95.1199H870.29V96.2399H873.64V97.0099H870.29C870.29 98.1399 872.14 99.2499 874.03 99.4899L873.7 100.24C872.01 100.01 870.45 99.1899 869.79 98.1199C869.1 99.1999 867.51 99.9999 865.83 100.24L865.49 99.4899C867.41 99.2599 869.3 98.1599 869.3 97.0099ZM869 93.4999V90.4299H865.61V93.4999H869ZM872.39 88.9099H873.36V95.4499H872.39V88.9099Z" fill="#767676"/>
<path d="M878.93 95.4699L878.53 94.6999C881.25 93.9299 882.98 92.4099 883.17 90.4399H879.11V89.6499H884.22C884.22 92.4999 882.19 94.5399 878.93 95.4699ZM880.42 95.8899H887.74V100.12H880.42V95.8899ZM886.78 99.3199V96.6799H881.37V99.3199H886.78ZM884.23 91.8599H886.77V88.9099H887.74V95.4099H886.77V92.6799H884.23V91.8599Z" fill="#767676"/>
<path d="M900.039 94.34V95.13H889.77V94.34H900.039ZM894.28 90.3H890.719V89.49H899.12V90.3H895.539C895.569 91.63 897.479 92.63 899.469 92.85L899.109 93.63C897.279 93.4 895.529 92.56 894.919 91.3C894.299 92.57 892.549 93.39 890.719 93.63L890.359 92.85C892.329 92.63 894.26 91.63 894.28 90.3ZM894.909 96.16C897.329 96.16 898.799 96.91 898.799 98.21C898.799 99.51 897.329 100.26 894.909 100.26C892.479 100.26 891.02 99.51 891.02 98.21C891.02 96.92 892.469 96.16 894.909 96.16ZM894.909 99.49C896.719 99.49 897.81 99.02 897.81 98.22C897.81 97.41 896.719 96.95 894.909 96.95C893.089 96.95 892 97.42 892 98.22C891.99 99.02 893.089 99.49 894.909 99.49Z" fill="#767676"/>
<path d="M985.2 69.7399H990.56V70.5599H986.17V76.3699C988.38 76.3699 989.84 76.2999 991.54 75.9799L991.64 76.8099C989.87 77.1399 988.39 77.1999 986.11 77.1999H985.2V69.7399V69.7399ZM993.75 68.6499V80.0399H992.77V68.6499H993.75Z" fill="#767676"/>
<path d="M1002.17 69.8199V70.6399H999.62V72.1699C999.62 73.9799 1000.95 75.9999 1002.57 76.7699L1002.01 77.5499C1000.74 76.9099 999.66 75.5599 999.15 74.0399C998.63 75.6899 997.49 77.1599 996.22 77.8199L995.65 77.0499C997.24 76.2599 998.67 74.0999 998.67 72.1599V70.6299H996.04V69.8099H1002.17V69.8199ZM1003.57 68.6499H1004.54V73.2799H1006.43V74.0999H1004.54V80.0299H1003.57V68.6499Z" fill="#767676"/>
<path d="M1010.4 69.4599C1012.09 69.4599 1013.35 70.5999 1013.35 72.2499C1013.35 73.8799 1012.09 75.0299 1010.4 75.0299C1008.72 75.0299 1007.45 73.8699 1007.45 72.2499C1007.45 70.5999 1008.72 69.4599 1010.4 69.4599ZM1010.4 74.1699C1011.54 74.1699 1012.42 73.3599 1012.42 72.2499C1012.42 71.1099 1011.55 70.2999 1010.4 70.2999C1009.27 70.2999 1008.4 71.1099 1008.4 72.2499C1008.4 73.3699 1009.27 74.1699 1010.4 74.1699ZM1009.23 76.1199H1010.19V78.9499H1016.85V79.7599H1009.23V76.1199ZM1016.5 68.6599V76.9699H1015.51V68.6599H1016.5Z" fill="#767676"/>
<path d="M1026.06 71.7399C1026.22 71.3099 1026.32 70.8399 1026.36 70.3599H1022.34V69.5699H1027.37C1027.37 72.4999 1025.86 74.6899 1022.23 75.9099L1021.83 75.1299C1023.78 74.4899 1025.03 73.5799 1025.7 72.4499L1021.93 72.7399L1021.77 71.9299L1026.06 71.7399ZM1023.76 76.2499H1024.75V78.9499H1031.21V79.7599H1023.76V76.2499ZM1029.9 72.2899V68.6499H1030.88V77.0999H1029.9V73.0999H1027.36V72.2899H1029.9Z" fill="#767676"/>
<path d="M1035.76 70.0899V68.9999H1036.71V70.0899C1036.71 71.5899 1037.91 72.9799 1039.52 73.5199L1039.01 74.2699C1037.76 73.8199 1036.76 72.9099 1036.25 71.7599C1035.78 73.0499 1034.74 74.0499 1033.42 74.5299L1032.9 73.7599C1034.59 73.1999 1035.76 71.7699 1035.76 70.0899ZM1034.94 75.1199H1042.23V77.8099H1035.91V79.0799H1042.66V79.8599H1034.95V77.0699H1041.27V75.8999H1034.94V75.1199ZM1041.26 70.7499V68.6399H1042.24V74.5199H1041.26V71.5599H1038.74V70.7499H1041.26Z" fill="#767676"/>
<path d="M1050.32 69.4899V70.2699H1045.89V71.7499H1050.01V72.5299H1045.89V74.0799C1048.31 74.0799 1049.67 74.0299 1051.26 73.7499L1051.36 74.5399C1049.71 74.8099 1048.33 74.8699 1045.84 74.8699H1044.93V69.4899H1050.32V69.4899ZM1049.81 75.8799C1052.18 75.8799 1053.62 76.6299 1053.62 77.9299C1053.62 79.2599 1052.18 79.9999 1049.81 79.9999C1047.44 79.9999 1046 79.2599 1046 77.9299C1046 76.6299 1047.45 75.8799 1049.81 75.8799ZM1049.81 79.2299C1051.56 79.2299 1052.64 78.7499 1052.64 77.9299C1052.64 77.1399 1051.56 76.6399 1049.81 76.6399C1048.04 76.6399 1046.98 77.1299 1046.98 77.9299C1046.98 78.7499 1048.05 79.2299 1049.81 79.2299ZM1052.58 68.6599H1053.57V75.7099H1052.58V68.6599Z" fill="#767676"/>
<path d="M1063.44 70.6799H1059.23V69.8699H1064.43C1064.43 73.0799 1062.92 76.0099 1059.26 77.8399L1058.71 77.0899C1061.63 75.6199 1063.22 73.3799 1063.44 70.6799ZM1067.35 68.6399V73.2899H1069.18V74.1099H1067.35V80.0299H1066.36V68.6399H1067.35Z" fill="#767676"/>
<path d="M1073.28 69.5299C1074.96 69.5299 1076.15 71.0599 1076.15 73.4799C1076.15 75.8999 1074.95 77.4499 1073.28 77.4499C1071.59 77.4499 1070.39 75.8999 1070.39 73.4799C1070.39 71.0699 1071.59 69.5299 1073.28 69.5299ZM1073.28 76.5799C1074.41 76.5799 1075.22 75.3399 1075.22 73.4899C1075.22 71.6299 1074.41 70.4099 1073.28 70.4099C1072.14 70.4099 1071.34 71.6299 1071.34 73.4899C1071.34 75.3399 1072.13 76.5799 1073.28 76.5799ZM1079.26 68.6399V80.0399H1078.28V68.6399H1079.26Z" fill="#767676"/>
<path d="M1081.34 77.64H1091.65V78.45H1081.34V77.64ZM1090.32 69.7V70.51H1083.62V74.12H1090.45V74.91H1082.66V69.7H1090.32Z" fill="#767676"/>
<path d="M1102.97 74.2299V75.0399H1098.32V76.3999H1101.7V80.0299H1100.74V77.1999H1093.85V76.3999H1097.35V75.0399H1092.71V74.2299H1102.97ZM1094.08 68.9199H1095.04V70.2299H1100.66V68.9199H1101.63V73.1399H1094.08V68.9199ZM1100.66 72.3699V70.9999H1095.04V72.3699H1100.66Z" fill="#767676"/>
<path d="M1106.42 71.8899V70.8099H1104.22V69.9999H1109.43V70.8099H1107.36V71.8899C1107.36 73.8699 1108.24 75.8499 1109.79 76.7499L1109.19 77.4599C1108.09 76.7799 1107.29 75.5499 1106.89 74.0899C1106.5 75.6599 1105.67 77.0099 1104.52 77.7299L1103.92 76.9999C1105.49 76.0599 1106.42 73.9799 1106.42 71.8899ZM1108.56 72.7599H1110.48V68.9299H1111.39V79.4299H1110.48V73.5699H1108.56V72.7599ZM1113.7 68.6499V80.0299H1112.76V68.6499H1113.7Z" fill="#767676"/>
<path d="M1121.78 69.4599V70.2699H1119.23V70.7599C1119.23 72.2899 1120.36 73.6699 1122.01 74.2399L1121.5 75.0199C1120.23 74.5599 1119.24 73.6199 1118.76 72.4299C1118.28 73.7299 1117.24 74.7399 1115.91 75.2399L1115.38 74.4699C1117.08 73.8699 1118.27 72.3999 1118.27 70.7599V70.2499H1115.7V69.4399H1121.78V69.4599ZM1116.88 76.1199H1124.24V80.0199H1123.26V76.9099H1116.88V76.1199V76.1199ZM1123.26 68.6499H1124.24V71.6799H1125.94V72.4999H1124.24V75.4899H1123.26V68.6499Z" fill="#767676"/>
<path d="M993.8 93.6499V99.4599H992.82V98.2599H989.79V97.4799H992.82V96.0899H989.96C989.27 97.8799 987.5 99.1099 984.99 99.7199L984.65 98.9299C987.42 98.2699 989.04 96.8799 989.23 95.0299H985.23V94.2199H990.3C990.3 94.6099 990.26 94.9699 990.2 95.3199H992.83V93.6399H993.8V93.6499ZM986.5 99.9899H993.79V102.75H987.48V104.13H994.18V104.91H986.52V102H992.81V100.79H986.49V99.9899H986.5Z" fill="#767676"/>
<path d="M998.15 101.67V98.1599H999.11V101.64C1000.37 101.59 1001.66 101.51 1002.83 101.37L1002.88 102.08C1000.51 102.46 997.85 102.51 995.83 102.51L995.7 101.69C996.45 101.7 997.28 101.68 998.15 101.67ZM1002.07 94.8999V95.4799C1002.07 96.3899 1002.07 97.8899 1001.74 100.02L1000.78 99.9399C1001.09 98.0199 1001.12 96.6099 1001.12 95.6999H996.35V94.8999H1002.07ZM1003.55 93.6499H1004.51V98.4299H1006.37V99.2499H1004.51V105.02H1003.55V93.6499Z" fill="#767676"/>
<path d="M1017.46 98.4798V99.2698H1012.81V100.41H1016.14V102.92H1009.43V104.12H1016.49V104.89H1008.48V102.21H1015.19V101.17H1008.44V100.42H1011.83V99.2798H1007.19V98.4898H1017.46V98.4798ZM1008.54 94.0398H1016.12V97.4798H1008.54V94.0398ZM1015.17 96.6998V94.8098H1009.49V96.6998H1015.17Z" fill="#767676"/>
<path d="M1022.11 94.1799H1023.09V98.1799C1024.7 98.1799 1026.38 98.0599 1028.21 97.6899L1028.33 98.4999C1026.41 98.8899 1024.7 99.0199 1023.01 99.0199H1022.11V94.1799V94.1799ZM1023.22 100.17H1024.18V101.72H1029.41V100.17H1030.37V104.86H1023.22V100.17V100.17ZM1029.4 104.08V102.52H1024.17V104.08H1029.4ZM1030.37 93.6499V96.2099H1032.07V97.0299H1030.37V99.5699H1029.39V93.6499H1030.37Z" fill="#767676"/>
<path d="M1043.17 99.1598V99.9498H1038.52V101.33H1041.91V104.87H1034.17V101.33H1037.55V99.9498H1032.9V99.1598H1043.17ZM1033.86 94.0298H1042.18V94.8198H1040.44V97.2798H1042.14V98.0698H1033.9V97.2798H1035.6V94.8198H1033.86V94.0298ZM1040.96 104.08V102.12H1035.12V104.08H1040.96ZM1039.48 97.2798V94.8198H1036.59V97.2798H1039.48Z" fill="#767676"/>
<path d="M3.75 40.5C5.82107 40.5 7.5 38.8211 7.5 36.75C7.5 34.6789 5.82107 33 3.75 33C1.67893 33 0 34.6789 0 36.75C0 38.8211 1.67893 40.5 3.75 40.5Z" fill="#567CDA"/>
<path d="M249.74 40.5C251.811 40.5 253.49 38.8211 253.49 36.75C253.49 34.6789 251.811 33 249.74 33C247.669 33 245.99 34.6789 245.99 36.75C245.99 38.8211 247.669 40.5 249.74 40.5Z" fill="#567CDA"/>
<path d="M495.72 40.5C497.791 40.5 499.47 38.8211 499.47 36.75C499.47 34.6789 497.791 33 495.72 33C493.649 33 491.97 34.6789 491.97 36.75C491.97 38.8211 493.649 40.5 495.72 40.5Z" fill="#567CDA"/>
<path d="M741.71 40.5C743.781 40.5 745.46 38.8211 745.46 36.75C745.46 34.6789 743.781 33 741.71 33C739.639 33 737.96 34.6789 737.96 36.75C737.96 38.8211 739.639 40.5 741.71 40.5Z" fill="#567CDA"/>
<path d="M987.69 40.5C989.761 40.5 991.44 38.8211 991.44 36.75C991.44 34.6789 989.761 33 987.69 33C985.619 33 983.94 34.6789 983.94 36.75C983.94 38.8211 985.619 40.5 987.69 40.5Z" fill="#567CDA"/>
</g>
<defs>
<clipPath id="clip0_166_1217">
<rect width="1411.88" height="105.02" fill="white"/>
</clipPath>
</defs>
</svg>
