<?xml version="1.0" encoding="utf-8"?>
<!-- Generator: Adobe Illustrator 24.1.2, SVG Export Plug-In . SVG Version: 6.00 Build 0)  -->
<svg version="1.1" id="레이어_1" xmlns="http://www.w3.org/2000/svg" xmlns:xlink="http://www.w3.org/1999/xlink" x="0px"
	 y="0px" viewBox="0 0 635.76 129.98" style="enable-background:new 0 0 635.76 129.98;" xml:space="preserve">
<style type="text/css">
	.st0{fill-rule:evenodd;clip-rule:evenodd;}
	.st1{fill-rule:evenodd;clip-rule:evenodd;fill:#010305;}
</style>
<g>
	<path class="st0" d="M-422.98,66.05c0.42,0.16,18.95,19.28,20.3,20.69l31.39,32.43c0.73,0.76,1.52,1.45,2.26,2.22
		c2.83,3.01,6.08,6.27,8.94,9.3l4.5,4.61c1.2,1.27,0.72,1.32,3.05,1.37c1.48,0.02,3.01,0.09,4.47,0.06v-106l-18.53,0.03l-0.01,68.87
		c-0.85-0.54-3.75-3.66-4.64-4.57c-2.61-2.69-11.27-11.75-13.28-13.54c-1.84-1.65-6.29-6.53-8.87-9.05l-8.84-9.02
		c-1.55-1.58-2.95-3.07-4.49-4.65l-22.15-22.56c-1.49-1.57-2.88-3-4.38-4.56c-1.29-1.33-0.94-1.22-3.36-1.21
		c-1.51,0-3.03-0.01-4.54,0.01l0.04,105.71h18.15V66.05L-422.98,66.05z"/>
	<path class="st0" d="M-761.47,118.27c-1.07-0.91-4.33-4.61-5.43-5.9c-0.92-1.06-1.8-1.88-2.74-2.93c-0.6-0.65-2.23-2.66-2.84-3.02
		l-3.71,3.71c-3.16,3.16-9.28,6.87-13.69,8.65c-7.75,3.13-16.74,4.31-25.54,1.88c-33.64-9.28-33.23-59.61-4.43-72.44
		c7.56-3.36,16.95-3.89,25.3-1.23c5.92,1.89,11.9,5.73,16.12,10.02c0.62,0.62,1.17,1.31,1.84,1.98c0.86-0.37,3.55-3.15,4.56-4.06
		c1.45-1.25,6.87-6.42,7.68-6.91c-0.73-2.48-8.32-8.66-10.98-10.47c-4.19-2.82-8.89-5.29-14.48-7c-12.16-3.7-25.61-2.71-36.57,2.01
		c-18.61,8-33.1,25.89-32.91,52.89c0.19,29.05,20.07,48.07,43.78,52.68c4.17,0.81,16.09,0.97,20.26,0.25
		c9.54-1.69,18.66-6.01,25.8-11.89C-767.51,124.85-761.96,119.89-761.47,118.27L-761.47,118.27z"/>
	<path class="st0" d="M-229.57,136.15l-0.02-16.24l-41.39-0.06l-0.04-32.17c0.01-1.04-0.03-0.23,0.24-0.55l30.11-0.01l0.04-16.6
		l-30.3-0.06l0-22.97l36.72-0.09l0.09-16.45h-54.11v105.27C-286.94,136.24-231.29,136.46-229.57,136.15L-229.57,136.15z"/>
	<path class="st0" d="M-702.32,87.22c0.61-0.45,13.05-0.22,14.78-0.22h15.48V70.56h-30.27c-0.44-1.24-0.12-17.6-0.18-21.76
		c-0.03-2.15,0.06-1.21,0.34-1.45l36.66,0.06l0.1-16.47h-54.12l0.01,105.31l58.57,0l-0.01-16.06c0,0,0.39-0.27-0.95-0.29
		l-19.61,0.01c-2.96,0-19.36,0.22-20.79-0.09L-702.32,87.22L-702.32,87.22z"/>
	<polygon class="st0" points="-611.85,136.32 -558.5,136.32 -558.53,119.16 -594.6,119.09 -594.6,30.83 -611.9,30.84 
		-611.85,136.32 	"/>
	<polygon class="st0" points="-517.82,136.32 -501.16,136.3 -501.16,30.83 -517.89,30.83 -517.82,136.32 	"/>
	<path class="st0" d="M-708.37,10.96l6.85,8.95l26.83-15.76l-4.2-5.97c-0.71-1-1.36-1.91-2.07-2.91c-0.66-0.94-1.47-2.21-2.16-2.97
		l-22.12,16.28C-706.11,9.24-707.61,10.19-708.37,10.96L-708.37,10.96z"/>
	<path class="st0" d="M-702.16,87.21l-0.15,0.01l0.01,32.61c1.43,0.31,17.83,0.09,20.79,0.09l19.61-0.01
		c1.34,0.03,0.95,0.29,0.95,0.29l0.01,16.06l-58.57,0l-0.01-105.31h54.12l-0.1,16.47c0.28-0.26,0.26,0.37,0.28-0.67l-0.07-15.9
		c-0.59-0.17-53.02-0.29-54.4-0.02l0.04,105.49c1.17,0.35,39.43,0.13,44.14,0.13c4.61,0,10.18,0.28,14.67-0.04
		c0.24-1.17,0.24-15.61-0.01-16.56c-0.93-0.32-36.89-0.05-41.33-0.11L-702.16,87.21L-702.16,87.21z"/>
	<path class="st0" d="M-229.57,136.15c-1.72,0.31-57.37,0.09-58.66,0.08V30.97h54.11l-0.09,16.45c0.32-0.29,0.29,0.25,0.29-0.84
		V30.84l-54.38-0.07c-0.32,1.47-0.11,88.68-0.11,98.88c0,1.92-0.17,4.89,0.07,6.68c1.8,0.3,48.98-0.02,57.06,0.07
		c0.23,0,0.64,0.03,0.87,0.02C-229.59,136.37-229.72,136.3-229.57,136.15L-229.57,136.15z"/>
	<path class="st0" d="M-702.32,87.22l0.15-0.01l30.23-0.02l0.06-16.72l-30.29-0.08l-0.01-23.05c-0.28,0.24-0.37-0.7-0.34,1.45
		c0.06,4.17-0.26,20.52,0.18,21.76h30.27V87h-15.48C-689.26,87-701.7,86.77-702.32,87.22L-702.32,87.22z"/>
	<path class="st0" d="M-229.59,119.91c-0.27-0.27,0.25-0.11-0.51-0.23l-2.07,0.01c-12.62,0-26.32,0.2-38.68-0.01l0.06-32.54
		c-0.27,0.32-0.23-0.5-0.24,0.55l0.04,32.17L-229.59,119.91L-229.59,119.91z"/>
</g>
<path class="st1" d="M574.92,106.6V69.98h40.15V51.28h-40.15V22.25h49.79V3.54h-70.35V125.3h75.48v-18.7H574.92z M518.4,129.98
	l0.16-126.59H498l0.32,80.14L408.07,0l-0.16,125.29h20.56l-0.33-77.08C428.14,48.22,518.4,129.98,518.4,129.98z M371.92,125.29
	l0.01-121.91h-20.55l-0.02,121.91L371.92,125.29z M254.22,125.3h71.47v-18.7h-50.91V3.38h-20.56
	C254.22,3.38,254.22,125.3,254.22,125.3z M147.9,125.3h75.48v-18.7h-54.93V69.98h40.15V51.28h-40.15V22.25h49.79V3.54H147.9
	C147.9,3.54,147.9,125.3,147.9,125.3z M27.76,63.7c0-23.23,16.06-44.35,43.36-44.35c12.53,0,24.89,4.52,33.41,12.9l10.92-14.35
	c-4.01-4.84-19.43-17.25-44.32-17.25c-38.54,0-65.2,29.35-65.2,63.54c0,35,28.1,64.02,67.45,64.02c17.34,0,31.8-5.64,42.88-16.29
	l-9.48-13.39c-4.82,4.84-17.18,11.13-32.44,11.13C46.87,109.66,27.76,89.18,27.76,63.7z"/>
</svg>
