<?xml version="1.0" encoding="utf-8"?>
<!-- Generator: Adobe Illustrator 24.1.2, SVG Export Plug-In . SVG Version: 6.00 Build 0)  -->
<svg version="1.1" id="레이어_1" xmlns="http://www.w3.org/2000/svg" xmlns:xlink="http://www.w3.org/1999/xlink" x="0px"
	 y="0px" viewBox="0 0 635.8 130" style="enable-background:new 0 0 635.8 130;" xml:space="preserve">
<style type="text/css">
	.st0{fill-rule:evenodd;clip-rule:evenodd;}
	.st1{fill-rule:evenodd;clip-rule:evenodd;fill:#FFFFFF;}
</style>
<g>
	<path class="st0" d="M-423,66.1c0.4,0.2,19,19.3,20.3,20.7l31.4,32.4c0.7,0.8,1.5,1.4,2.3,2.2c2.8,3,6.1,6.3,8.9,9.3l4.5,4.6
		c1.2,1.3,0.7,1.3,3,1.4c1.5,0,3,0.1,4.5,0.1v-106l-18.5,0l0,68.9c-0.9-0.5-3.8-3.7-4.6-4.6c-2.6-2.7-11.3-11.8-13.3-13.5
		c-1.8-1.7-6.3-6.5-8.9-9.1l-8.8-9c-1.5-1.6-3-3.1-4.5-4.7l-22.1-22.6c-1.5-1.6-2.9-3-4.4-4.6c-1.3-1.3-0.9-1.2-3.4-1.2
		c-1.5,0-3,0-4.5,0l0,105.7h18.1L-423,66.1L-423,66.1z"/>
	<path class="st0" d="M-761.5,118.3c-1.1-0.9-4.3-4.6-5.4-5.9c-0.9-1.1-1.8-1.9-2.7-2.9c-0.6-0.7-2.2-2.7-2.8-3l-3.7,3.7
		c-3.2,3.2-9.3,6.9-13.7,8.7c-7.8,3.1-16.7,4.3-25.5,1.9c-33.6-9.3-33.2-59.6-4.4-72.4c7.6-3.4,17-3.9,25.3-1.2
		c5.9,1.9,11.9,5.7,16.1,10c0.6,0.6,1.2,1.3,1.8,2c0.9-0.4,3.5-3.2,4.6-4.1c1.5-1.3,6.9-6.4,7.7-6.9c-0.7-2.5-8.3-8.7-11-10.5
		c-4.2-2.8-8.9-5.3-14.5-7c-12.2-3.7-25.6-2.7-36.6,2c-18.6,8-33.1,25.9-32.9,52.9c0.2,29,20.1,48.1,43.8,52.7
		c4.2,0.8,16.1,1,20.3,0.3c9.5-1.7,18.7-6,25.8-11.9C-767.5,124.8-762,119.9-761.5,118.3L-761.5,118.3z"/>
	<path class="st0" d="M-229.6,136.1l0-16.2l-41.4-0.1l0-32.2c0-1,0-0.2,0.2-0.6l30.1,0l0-16.6l-30.3-0.1v-23l36.7-0.1l0.1-16.5
		h-54.1v105.3C-286.9,136.2-231.3,136.5-229.6,136.1L-229.6,136.1z"/>
	<path class="st0" d="M-702.3,87.2c0.6-0.4,13-0.2,14.8-0.2h15.5V70.6h-30.3c-0.4-1.2-0.1-17.6-0.2-21.8c0-2.2,0.1-1.2,0.3-1.5
		l36.7,0.1l0.1-16.5h-54.1l0,105.3h58.6l0-16.1c0,0,0.4-0.3-1-0.3l-19.6,0c-3,0-19.4,0.2-20.8-0.1L-702.3,87.2L-702.3,87.2z"/>
	<polygon class="st0" points="-611.8,136.3 -558.5,136.3 -558.5,119.2 -594.6,119.1 -594.6,30.8 -611.9,30.8 	"/>
	<polygon class="st0" points="-517.8,136.3 -501.2,136.3 -501.2,30.8 -517.9,30.8 	"/>
	<path class="st0" d="M-708.4,11l6.8,8.9l26.8-15.8l-4.2-6c-0.7-1-1.4-1.9-2.1-2.9c-0.7-0.9-1.5-2.2-2.2-3l-22.1,16.3
		C-706.1,9.2-707.6,10.2-708.4,11L-708.4,11z"/>
	<path class="st0" d="M-702.2,87.2l-0.2,0l0,32.6c1.4,0.3,17.8,0.1,20.8,0.1l19.6,0c1.3,0,1,0.3,1,0.3l0,16.1h-58.6l0-105.3h54.1
		l-0.1,16.5c0.3-0.3,0.3,0.4,0.3-0.7l-0.1-15.9c-0.6-0.2-53-0.3-54.4,0l0,105.5c1.2,0.4,39.4,0.1,44.1,0.1c4.6,0,10.2,0.3,14.7,0
		c0.2-1.2,0.2-15.6,0-16.6c-0.9-0.3-36.9-0.1-41.3-0.1L-702.2,87.2L-702.2,87.2z"/>
	<path class="st0" d="M-229.6,136.1c-1.7,0.3-57.4,0.1-58.7,0.1V31h54.1l-0.1,16.4c0.3-0.3,0.3,0.3,0.3-0.8V30.8l-54.4-0.1
		c-0.3,1.5-0.1,88.7-0.1,98.9c0,1.9-0.2,4.9,0.1,6.7c1.8,0.3,49,0,57.1,0.1c0.2,0,0.6,0,0.9,0C-229.6,136.4-229.7,136.3-229.6,136.1
		L-229.6,136.1z"/>
	<path class="st0" d="M-702.3,87.2l0.2,0l30.2,0l0.1-16.7l-30.3-0.1l0-23c-0.3,0.2-0.4-0.7-0.3,1.5c0.1,4.2-0.3,20.5,0.2,21.8h30.3
		V87h-15.5C-689.3,87-701.7,86.8-702.3,87.2L-702.3,87.2z"/>
	<path class="st0" d="M-229.6,119.9c-0.3-0.3,0.3-0.1-0.5-0.2l-2.1,0c-12.6,0-26.3,0.2-38.7,0l0.1-32.5c-0.3,0.3-0.2-0.5-0.2,0.6
		l0,32.2L-229.6,119.9L-229.6,119.9z"/>
</g>
<path class="st1" d="M574.9,106.6V70h40.2V51.3h-40.2v-29h49.8V3.5h-70.3v121.8h75.5v-18.7C629.8,106.6,574.9,106.6,574.9,106.6z
	 M518.4,130l0.2-126.6H498l0.3,80.1L408.1,0l-0.2,125.3h20.6l-0.3-77.1C428.1,48.2,518.4,130,518.4,130z M371.9,125.3l0-121.9h-20.5
	l0,121.9H371.9z M254.2,125.3h71.5v-18.7h-50.9V3.4h-20.6V125.3z M147.9,125.3h75.5v-18.7h-54.9V70h40.1V51.3h-40.1v-29h49.8V3.5
	h-70.3V125.3z M27.8,63.7c0-23.2,16.1-44.3,43.4-44.3c12.5,0,24.9,4.5,33.4,12.9l10.9-14.4c-4-4.8-19.4-17.3-44.3-17.3
	C32.6,0.6,5.9,30,5.9,64.2c0,35,28.1,64,67.4,64c17.3,0,31.8-5.6,42.9-16.3l-9.5-13.4c-4.8,4.8-17.2,11.1-32.4,11.1
	C46.9,109.7,27.8,89.2,27.8,63.7z"/>
</svg>
