<svg width="159" height="41" viewBox="0 0 159 41" fill="none" xmlns="http://www.w3.org/2000/svg">
<path d="M40.2145 28.0442C39.3906 25.2654 37.8207 22.2753 35.6001 19.392C36.3325 17.7323 36.9498 15.6595 37.0945 13.2295C37.2145 11.2198 37.0116 8.96596 36.2842 6.5019L36.2756 6.47882C35.0286 3.00022 33.2756 1.08778 31.4286 0.355119C30.3387 -0.0774277 29.2192 -0.100513 28.1516 0.208102C27.1037 0.510642 26.1104 1.13395 25.2456 2.00147C23.6634 3.5895 22.5055 6.01468 22.2543 8.79464C21.3847 8.42771 20.5249 8.12152 19.6849 7.88216C15.5208 6.69144 11.7996 7.08025 9.50978 9.33047C7.21992 11.5807 6.82282 15.2342 8.03517 19.324C8.28011 20.1502 8.59186 20.9947 8.96546 21.85C6.13252 22.1052 3.65956 23.2424 2.04145 24.7928C1.15569 25.6421 0.518582 26.6178 0.210545 27.6457C-0.103677 28.693 -0.0776976 29.7926 0.366419 30.863C1.11734 32.671 3.06823 34.3866 6.61127 35.6125L6.63478 35.6211C9.47515 36.429 12.0409 36.5773 14.2837 36.3525C16.4128 36.1387 18.2486 35.5895 19.7505 34.9516C22.6873 37.1338 25.7318 38.6756 28.5623 39.4848C32.7263 40.6755 36.4475 40.2867 38.7374 38.0365C41.0285 35.7863 41.4244 32.1327 40.212 28.043L40.2145 28.0442ZM25.8679 2.60169C26.6299 1.83744 27.4959 1.29068 28.399 1.02945C29.281 0.774301 30.2051 0.793741 31.1045 1.14974C32.73 1.7937 34.295 3.53604 35.4479 6.74005C36.1444 9.10083 36.3387 11.2575 36.2236 13.1784C36.0974 15.2877 35.5989 17.1139 34.9853 18.6156C34.1651 17.6108 33.2657 16.6218 32.2896 15.6644C29.3775 12.8042 26.1908 10.605 23.1005 9.16887C23.2737 6.4691 24.3599 4.11439 25.8679 2.60047V2.60169ZM10.1296 9.93798C11.6067 8.48724 13.7926 7.91497 16.3435 8.12152C16.148 9.0012 15.835 9.86022 15.4033 10.6767C14.9159 11.5977 14.2788 12.464 13.4895 13.238C12.7003 14.0119 11.8194 14.6389 10.8817 15.1176C10.0516 15.5416 9.17577 15.8478 8.28011 16.041C8.06857 13.5356 8.65248 11.3887 10.1296 9.93798ZM8.87516 19.0859C8.65372 18.3362 8.48918 17.6047 8.38279 16.8976C9.3836 16.6911 10.3609 16.3521 11.2863 15.8794C12.3031 15.3606 13.2569 14.6826 14.1093 13.8467C14.9617 13.0095 15.652 12.0728 16.1802 11.074C16.6602 10.1652 17.0053 9.20532 17.2156 8.22237C17.9369 8.32686 18.6816 8.48846 19.4437 8.70595C20.3455 8.96353 21.2708 9.30009 22.2073 9.70955C22.1999 10.1324 22.2135 10.5601 22.2494 10.995C22.2927 11.5126 22.2927 12.0217 22.2519 12.5175C22.0552 14.9354 20.9207 17.1649 19.2185 18.8416C17.5163 20.5171 15.2474 21.6386 12.7856 21.8367C12.2759 21.878 11.7576 21.8792 11.2355 21.8391C10.784 21.8039 10.3374 21.7917 9.897 21.8002C9.48009 20.8804 9.13742 19.9716 8.87516 19.0859ZM14.1971 35.5032C12.057 35.717 9.6038 35.5749 6.88096 34.7997C3.61379 33.6661 1.83609 32.1327 1.17548 30.5411C0.809299 29.659 0.789506 28.7538 1.04806 27.8875C1.31403 27.0017 1.87073 26.1524 2.65133 25.404C4.19523 23.9253 6.59519 22.8573 9.34773 22.6787C10.81 25.7138 13.0503 28.8437 15.9612 31.7026C16.9361 32.6601 17.9406 33.5422 18.9637 34.3477C17.6189 34.8775 16.0206 35.3197 14.1971 35.502V35.5032ZM38.1225 37.4314C36.0752 39.4423 32.6657 39.7667 28.8085 38.6635C24.8658 37.5359 20.4779 34.9248 16.5798 31.0963C13.847 28.4123 11.7254 25.4927 10.304 22.6532C10.5885 22.6568 10.8768 22.6677 11.1675 22.6908C11.7378 22.7358 12.3019 22.7333 12.8574 22.6884C15.5307 22.4721 17.9901 21.2583 19.8333 19.4443C21.6766 17.629 22.9063 15.2099 23.1191 12.5831C23.1636 12.0327 23.1648 11.4774 23.1191 10.9234C23.0956 10.65 23.0844 10.379 23.0795 10.1105C25.9706 11.5066 28.9421 13.5903 31.6736 16.2731C35.5717 20.1016 38.2302 24.4113 39.3782 28.2836C40.5002 32.0708 40.1712 35.4194 38.1238 37.4314H38.1225Z" fill="#536275"/>
<path d="M30.6443 26.4999C29.7103 26.4999 28.7751 26.8498 28.0613 27.5509C27.3487 28.2508 26.9912 29.1693 26.9924 30.0866C26.9924 31.004 27.3487 31.9225 28.0613 32.6236C28.7738 33.3235 29.7091 33.6746 30.6443 33.6746C31.5796 33.6746 32.5136 33.3247 33.2274 32.6248C33.9412 31.925 34.2975 31.0064 34.2975 30.0879C34.2975 29.1705 33.9412 28.252 33.2274 27.5509C32.5148 26.8511 31.5796 26.5011 30.6455 26.5011L30.6443 26.4999ZM32.6088 32.0161C32.0657 32.5495 31.3544 32.8156 30.6443 32.8156C29.9342 32.8156 29.2229 32.5495 28.6798 32.0161C28.138 31.4839 27.8658 30.7841 27.8658 30.0866C27.8658 29.3892 28.138 28.6906 28.6798 28.1572C29.2229 27.6238 29.9342 27.3577 30.6443 27.3577C31.3544 27.3577 32.0657 27.6238 32.6088 28.1572C33.1519 28.6906 33.4228 29.3892 33.4228 30.0866C33.4228 30.7841 33.1519 31.4827 32.6088 32.0161Z" fill="#536275"/>
<path d="M51.7266 21.2101C52.4603 21.2101 53.1349 21.1796 53.7517 21.1185C54.3671 21.0575 54.9055 20.9878 55.3655 20.9079C55.901 20.8222 56.3892 20.7219 56.83 20.6057L56.5593 22.0905C56.4853 22.0847 56.3729 22.0789 56.2235 22.0716C56.0741 22.0658 55.9084 22.06 55.7235 22.0527C55.5386 22.0454 55.3478 22.0425 55.1451 22.0396C54.9425 22.0367 54.7517 22.0338 54.5712 22.0309C54.3907 22.028 54.231 22.0251 54.0904 22.0222C53.9499 22.0193 53.8493 22.0178 53.7872 22.0178H49.7563V21.9815C49.7933 21.8537 49.8288 21.6939 49.8643 21.505C49.8983 21.3161 49.9279 21.0808 49.9531 20.7989C49.9782 20.5185 49.996 20.1829 50.0093 19.795C50.0211 19.4071 50.0285 18.9538 50.0285 18.4337V12.4684C50.0285 11.9497 50.0226 11.495 50.0093 11.1071C49.9974 10.7192 49.9782 10.3836 49.9531 10.0988C49.9279 9.81408 49.8983 9.57872 49.8643 9.3884C49.8303 9.19953 49.7948 9.03972 49.7563 8.91187V8.87555H51.9959V8.91187C51.9589 9.03972 51.9219 9.19953 51.8879 9.3884C51.8539 9.57727 51.8258 9.81408 51.8036 10.0988C51.7814 10.3836 51.7636 10.7192 51.7474 11.1071C51.7311 11.495 51.7237 11.9483 51.7237 12.4684V21.2101H51.7266Z" fill="#536275"/>
<path d="M65.4139 8.65619C66.4523 8.65619 67.4123 8.82326 68.2925 9.15596C69.1726 9.48866 69.9329 9.95647 70.5734 10.5579C71.2139 11.1594 71.7154 11.8815 72.0763 12.7256C72.4373 13.5682 72.6177 14.5009 72.6177 15.5208C72.6177 16.1019 72.5497 16.6729 72.4121 17.2337C72.2745 17.7959 72.0748 18.3277 71.8101 18.8289C71.5453 19.3301 71.2213 19.7921 70.8353 20.2178C70.4492 20.642 70.0099 21.0096 69.5158 21.3176C69.0217 21.6256 68.4759 21.8668 67.8783 22.0411C67.2807 22.2154 66.6372 22.3026 65.9464 22.3026C64.908 22.3026 63.948 22.1399 63.0679 21.813C62.1877 21.4861 61.4274 21.0241 60.7869 20.4241C60.1464 19.8255 59.6449 19.1064 59.2855 18.2666C58.9245 17.4269 58.7441 16.4927 58.7441 15.467C58.7441 14.8874 58.8121 14.315 58.9497 13.7542C59.0858 13.1919 59.287 12.6573 59.5517 12.1502C59.8165 11.6432 60.139 11.1768 60.5221 10.7526C60.9052 10.3284 61.3431 9.95938 61.8371 9.64847C62.3312 9.33757 62.8785 9.09349 63.4791 8.9206C64.0796 8.74626 64.7246 8.65909 65.4154 8.65909L65.4139 8.65619ZM65.9449 21.4759C66.6357 21.4759 67.2674 21.3539 67.8384 21.1098C68.4108 20.8658 68.9034 20.5113 69.3176 20.0464C69.7318 19.5815 70.0527 19.0149 70.2835 18.3466C70.5128 17.6783 70.6282 16.9184 70.6282 16.07C70.6282 15.13 70.5172 14.2568 70.2968 13.4534C70.0764 12.65 69.748 11.9541 69.3117 11.3643C68.8768 10.7744 68.3339 10.3139 67.683 9.98117C67.0322 9.64847 66.2763 9.4814 65.4109 9.4814C64.7201 9.4814 64.0885 9.60198 63.5175 9.84315C62.9451 10.0843 62.4525 10.4344 62.0383 10.8921C61.6241 11.3497 61.3031 11.912 61.0724 12.5788C60.8416 13.2442 60.7277 14.0026 60.7277 14.851C60.7277 15.7852 60.8372 16.6584 61.0546 17.4676C61.2721 18.2768 61.599 18.9785 62.0339 19.5713C62.4688 20.164 63.0131 20.6304 63.6669 20.9689C64.3208 21.3074 65.0781 21.4774 65.9435 21.4774L65.9449 21.4759Z" fill="#536275"/>
<path d="M76.3202 8.87557V8.91189C76.3084 8.9424 76.298 8.98889 76.2921 9.04991C76.2862 9.11093 76.2833 9.16613 76.2833 9.21408C76.2833 9.40294 76.3099 9.61215 76.3631 9.8417C76.4164 10.0712 76.517 10.356 76.6664 10.6989L80.7993 19.8531L84.7932 10.7715C84.8864 10.5449 84.9855 10.2979 85.092 10.0291C85.1971 9.76034 85.2503 9.48866 85.2503 9.21408C85.2503 9.14143 85.2444 9.07896 85.2311 9.02666C85.2192 8.97436 85.2059 8.93659 85.1941 8.91189V8.87557H87.1067V8.91189C86.9884 9.02812 86.8449 9.23587 86.6778 9.53515C86.5091 9.83443 86.3257 10.2035 86.1275 10.6437L80.7816 22.2997H80.0346L74.9682 11.0926C74.8499 10.8296 74.7271 10.5768 74.5999 10.3313C74.4727 10.0872 74.3529 9.86494 74.2404 9.66736C74.128 9.46977 74.0289 9.3027 73.9416 9.16759C73.8544 9.03393 73.7952 8.94821 73.7641 8.91044V8.87411H76.3202V8.87557Z" fill="#536275"/>
<path d="M91.1406 8.86685C91.9083 8.86104 92.6139 8.85378 93.2544 8.84361C93.8949 8.83489 94.4422 8.82036 94.8963 8.80293C95.3505 8.78404 95.6581 8.7608 95.8194 8.73029L95.3623 9.94921C95.1567 9.894 94.9171 9.84606 94.6434 9.80247C94.4067 9.76615 94.1197 9.73128 93.781 9.69642C93.4423 9.663 93.0517 9.64557 92.6095 9.64557C92.4601 9.64557 92.2811 9.64993 92.0725 9.65864C91.8639 9.66736 91.6628 9.67898 91.4705 9.6906C91.2471 9.70223 91.0193 9.7153 90.79 9.72692V14.7305C91.4305 14.7247 92.0089 14.7058 92.5251 14.6753C93.0414 14.6447 93.4807 14.6142 93.8402 14.5837C94.2632 14.5474 94.636 14.5038 94.9599 14.4559L94.67 15.7852C94.241 15.73 93.8017 15.6777 93.355 15.6298C92.9689 15.5876 92.5488 15.5484 92.0947 15.515C91.6406 15.4816 91.2057 15.4641 90.7885 15.4641V21.2101C91.5222 21.2101 92.1968 21.1796 92.8136 21.1186C93.429 21.0575 93.9674 20.9878 94.4274 20.9079C94.9629 20.8222 95.4511 20.7219 95.8919 20.6057L95.6212 22.0905C95.5472 22.0847 95.4348 22.0789 95.2854 22.0716C95.136 22.0658 94.9703 22.06 94.7854 22.0527C94.6005 22.0455 94.4097 22.0426 94.207 22.0396C94.0044 22.0367 93.8135 22.0338 93.6331 22.0309C93.4526 22.028 93.2929 22.0251 93.1523 22.0222C93.0118 22.0193 92.9112 22.0179 92.8491 22.0179H88.8182V21.9815C88.8552 21.8537 88.8907 21.6939 88.9262 21.505C88.9602 21.3161 88.9898 21.0808 89.0149 20.7989C89.0401 20.5185 89.0578 20.1829 89.0711 19.795C89.083 19.4071 89.0904 18.9538 89.0904 18.4337V12.4684C89.0904 11.9498 89.0845 11.495 89.0711 11.1071C89.0593 10.7192 89.0401 10.3836 89.0149 10.0988C88.9898 9.8141 88.9602 9.57874 88.9262 9.38842C88.8922 9.19955 88.8567 9.03974 88.8182 8.91189V8.87557C89.5963 8.87557 90.3684 8.87266 91.1361 8.86685H91.1406Z" fill="#536275"/>
<path d="M111.027 10.9662H110.822C110.771 10.8252 110.693 10.6669 110.583 10.4896C110.474 10.3124 110.332 10.1453 110.155 9.98986C109.977 9.83441 109.763 9.70511 109.511 9.60051C109.26 9.49735 108.962 9.44505 108.621 9.44505C108.316 9.44505 108.045 9.49154 107.808 9.58307C107.572 9.6746 107.375 9.80245 107.217 9.96807C107.059 10.1322 106.939 10.3284 106.857 10.555C106.776 10.7817 106.736 11.0315 106.736 11.3061C106.736 11.7463 106.862 12.1662 107.113 12.5657C107.365 12.9653 107.681 13.3619 108.06 13.7527C108.439 14.1435 108.85 14.5343 109.292 14.9251C109.734 15.3159 110.144 15.7227 110.524 16.144C110.903 16.5654 111.22 17.007 111.471 17.4676C111.723 17.9296 111.848 18.425 111.848 18.9567C111.848 19.3533 111.779 19.7529 111.638 20.1524C111.498 20.5519 111.282 20.9122 110.99 21.2289C110.697 21.5471 110.322 21.8043 109.862 22.0033C109.402 22.2023 108.854 22.3011 108.22 22.3011C107.865 22.3011 107.527 22.2692 107.208 22.2052C106.888 22.1413 106.593 22.0614 106.322 21.967C106.051 21.8725 105.809 21.7694 105.594 21.6604C105.38 21.55 105.204 21.4498 105.067 21.3582L105.282 19.333H105.516C105.584 19.6207 105.696 19.8938 105.851 20.1538C106.007 20.4139 106.198 20.642 106.425 20.841C106.652 21.0401 106.912 21.1984 107.205 21.3176C107.498 21.4367 107.817 21.4963 108.166 21.4963C108.483 21.4963 108.768 21.4483 109.02 21.3539C109.271 21.2595 109.487 21.1287 109.668 20.9602C109.848 20.7916 109.986 20.5926 110.084 20.3602C110.18 20.1277 110.228 19.8749 110.228 19.5989C110.228 19.2139 110.157 18.8579 110.014 18.531C109.871 18.2042 109.683 17.8947 109.449 17.6012C109.215 17.3078 108.95 17.0245 108.656 16.7484C108.36 16.4738 108.057 16.1978 107.746 15.9189C107.436 15.6414 107.132 15.3552 106.837 15.0617C106.541 14.7682 106.276 14.4559 106.044 14.1217C105.81 13.789 105.622 13.4316 105.479 13.0495C105.335 12.6674 105.264 12.2476 105.264 11.7899C105.264 11.3076 105.359 10.8717 105.548 10.4838C105.738 10.0959 105.991 9.76468 106.304 9.49009C106.618 9.21551 106.974 9.00485 107.372 8.85811C107.77 8.71137 108.181 8.63873 108.604 8.63873C108.915 8.63873 109.202 8.66343 109.462 8.71137C109.724 8.76077 109.958 8.81888 110.166 8.88571C110.375 8.95254 110.557 9.02083 110.712 9.08766C110.868 9.15449 110.995 9.20969 111.095 9.25328L111.03 10.9662H111.027Z" fill="#536275"/>
<path d="M114.907 8.87555C115.032 8.88717 115.162 8.90025 115.299 8.91187C115.418 8.9235 115.549 8.93221 115.696 8.93512C115.842 8.93802 115.993 8.93948 116.148 8.93948C116.391 8.93948 116.719 8.91042 117.132 8.85231C117.546 8.79419 118.073 8.76514 118.713 8.76514C119.311 8.76514 119.863 8.85085 120.37 9.02229C120.877 9.19372 121.317 9.44361 121.69 9.7734C122.062 10.1032 122.354 10.5056 122.562 10.9778C122.771 11.4514 122.874 11.9904 122.874 12.5948C122.874 13.4069 122.709 14.1101 122.38 14.7028C122.05 15.2956 121.61 15.775 121.055 16.1411C120.502 16.5073 119.864 16.7571 119.142 16.8879C118.42 17.0201 117.665 17.0274 116.875 16.9111V18.4323C116.875 18.9524 116.882 19.4057 116.898 19.7936C116.913 20.1815 116.932 20.5156 116.955 20.7975C116.977 21.0779 117.005 21.3132 117.039 21.5035C117.073 21.6924 117.108 21.8522 117.147 21.9801V22.0164H114.907V21.9801C114.944 21.8522 114.98 21.6924 115.015 21.5035C115.049 21.3147 115.079 21.0793 115.104 20.7975C115.129 20.5171 115.147 20.1815 115.16 19.7936C115.172 19.4057 115.179 18.9524 115.179 18.4323V12.4669C115.179 11.9483 115.174 11.4935 115.16 11.1056C115.148 10.7177 115.129 10.3821 115.104 10.0974C115.079 9.81263 115.049 9.57727 115.015 9.38695C114.981 9.19808 114.946 9.03827 114.907 8.91042V8.8741V8.87555ZM116.876 16.1978C117.486 16.3082 118.043 16.3184 118.551 16.2298C119.058 16.1411 119.493 15.9523 119.857 15.6617C120.221 15.3711 120.503 14.9789 120.706 14.4835C120.909 13.9881 121.009 13.3837 121.009 12.6689C121.009 12.1735 120.956 11.7231 120.851 11.3178C120.744 10.911 120.588 10.5666 120.379 10.2819C120.17 9.99713 119.907 9.77776 119.591 9.62231C119.274 9.46685 118.903 9.3884 118.48 9.3884C118.212 9.3884 117.978 9.39857 117.78 9.42036C117.58 9.44216 117.413 9.46395 117.276 9.48864C117.114 9.51915 116.98 9.55257 116.875 9.58889V16.1964L116.876 16.1978Z" fill="#536275"/>
<path d="M133.763 22.0164V21.9801C133.775 21.9496 133.785 21.9031 133.791 21.842C133.797 21.781 133.8 21.7258 133.8 21.6764C133.8 21.4876 133.773 21.2783 133.72 21.0488C133.667 20.8193 133.566 20.5345 133.417 20.1916L132.288 17.6986C131.939 17.687 131.476 17.6797 130.898 17.6797H127.599C127.142 17.6797 126.729 17.6855 126.362 17.6986L125.29 20.1175C125.197 20.3442 125.098 20.5912 124.991 20.8599C124.885 21.1287 124.833 21.4004 124.833 21.675C124.833 21.7549 124.839 21.8203 124.852 21.8726C124.864 21.9249 124.877 21.9597 124.889 21.9786V22.0149H122.985V21.9786C123.098 21.8624 123.237 21.6561 123.405 21.3597C123.573 21.0633 123.757 20.6929 123.956 20.2468L129.302 8.59952H130.049L135.115 19.7979C135.233 20.0609 135.356 20.3151 135.483 20.5636C135.611 20.8105 135.73 21.0328 135.843 21.2275C135.955 21.4236 136.054 21.5878 136.142 21.7229C136.229 21.858 136.288 21.9423 136.319 21.9801V22.0164H133.763ZM127.717 16.8937C128.078 16.8937 128.448 16.8937 128.828 16.8894C129.207 16.8865 129.58 16.8835 129.944 16.8806C130.307 16.8777 130.658 16.8748 130.994 16.8719C131.33 16.869 131.634 16.8647 131.908 16.8588L129.287 11.0403L126.711 16.8952H127.719L127.717 16.8937Z" fill="#536275"/>
<path d="M149.055 10.8921L148.971 10.9284C148.486 10.4882 147.903 10.1366 147.221 9.87511C146.54 9.61214 145.792 9.48139 144.977 9.48139C144.162 9.48139 143.474 9.60197 142.822 9.84314C142.168 10.0843 141.607 10.4344 141.138 10.8921C140.668 11.3497 140.303 11.912 140.042 12.5788C139.78 13.2442 139.65 14.0026 139.65 14.851C139.65 15.7852 139.775 16.6584 140.023 17.4676C140.272 18.2768 140.641 18.9785 141.134 19.5713C141.625 20.164 142.239 20.6304 142.977 20.9689C143.714 21.3074 144.575 21.4774 145.557 21.4774C145.912 21.4774 146.265 21.4411 146.62 21.367C146.975 21.2943 147.316 21.1854 147.642 21.0415C147.969 20.8977 148.277 20.7234 148.566 20.52C148.855 20.3151 149.117 20.0812 149.354 19.8183L149.456 19.8822L148.709 21.752C148.243 21.9292 147.728 22.0643 147.165 22.1602C146.601 22.2547 146.035 22.3026 145.462 22.3026C144.311 22.3026 143.258 22.1399 142.304 21.813C141.348 21.4861 140.527 21.0241 139.841 20.4241C139.153 19.8255 138.619 19.1064 138.236 18.2666C137.853 17.4269 137.662 16.4927 137.662 15.467C137.662 14.8874 137.738 14.315 137.891 13.7542C138.044 13.1919 138.266 12.6573 138.559 12.1502C138.851 11.6432 139.212 11.1768 139.641 10.7526C140.07 10.3284 140.56 9.95937 141.11 9.64847C141.661 9.33756 142.267 9.09348 142.93 8.9206C143.592 8.74771 144.308 8.65909 145.08 8.65909C146.282 8.65909 147.394 8.83924 148.421 9.19954L149.055 10.895V10.8921Z" fill="#536275"/>
<path d="M154.247 8.86685C155.015 8.86104 155.721 8.85378 156.361 8.84361C157.002 8.83489 157.549 8.82036 158.003 8.80293C158.457 8.78404 158.765 8.7608 158.926 8.73029L158.469 9.94921C158.263 9.894 158.024 9.84606 157.75 9.80247C157.513 9.76615 157.226 9.73128 156.888 9.69642C156.549 9.663 156.158 9.64557 155.716 9.64557C155.567 9.64557 155.388 9.64993 155.179 9.65864C154.971 9.66736 154.769 9.67898 154.577 9.6906C154.354 9.70223 154.126 9.7153 153.897 9.72692V14.7305C154.537 14.7247 155.116 14.7058 155.632 14.6753C156.148 14.6447 156.587 14.6142 156.947 14.5837C157.37 14.5474 157.743 14.5038 158.067 14.4559L157.777 15.7852C157.348 15.73 156.908 15.6777 156.462 15.6298C156.076 15.5876 155.655 15.5484 155.201 15.515C154.747 15.4816 154.312 15.4641 153.895 15.4641V21.2101C154.629 21.2101 155.303 21.1796 155.92 21.1186C156.536 21.0575 157.074 20.9878 157.534 20.9079C158.07 20.8222 158.558 20.7219 158.999 20.6057L158.728 22.0905C158.654 22.0847 158.541 22.0789 158.392 22.0716C158.243 22.0658 158.077 22.06 157.892 22.0527C157.707 22.0455 157.516 22.0426 157.314 22.0396C157.111 22.0367 156.92 22.0338 156.74 22.0309C156.559 22.028 156.4 22.0251 156.259 22.0222C156.118 22.0193 156.018 22.0179 155.956 22.0179H151.925V21.9815C151.962 21.8537 151.997 21.6939 152.033 21.505C152.067 21.3161 152.096 21.0808 152.122 20.7989C152.147 20.5185 152.164 20.1829 152.178 19.795C152.19 19.4071 152.197 18.9538 152.197 18.4337V12.4684C152.197 11.9498 152.191 11.495 152.178 11.1071C152.166 10.7192 152.147 10.3836 152.122 10.0988C152.096 9.8141 152.067 9.57874 152.033 9.38842C151.999 9.19955 151.963 9.03974 151.925 8.91189V8.87557C152.703 8.87557 153.475 8.87266 154.243 8.86685H154.247Z" fill="#536275"/>
<path d="M51.3997 33.9456C51.0344 33.7262 50.7533 33.4298 50.5551 33.0564C50.3569 32.6831 50.2578 32.2734 50.2578 31.8259C50.2578 31.3784 50.3569 30.9687 50.5551 30.5953C50.7533 30.222 51.0344 29.9256 51.3997 29.7062C51.7651 29.4868 52.1852 29.3779 52.663 29.3779C52.987 29.3779 53.2961 29.4403 53.592 29.5667C53.8863 29.6931 54.1452 29.8689 54.3656 30.0941L54.1555 30.2467C53.7458 29.8312 53.2414 29.6234 52.6423 29.6234C52.2104 29.6234 51.8317 29.7207 51.5077 29.9154C51.1838 30.1101 50.9353 30.3745 50.7607 30.7087C50.5876 31.0428 50.5004 31.4147 50.5004 31.8259C50.5004 32.237 50.5876 32.6104 50.7607 32.9475C50.9338 33.2831 51.1823 33.5489 51.5077 33.7436C51.8332 33.9383 52.2104 34.0356 52.6423 34.0356C53.2414 34.0356 53.7458 33.8279 54.1555 33.4124L54.3656 33.5577C54.1452 33.7828 53.8878 33.9586 53.592 34.085C53.2976 34.2114 52.987 34.2739 52.663 34.2739C52.1852 34.2739 51.7651 34.1649 51.3997 33.9456Z" fill="#536275"/>
<path d="M55.3108 29.4316H56.9113C57.1865 29.4316 57.4394 29.497 57.6717 29.6278C57.9039 29.7585 58.0888 29.9314 58.2249 30.145C58.3625 30.36 58.4305 30.5866 58.4305 30.8249C58.4438 31.0239 58.3965 31.2288 58.2885 31.438C58.1805 31.6486 58.0267 31.8244 57.8255 31.9683C57.6258 32.1121 57.401 32.1935 57.1539 32.2109L58.6539 34.2201H58.3699L56.8433 32.2109H55.5534V34.2201H55.3108V29.4302V29.4316ZM57.6007 31.8201C57.7856 31.714 57.9305 31.5716 58.037 31.3915C58.1421 31.2128 58.1953 31.0196 58.1953 30.8104C58.1953 30.6012 58.1421 30.4108 58.037 30.2336C57.9305 30.0563 57.787 29.9169 57.6051 29.8152C57.4232 29.7135 57.2205 29.6626 57.0001 29.6626H55.5549V31.9784H57.0001C57.2161 31.9784 57.4172 31.9247 57.6007 31.8186V31.8201Z" fill="#536275"/>
<path d="M62.5102 29.6626H59.7544V31.6399H62.3076V31.8782H59.7544V33.9877H62.5102V34.2201H59.5044V29.4302H62.5102V29.6626Z" fill="#536275"/>
<path d="M67.3192 34.2201H67.0425L66.4139 32.7339H63.948L63.3193 34.2201H63.0427L65.0693 29.4302H65.2926L67.3192 34.2201ZM66.3325 32.5087L65.1846 29.7818L64.0235 32.5087H66.334H66.3325Z" fill="#536275"/>
<path d="M70.8456 29.6626H69.285V34.2201H69.0484V29.6626H67.5144V29.4302H70.8441V29.6626H70.8456Z" fill="#536275"/>
<path d="M74.6946 29.6626H71.9388V31.6399H74.4919V31.8782H71.9388V33.9877H74.6946V34.2201H71.6888V29.4302H74.6946V29.6626Z" fill="#536275"/>
<path d="M81.3274 34.2201H81.0508L80.4221 32.7339H77.9563L77.3276 34.2201H77.051L79.0775 29.4302H79.3009L81.3274 34.2201ZM80.3408 32.5087L79.1929 29.7818L78.0317 32.5087H80.3422H80.3408Z" fill="#536275"/>
<path d="M87.8996 34.2201H87.657V29.9677L85.9618 33.1654H85.8331L84.1246 29.9677V34.2201H83.8879V29.4302H84.1246L85.9012 32.8007L87.657 29.4302H87.8996V34.2201Z" fill="#536275"/>
<path d="M92.04 29.6626H89.2842V31.6399H91.8373V31.8782H89.2842V33.9877H92.04V34.2201H89.0342V29.4302H92.04V29.6626Z" fill="#536275"/>
<path d="M97.0383 34.2201H96.7957V29.9677L95.1005 33.1654H94.9718L93.2633 29.9677V34.2201H93.0266V29.4302H93.2633L95.0398 32.8007L96.7957 29.4302H97.0383V34.2201Z" fill="#536275"/>
<path d="M98.2912 30.5924C98.482 30.2205 98.7556 29.9256 99.1121 29.7062C99.4686 29.4868 99.8843 29.3779 100.362 29.3779C100.84 29.3779 101.256 29.4868 101.612 29.7062C101.969 29.9256 102.241 30.2205 102.433 30.5924C102.624 30.9644 102.72 31.3755 102.72 31.8259C102.72 32.2763 102.624 32.6889 102.433 33.0637C102.242 33.4385 101.969 33.732 101.612 33.9499C101.257 34.1664 100.84 34.2754 100.362 34.2754C99.8843 34.2754 99.4686 34.1664 99.1121 33.9499C98.7571 33.7334 98.4834 33.4385 98.2912 33.0637C98.0989 32.6889 98.0042 32.2777 98.0042 31.8259C98.0042 31.3741 98.1003 30.9629 98.2912 30.5924ZM101.473 33.7305C101.791 33.5359 102.035 33.2714 102.205 32.9373C102.377 32.6031 102.463 32.2327 102.463 31.8259C102.463 31.4191 102.377 31.0501 102.205 30.7188C102.034 30.3876 101.79 30.1246 101.473 29.9299C101.155 29.7353 100.785 29.6379 100.362 29.6379C99.939 29.6379 99.5677 29.7338 99.2482 29.927C98.9287 30.1203 98.6846 30.3832 98.516 30.7159C98.3474 31.0501 98.263 31.4205 98.263 31.8273C98.263 32.2341 98.3474 32.6104 98.516 32.9417C98.6846 33.2729 98.9287 33.5359 99.2482 33.7305C99.5677 33.9252 99.939 34.0226 100.362 34.0226C100.785 34.0226 101.156 33.9252 101.473 33.7305Z" fill="#536275"/>
<path d="M103.535 29.4316H105.136C105.411 29.4316 105.664 29.497 105.896 29.6278C106.128 29.7585 106.313 29.9314 106.449 30.145C106.587 30.36 106.655 30.5866 106.655 30.8249C106.668 31.0239 106.621 31.2288 106.513 31.438C106.405 31.6486 106.251 31.8244 106.05 31.9683C105.85 32.1121 105.625 32.1935 105.378 32.2109L106.878 34.2201H106.594L105.067 32.2109H103.778V34.2201H103.535V29.4302V29.4316ZM105.825 31.8201C106.01 31.714 106.155 31.5716 106.261 31.3915C106.366 31.2128 106.419 31.0196 106.419 30.8104C106.419 30.6012 106.366 30.4108 106.261 30.2336C106.155 30.0563 106.011 29.9169 105.829 29.8152C105.647 29.7135 105.446 29.6626 105.224 29.6626H103.779V31.9784H105.224C105.44 31.9784 105.641 31.9247 105.825 31.8186V31.8201Z" fill="#536275"/>
<path d="M109.344 32.3503V34.2216H109.094V32.3503L107.149 29.4316H107.433L109.215 32.1048L110.998 29.4316H111.282L109.344 32.3503Z" fill="#536275"/>
<path d="M117.037 29.6626H115.477V34.2201H115.24V29.6626H113.708V29.4302H117.037V29.6626Z" fill="#536275"/>
<path d="M117.527 30.5924C117.718 30.2205 117.991 29.9256 118.348 29.7062C118.704 29.4868 119.12 29.3779 119.598 29.3779C120.076 29.3779 120.491 29.4868 120.848 29.7062C121.204 29.9256 121.477 30.2205 121.669 30.5924C121.86 30.9644 121.956 31.3755 121.956 31.8259C121.956 32.2763 121.86 32.6889 121.669 33.0637C121.478 33.4385 121.204 33.732 120.848 33.9499C120.493 34.1664 120.076 34.2754 119.598 34.2754C119.12 34.2754 118.704 34.1664 118.348 33.9499C117.993 33.7334 117.719 33.4385 117.527 33.0637C117.335 32.6889 117.24 32.2777 117.24 31.8259C117.24 31.3741 117.336 30.9629 117.527 30.5924ZM120.709 33.7305C121.027 33.5359 121.271 33.2714 121.441 32.9373C121.613 32.6031 121.698 32.2327 121.698 31.8259C121.698 31.4191 121.613 31.0501 121.441 30.7188C121.269 30.3876 121.025 30.1246 120.709 29.9299C120.391 29.7353 120.021 29.6379 119.598 29.6379C119.175 29.6379 118.804 29.7338 118.484 29.927C118.165 30.1203 117.92 30.3832 117.752 30.7159C117.583 31.0501 117.499 31.4205 117.499 31.8273C117.499 32.2341 117.583 32.6104 117.752 32.9417C117.92 33.2729 118.165 33.5359 118.484 33.7305C118.804 33.9252 119.175 34.0226 119.598 34.0226C120.021 34.0226 120.392 33.9252 120.709 33.7305Z" fill="#536275"/>
<path d="M124.595 29.4316H126.195C126.47 29.4316 126.723 29.497 126.956 29.6278C127.188 29.7585 127.373 29.9314 127.509 30.145C127.646 30.36 127.714 30.5866 127.714 30.8249C127.728 31.0239 127.68 31.2288 127.572 31.438C127.464 31.6486 127.311 31.8244 127.109 31.9683C126.91 32.1121 126.685 32.1935 126.438 32.2109L127.938 34.2201H127.654L126.127 32.2109H124.837V34.2201H124.595V29.4302V29.4316ZM126.885 31.8201C127.069 31.714 127.214 31.5716 127.321 31.3915C127.426 31.2128 127.479 31.0196 127.479 30.8104C127.479 30.6012 127.426 30.4108 127.321 30.2336C127.214 30.0563 127.071 29.9169 126.889 29.8152C126.707 29.7135 126.506 29.6626 126.284 29.6626H124.839V31.9784H126.284C126.5 31.9784 126.701 31.9247 126.885 31.8186V31.8201Z" fill="#536275"/>
<path d="M131.796 29.6626H129.04V31.6399H131.593V31.8782H129.04V33.9877H131.796V34.2201H128.79V29.4302H131.796V29.6626Z" fill="#536275"/>
<path d="M136.792 34.2201H136.55V29.9677L134.855 33.1654H134.726L133.017 29.9677V34.2201H132.781V29.4302H133.017L134.794 32.8007L136.55 29.4302H136.792V34.2201Z" fill="#536275"/>
<path d="M140.933 29.6626H138.177V31.6399H140.73V31.8782H138.177V33.9877H140.933V34.2201H137.927V29.4302H140.933V29.6626Z" fill="#536275"/>
<path d="M145.931 34.2201H145.688V29.9677L143.993 33.1654H143.865L142.156 29.9677V34.2201H141.919V29.4302H142.156L143.933 32.8007L145.688 29.4302H145.931V34.2201Z" fill="#536275"/>
<path d="M147.14 29.4316H148.916C149.159 29.4316 149.384 29.4897 149.588 29.6045C149.792 29.7193 149.955 29.8762 150.074 30.0752C150.194 30.2743 150.253 30.4936 150.253 30.7319C150.253 30.9266 150.178 31.1155 150.027 31.2985C149.876 31.4816 149.7 31.6225 149.497 31.7198C149.641 31.7779 149.782 31.8666 149.916 31.9886C150.051 32.1106 150.162 32.2516 150.247 32.4128C150.333 32.5741 150.376 32.7339 150.376 32.8937C150.376 33.1363 150.315 33.3586 150.194 33.5606C150.073 33.7611 149.909 33.9223 149.702 34.0415C149.495 34.1606 149.27 34.2201 149.026 34.2201H147.141V29.4302L147.14 29.4316ZM147.376 31.6269H149.011C149.191 31.6181 149.357 31.5702 149.511 31.4845C149.665 31.3988 149.786 31.284 149.876 31.1431C149.966 31.0021 150.011 30.8452 150.011 30.6723C150.011 30.482 149.962 30.3106 149.866 30.158C149.768 30.0055 149.639 29.8849 149.478 29.7963C149.316 29.7077 149.141 29.6641 148.952 29.6641H147.378V31.6283L147.376 31.6269ZM147.376 33.995H149.058C149.247 33.995 149.424 33.9499 149.585 33.8584C149.746 33.7669 149.876 33.6434 149.972 33.4865C150.068 33.3296 150.117 33.1538 150.117 32.9591C150.117 32.7644 150.068 32.5683 149.972 32.3983C149.876 32.2283 149.746 32.0947 149.585 31.9973C149.424 31.9 149.247 31.852 149.058 31.852H147.376V33.995Z" fill="#536275"/>
<path d="M154.232 29.6626H151.477V31.6399H154.03V31.8782H151.477V33.9877H154.232V34.2201H151.227V29.4302H154.232V29.6626Z" fill="#536275"/>
<path d="M155.225 29.4316H156.826C157.101 29.4316 157.354 29.497 157.586 29.6278C157.818 29.7585 158.003 29.9314 158.139 30.145C158.277 30.36 158.345 30.5866 158.345 30.8249C158.358 31.0239 158.311 31.2288 158.203 31.438C158.095 31.6486 157.941 31.8244 157.74 31.9683C157.54 32.1121 157.315 32.1935 157.068 32.2109L158.568 34.2201H158.284L156.758 32.2109H155.468V34.2201H155.225V29.4302V29.4316ZM157.515 31.8201C157.7 31.714 157.845 31.5716 157.951 31.3915C158.056 31.2128 158.11 31.0196 158.11 30.8104C158.11 30.6012 158.056 30.4108 157.951 30.2336C157.845 30.0563 157.701 29.9169 157.519 29.8152C157.337 29.7135 157.136 29.6626 156.914 29.6626H155.469V31.9784H156.914C157.13 31.9784 157.331 31.9247 157.515 31.8186V31.8201Z" fill="#536275"/>
</svg>
